<svg version="1.2" xmlns="http://www.w3.org/2000/svg" viewBox="0 0 257 354" width="257" height="354">
	<title>colored-svg</title>
	<style>
		.s0 { fill: #f5d793 } 
		.s1 { fill: #1c0d00 } 
		.s2 { fill: #f5ead4 } 
		.s3 { opacity: .1;fill: #e4be04 } 
		.s4 { opacity: .1;fill: #fff6d5 } 
		.s5 { opacity: .7;fill: none;stroke: #fff6d5;stroke-miterlimit:100 } 
		.s6 { opacity: .1;fill: #e38700 } 
		.s7 { opacity: .1;fill: #e4ad04 } 
		.s8 { opacity: .1;fill: #c9570e } 
		.s9 { opacity: .9;fill: none;stroke: #fff6d5;stroke-miterlimit:100 } 
	</style>
	<g id="g2">
		<path id="path2" class="s0" d="m30.6 15.1c8 15.6 16 31.2 24.1 46.9 4-4.2 7.9-8.3 12-12.5 1.1 2.6 2.1 5 3.1 7.5 2.6 6 5.1 12.1 7.6 18.2l-18.2 17.4q-1-2-2.1-4c-4 4.5-7.9 8.9-12.1 13.6q-7.3-43.6-14.7-87c0.2 0 0.3 0 0.3-0.1z"/>
		<path id="path1" class="s0" d="m209.1 252.5c4.8 29.1 9.8 58 14.6 86.8-0.1 0-0.2 0.1-0.2 0.1-8-15.5-16-31.1-24.1-46.7-4 4.2-7.9 8.3-12 12.5-3.5-8.3-6.8-16.4-10.1-24.4l17.5-18.9c0.7 1.4 1.1 2.4 2.1 4.2 4.2-4.6 8.1-9 12.2-13.6z"/>
	</g>
	<g id="shell_x5F_black_copy_xA0_Image_1_">
		<path id="path19" class="s1" d="m129.6 299.4c-1.8 0-3.7 0-5.5 0-0.3-0.1-0.6-0.2-0.9-0.2-11.1-0.5-21.5-3.4-31.4-8.2-0.7-0.4-1.2-0.8-1.4-1.6-0.5-2-1-3.9-1.6-5.9-1 0.2-2 0.3-3 0.5-4.9 0.9-4.9 0.9-9-2.1-13.8-10.5-24-23.9-31.9-39.3-0.1-0.4-0.1-1.2 0-1.7 0.7-1.8 1.4-3.6 2.2-5.5-1.9-0.6-3.6-1.2-5.4-1.7-0.7-0.2-1.1-0.6-1.4-1.3-6.2-15.7-9.6-32-10.1-48.8 0-0.6 0.3-1.2 0.7-1.7 1.3-1.4 2.6-2.8 3.9-4.1-0.1-0.2-0.1-0.3-0.1-0.3-1.2-1.3-2.5-2.6-3.7-3.9-0.4-0.5-0.7-1.2-0.7-1.7 0.6-16.8 4-33.1 10.1-48.8 0.4-0.7 0.7-1.1 1.4-1.3 1.9-0.5 3.5-1.1 5.5-1.7-0.9-2-1.6-3.8-2.4-5.6-0.1-0.5-0.1-1.1 0.1-1.5 1-2 2-3.9 3.1-5.8 8.1-14.2 18.6-26.4 32-35.8 0.7-0.5 1.3-0.6 2.1-0.5 2.2 0.5 4.4 0.8 6.6 1.2 0.6-2.1 1-4.1 1.6-6 0.2-0.5 0.6-1.2 1.1-1.4 8.9-4.4 18.3-7.2 28.2-8.1 1.5-0.1 2.9-0.3 4.4-0.4 1.9 0 3.8 0 5.8 0 0.3 0.1 0.6 0.2 0.9 0.2 11 0.5 21.3 3.3 31.2 8.1 0.9 0.4 1.3 1 1.5 1.9 0.4 1.9 1 3.8 1.5 5.7 2.2-0.4 4.4-0.7 6.5-1.1 1-0.2 1.6 0 2.4 0.5 15.3 10.8 26.6 25 35 41.6 0.2 0.4 0.2 1 0 1.4-0.7 1.9-1.5 3.7-2.2 5.6 1.8 0.6 3.5 1.2 5.2 1.7 0.8 0.2 1.3 0.6 1.6 1.5 5.5 13.8 8.7 28.1 9.8 42.9 0.1 1.6 0.3 3.2 0.4 4.9 0 0.6 0 1.3 0 1.9-1.6 1.6-3.1 3.2-4.7 4.8 1.6 1.6 3.1 3.2 4.7 4.8 0 0.6 0 1.3 0 1.9-0.1 0.3-0.2 0.5-0.2 0.8-0.2 3.1-0.4 6.1-0.7 9.2-1.4 13.1-4.5 25.7-9.3 37.9-0.3 0.7-0.6 1.1-1.4 1.3-1.8 0.5-3.6 1.2-5.4 1.7q0 0.3 0 0.3c0.7 1.7 1.3 3.3 2 5 0.3 0.8 0.4 1.4-0.1 2.1-0.9 1.6-1.7 3.2-2.5 4.8-8.2 14.5-18.7 27-32.4 36.6-0.7 0.5-1.3 0.7-2.2 0.5-2.2-0.5-4.4-0.8-6.5-1.1-0.1 0.2-0.2 0.3-0.2 0.4-0.5 1.9-1 3.9-1.6 5.8-0.2 0.5-0.6 1.1-1 1.3-8.9 4.4-18.2 7.2-28.1 8.1-1.6-0.1-3.1 0.1-4.5 0.2z"/>
		<path id="path3" fill-rule="evenodd" class="s2" d="m129.6 299.4c-1.8 0-3.7 0-5.5 0-0.3-0.1-0.6-0.2-0.9-0.2-11.1-0.5-21.5-3.4-31.4-8.2-0.7-0.4-1.2-0.8-1.4-1.6-0.5-2-1-3.9-1.6-5.9-1 0.2-2 0.3-3 0.5-4.9 0.9-4.9 0.9-9-2.1-13.8-10.5-24-23.9-31.9-39.3-0.1-0.4-0.1-1.2 0-1.7 0.7-1.8 1.4-3.6 2.2-5.5-1.9-0.6-3.6-1.2-5.4-1.7-0.7-0.2-1.1-0.6-1.4-1.3-6.2-15.7-9.6-32-10.1-48.8 0-0.6 0.3-1.2 0.7-1.7 1.3-1.4 2.6-2.8 3.9-4.1-0.1-0.2-0.1-0.3-0.1-0.3-1.2-1.3-2.5-2.6-3.7-3.9-0.4-0.5-0.7-1.2-0.7-1.7 0.6-16.8 4-33.1 10.1-48.8 0.4-0.7 0.7-1.1 1.4-1.3 1.9-0.5 3.5-1.1 5.5-1.7-0.9-2-1.6-3.8-2.4-5.6-0.1-0.5-0.1-1.1 0.1-1.5 1-2 2-3.9 3.1-5.8 8.1-14.2 18.6-26.4 32-35.8 0.7-0.5 1.3-0.6 2.1-0.5 2.2 0.5 4.4 0.8 6.6 1.2 0.6-2.1 1-4.1 1.6-6 0.2-0.5 0.6-1.2 1.1-1.4 8.9-4.4 18.3-7.2 28.2-8.1 1.5-0.1 2.9-0.3 4.4-0.4 1.9 0 3.8 0 5.8 0 0.3 0.1 0.6 0.2 0.9 0.2 11 0.5 21.3 3.3 31.2 8.1 0.9 0.4 1.3 1 1.5 1.9 0.4 1.9 1 3.8 1.5 5.7 2.2-0.4 4.4-0.7 6.5-1.1 1-0.2 1.6 0 2.4 0.5 15.3 10.8 26.6 25 35 41.6 0.2 0.4 0.2 1 0 1.4-0.7 1.9-1.5 3.7-2.2 5.6 1.8 0.6 3.5 1.2 5.2 1.7 0.8 0.2 1.3 0.6 1.6 1.5 5.5 13.8 8.7 28.1 9.8 42.9 0.1 1.6 0.3 3.2 0.4 4.9 0 0.6 0 1.3 0 1.9-1.6 1.6-3.1 3.2-4.7 4.8 1.6 1.6 3.1 3.2 4.7 4.8 0 0.6 0 1.3 0 1.9-0.1 0.3-0.2 0.5-0.2 0.8-0.2 3.1-0.4 6.1-0.7 9.2-1.4 13.1-4.5 25.7-9.3 37.9-0.3 0.7-0.6 1.1-1.4 1.3-1.8 0.5-3.6 1.2-5.4 1.7q0 0.3 0 0.3c0.7 1.7 1.3 3.3 2 5 0.3 0.8 0.4 1.4-0.1 2.1-0.9 1.6-1.7 3.2-2.5 4.8-8.2 14.5-18.7 27-32.4 36.6-0.7 0.5-1.3 0.7-2.2 0.5-2.2-0.5-4.4-0.8-6.5-1.1-0.1 0.2-0.2 0.3-0.2 0.4-0.5 1.9-1 3.9-1.6 5.8-0.2 0.5-0.6 1.1-1 1.3-8.9 4.4-18.2 7.2-28.1 8.1-1.6-0.1-3.1 0.1-4.5 0.2zm30.7-23.7c1.9 0.3 3.6 0.6 5.3 0.9 0.8 0.2 1.4 0 2.2-0.5 14.1-9.9 24.6-23 32.3-38.4 0.2-0.4 0.2-1.1 0-1.6-0.7-1.6-1.3-3.3-1.9-5 1.7-0.5 3.3-1 4.8-1.6 0.5-0.2 1-0.7 1.2-1.1 0.9-2.3 1.8-4.7 2.6-7.1 4.1-12.4 6.3-25.2 6.9-38.3 0-1-0.2-1.8-1-2.4-1-0.9-2.1-1.8-3.2-2.7 1.4-1.4 2.4-2.5 3.4-3.5 0.5-0.5 0.8-1.1 0.7-1.9-0.3-3.7-0.5-7.3-0.9-11-1.3-11.9-4.1-23.4-8.6-34.5-0.2-0.5-0.8-1.1-1.4-1.3-1.5-0.6-3.1-1.1-4.7-1.6 0.7-1.7 1.4-3.2 1.9-4.8 0.2-0.6 0.2-1.4-0.1-1.9-2.7-4.7-5.4-9.4-8.4-13.9-6.5-9.6-14.5-17.8-24-24.3-0.6-0.4-1.1-0.6-2-0.4-1.6 0.4-3.5 0.6-5.1 0.9-0.2-0.2-0.2-0.2-0.2-0.3-0.4-1.5-0.8-3.1-1.3-4.6-0.2-0.4-0.5-0.9-0.9-1.1-9.6-4.8-19.8-7.4-30.6-7.5-11.2-0.1-21.9 2.5-31.9 7.4-0.4 0.2-0.8 0.8-0.9 1.2-0.5 1.6-0.9 3.2-1.4 4.9-1.7-0.3-3.4-0.5-5-0.9-1-0.2-1.7 0-2.5 0.6-14.2 9.9-24.5 23.1-32.3 38.4-0.2 0.4-0.2 0.9 0 1.3 0.6 1.7 1.3 3.3 2 5-1.7 0.6-3.2 1.1-4.7 1.5-0.8 0.2-1.2 0.7-1.5 1.4-5.8 14.7-8.8 29.9-9.3 45.7 0 0.5 0.3 1.2 0.7 1.6 0.9 1.1 2 2.1 3.1 3.3-1.1 1.1-2.2 2.2-3.1 3.3-0.4 0.5-0.7 1.2-0.7 1.8 0.2 3.3 0.3 6.6 0.7 9.9 1.2 12.2 4.1 24.1 8.6 35.5 0.3 0.9 0.8 1.3 1.7 1.6 1.5 0.4 2.9 0.9 4.5 1.5-0.7 1.7-1.4 3.3-1.9 4.9-0.2 0.5-0.2 1.2 0 1.6 1.9 3.4 3.6 6.8 5.6 10 7 11.2 15.9 20.9 26.9 28.4 0.5 0.3 1.1 0.5 1.8 0.4 1.8-0.2 3.5-0.6 5.2-0.9 0 0.1 0.1 0.2 0.1 0.2 0.4 1.6 0.9 3.2 1.4 4.7 0 0.4 0.5 0.9 0.9 1.1 9.6 4.8 20.1 7.4 30.9 7.4q16.6 0 31.4-7.5c0.4-0.2 0.8-0.7 0.9-1.1 0.9-1.3 1.3-3 1.8-4.7z"/>
		<path id="path4" class="s1" d="m50.5 178c-2.1-2.2-3.8-4-5.5-5.8-0.3-0.4-0.6-1-0.6-1.5 0.7-14.1 3.4-27.7 8.5-40.9 0.2-0.5 0.7-0.9 1.2-1.1 4.2-2.1 8.8-1.9 13.4-1.9h20.3c0.9 0 1.4-0.2 2-1 5.4-7.7 10.8-15.3 16.3-23 1.1-1.6 2.7-2.4 4.6-2.4h32.5c1.9 0 3.4 0.8 4.4 2.3 4.6 6.5 9.2 13 13.8 19.6l2.4 3.6c0.5 0.8 1 0.9 1.9 0.9h26.3c3 0 5.5 1.3 8.2 2.1 0.3 0.1 0.5 0.6 0.7 0.9 3.7 9.6 6.2 19.6 7.5 29.8 0.5 3.7 0.7 7.5 1 11.2 0 0.5-0.3 1.2-0.6 1.5-1.7 1.8-3.4 3.5-5.2 5.3 1.7 1.8 3.3 3.6 5 5.2 0.7 0.7 0.9 1.4 0.9 2.3-0.7 12.1-2.8 23.9-6.6 35.3l-1.8 5.1c-0.2 0.5-0.7 0.9-1.2 1.1-3.5 1.5-7.2 2-11.1 1.9-7.6-0.2-15.3 0-22.9-0.1-0.9 0-1.4 0.2-1.9 0.9-5.4 7.7-10.8 15.5-16.2 23.2-1 1.4-2.5 2.2-4.2 2.2h-33.1c-1.7 0-3.2-0.8-4.2-2.2-4.6-6.5-9.2-13-13.7-19.5-0.9-1.2-1.7-2.5-2.5-3.8-0.4-0.6-0.9-0.8-1.6-0.8h-13.8c-4.8 0-9.6 0.1-14.4-0.2-2.2-0.2-4.4-1.2-6.6-1.9-0.3-0.1-0.4-0.5-0.6-0.9-3.4-8.8-5.8-17.8-7.1-27.2-0.6-4.3-0.9-8.7-1.4-13-0.1-1.1 0.1-2 1-2.7 1.4-1.3 3.1-2.8 4.9-4.5z"/>
		<path id="path7" class="s1" d="m181.6 122.9c-3.6 0-7.1 0-10.7 0-1.6 0-3.1-0.8-4.1-2.2-4.7-6.5-9.2-13.1-13.9-19.6-0.8-1.1-0.8-4.1 0.2-5.3 2.5-3.6 5.1-7.2 7.6-10.8 0.5-0.7 1.1-1 1.9-1.3 2.5-0.8 4.3-0.1 6.3 1.5 11.3 8.8 19.9 19.7 26.5 32.3 0.1 0.3 0.3 0.6 0.2 0.9-0.5 1.4-1 2.8-1.7 4.1-0.1 0.3-0.7 0.4-1.1 0.4q-5.8 0-11.2 0z"/>
		<path id="path5" class="s1" d="m126.8 96.5c-5.5 0-11 0-16.4 0-1.8 0-3.3-0.8-4.4-2.3-2.7-3.8-5.4-7.7-8.2-11.5-0.4-0.6-0.6-1.2-0.3-1.9 0.1-0.2 0.2-0.5 0.2-0.8 0.1-2.5 1.7-3.6 3.9-4.4 17.6-7 35.1-6.7 52.4 0.9 0.8 0.3 1.1 0.9 1.4 1.6 1.1 2.6 0.6 4.7-1.2 6.9-2.4 2.9-4.4 6.2-6.6 9.3-1 1.4-2.5 2.2-4.3 2.2q-8.2 0-16.5 0z"/>
		<path id="path6" class="s1" d="m126.8 259c5.4 0 10.9 0 16.3 0 1.8 0 3.3 0.8 4.4 2.2 2.8 3.9 5.5 7.7 8.2 11.7 0.3 0.4 0.4 1.2 0.3 1.7-1 4-1 4.1-4.9 5.6-17.2 6.7-34.1 6.3-51.1-1-1.1-0.5-1.5-1.2-1.9-2.2-0.8-2.3-0.5-4.1 1.1-6.1 2.5-3.1 4.6-6.5 7-9.7 1-1.4 2.5-2.1 4.1-2.2 5.5-0.1 11 0 16.5 0z"/>
		<path id="path8" class="s1" d="m72 122.9c-3.6 0-7.3 0-10.9 0-0.8 0-1.1-0.3-1.5-1-1.5-2.6-1.1-4.8 0.4-7.4 6.9-11.9 15.5-22.4 26.7-30.6 0.8-0.6 1.5-0.7 2.5-0.6 2.3 0.2 3.8 1.1 5.1 3.1 2 3.2 4.3 6.2 6.4 9.2 0.8 1.2 0.9 4.3 0 5.4-4.6 6.5-9.2 13.1-13.9 19.6-1 1.4-2.4 2.1-4 2.1-3.6 0.2-7.2 0.2-10.8 0.2z"/>
		<path id="path9" class="s1" d="m181.6 232.6c3.7 0 7.3 0 10.9 0 0.8 0 1.2 0.2 1.5 1 1.5 3.8 1.6 3.8-0.5 7.4-6.7 11.9-15.3 22.2-26.4 30.4-1 0.7-1.8 0.8-3.1 0.7-2.2-0.2-3.5-1.2-4.6-3-2.1-3.2-4.4-6.3-6.6-9.4-0.8-1.1-0.8-4.1-0.1-5.2 4.7-6.6 9.3-13.2 14-19.8 0.9-1.3 2.3-2 3.9-2 3.7-0.2 7.4-0.1 11-0.1z"/>
		<path id="path10" class="s1" d="m72.1 232.6q5.3 0 10.8 0c1.7 0 3.1 0.8 4.1 2.1 4.6 6.5 9.2 13 13.8 19.6 0.7 1.1 0.8 4.2 0.1 5.2-2.6 3.7-5.2 7.5-7.9 11.1-0.3 0.4-1 0.7-1.5 0.9-2.5 1-4.4 0.2-6.5-1.4-11.2-8.8-19.8-19.7-26.4-32.2-0.2-0.3-0.3-0.8-0.2-1.1 0.4-1.3 0.9-2.6 1.5-3.8 0.1-0.3 0.8-0.5 1.2-0.5 3.6 0 7.3 0.1 11 0.1z"/>
	</g>
	<g id="g18">
		<path id="path11" fill-rule="evenodd" class="s3" d="m129.3 313.5c-2 0-4.2 0-6.2 0-0.4-0.1-0.7-0.2-1-0.2-12.6-0.6-24.4-3.8-35.7-9.1-0.8-0.4-1.3-0.9-1.5-1.8-0.5-2.2-1.1-4.3-1.8-6.5-1.2 0.3-2.2 0.4-3.4 0.6-5.5 1-5.5 1-10.2-2.3-15.7-11.6-27.3-26.4-36.2-43.4-0.2-0.4-0.2-1.3 0-1.9 0.8-2 1.6-3.9 2.5-6-2.2-0.7-4.1-1.4-6.1-1.9-0.8-0.2-1.3-0.7-1.6-1.4-7.1-17.4-10.9-35.3-11.5-53.9 0-0.6 0.4-1.3 0.8-1.9 1.5-1.5 3-3 4.4-4.5-0.1-0.2-0.1-0.3-0.1-0.3-1.3-1.4-2.8-2.9-4.2-4.3-0.4-0.6-0.8-1.3-0.8-1.9 0.7-18.5 4.5-36.5 11.5-53.8 0.3-0.8 0.8-1.2 1.6-1.5 2-0.5 4-1.2 6.1-1.8-0.9-2.2-1.8-4.2-2.6-6.2-0.2-0.6-0.2-1.2 0.1-1.7 1.1-2.2 2.3-4.3 3.5-6.4 9.2-15.6 21.1-29.1 36.4-39.5 0.7-0.5 1.4-0.6 2.3-0.5 2.5 0.5 5 0.9 7.5 1.3 0.7-2.3 1.2-4.5 1.8-6.6 0.3-0.6 0.7-1.3 1.3-1.5 10.1-4.9 20.8-8 32-9 1.7-0.1 3.3-0.3 5-0.4 2.2 0 4.3 0 6.6 0 0.3 0.1 0.7 0.2 1 0.2 12.5 0.5 24.2 3.6 35.4 8.9 1 0.5 1.5 1.1 1.7 2.1 0.5 2.1 1.2 4.2 1.7 6.3 2.5-0.4 5-0.8 7.4-1.2 1.1-0.2 1.8 0 2.7 0.6 17.4 11.9 30.2 27.5 39.7 45.8 0.3 0.5 0.3 1.1 0 1.6-0.7 2.1-1.7 4.1-2.4 6.2 2 0.6 3.9 1.3 5.9 1.8 0.9 0.3 1.4 0.7 1.8 1.7 6.2 15.2 9.8 31 11.1 47.3 0.1 1.8 0.3 3.6 0.4 5.4 0 0.7 0 1.5 0 2.1-1.8 1.8-3.5 3.6-5.3 5.3 1.8 1.8 3.5 3.6 5.3 5.3 0 0.7 0 1.5 0 2.1-0.1 0.3-0.2 0.6-0.2 0.9-0.2 3.4-0.4 6.7-0.8 10.1-1.6 14.5-5.1 28.4-10.5 41.9-0.4 0.7-0.7 1.2-1.6 1.4-2.1 0.5-4.1 1.3-6.1 1.9q0 0.3 0 0.3c0.7 1.9 1.4 3.6 2.2 5.5 0.4 0.9 0.5 1.6-0.1 2.3-1 1.8-1.9 3.6-2.8 5.3-9.3 16-21.3 29.8-36.8 40.4-0.8 0.6-1.5 0.8-2.5 0.6-2.5-0.6-5-0.9-7.4-1.3-0.1 0.3-0.2 0.4-0.2 0.5-0.6 2.1-1.1 4.3-1.8 6.4-0.3 0.5-0.7 1.2-1.2 1.4-10.1 4.9-20.6 8-31.9 9-1.8-0.2-3.5 0.1-5.2 0.2zm35-26.2c2.1 0.4 4.1 0.7 6 1 0.9 0.2 1.6 0 2.4-0.5 16.1-11 27.9-25.4 36.6-42.4 0.3-0.4 0.3-1.2 0-1.8-0.6-1.7-1.4-3.6-2.1-5.5 1.9-0.5 3.7-1.1 5.4-1.7 0.6-0.3 1.2-0.8 1.4-1.3 1-2.5 2-5.1 3-7.8 4.6-13.7 7.1-27.8 7.8-42.2 0-1.1-0.2-2-1.2-2.7-1.1-1-2.3-2-3.6-3 1.6-1.5 2.7-2.7 3.9-3.8 0.5-0.6 0.9-1.2 0.8-2.1-0.4-4.1-0.6-8.1-1.1-12.2-1.4-13.1-4.6-25.8-9.7-38-0.2-0.6-0.9-1.2-1.6-1.5-1.7-0.6-3.5-1.2-5.3-1.7 0.8-1.9 1.6-3.5 2.1-5.3 0.2-0.7 0.2-1.6-0.1-2.1-3.1-5.2-6-10.4-9.4-15.3-7.4-10.6-16.5-19.7-27.3-26.9-0.6-0.4-1.3-0.6-2.2-0.4-2 0.4-4 0.7-5.9 1-0.1-0.2-0.3-0.2-0.3-0.3-0.4-1.7-0.9-3.5-1.4-5.1-0.1-0.4-0.6-1-1.1-1.2-10.9-5.3-22.4-8.2-34.7-8.3-12.7-0.1-24.8 2.8-36.2 8.2-0.4 0.2-0.9 0.9-1 1.3-0.6 1.8-1 3.5-1.6 5.4-1.9-0.3-3.9-0.6-5.7-1-1.1-0.2-1.9 0-2.8 0.7-16.1 10.9-27.8 25.5-36.7 42.3-0.2 0.5-0.2 1 0 1.5 0.7 1.8 1.5 3.6 2.3 5.5-1.9 0.6-3.6 1.2-5.3 1.6-1 0.3-1.4 0.8-1.7 1.6-6.6 16.2-10 33-10.6 50.4 0 0.5 0.3 1.3 0.8 1.8 1 1.2 2.3 2.3 3.5 3.6-1.2 1.2-2.5 2.4-3.5 3.6-0.5 0.6-0.8 1.4-0.8 2 0.2 3.7 0.3 7.3 0.8 11 1.4 13.4 4.6 26.5 9.8 39.1 0.3 1 0.9 1.4 1.9 1.8 1.7 0.4 3.3 1 5.1 1.6-0.8 1.9-1.6 3.7-2.2 5.4-0.2 0.6-0.2 1.4 0.1 1.8 2.1 3.8 4.1 7.5 6.4 11 7.9 12.4 17.9 23.1 30.4 31.4 0.6 0.3 1.4 0.5 2.1 0.4 2-0.2 3.9-0.7 5.9-1 0.1 0.1 0.2 0.2 0.2 0.2 0.4 1.8 0.9 3.6 1.5 5.2 0.1 0.5 0.5 1 1 1.2 11 5.3 22.8 8.2 35.1 8.2q18.9 0 35.7-8.3c0.5-0.2 0.9-0.7 1-1.2 1.1-1.4 1.5-3.3 2.1-5.2z"/>
	</g>
	<g id="g28">
		<path id="path21" fill-rule="evenodd" class="s4" d="m129.5 299.3c-1.8 0-3.7 0-5.5 0-0.3-0.1-0.6-0.2-0.9-0.2-11.1-0.5-21.5-3.4-31.4-8.2-0.7-0.4-1.2-0.8-1.3-1.6-0.5-2-1-3.9-1.6-5.9-1.1 0.2-2 0.3-3 0.5-4.9 0.9-4.9 0.9-9-2.1-13.8-10.5-24.1-23.9-31.9-39.3-0.2-0.4-0.2-1.2 0-1.7 0.7-1.8 1.4-3.6 2.2-5.5-1.9-0.6-3.6-1.2-5.4-1.7-0.7-0.2-1.1-0.6-1.4-1.3-6.2-15.7-9.6-32-10.1-48.8 0-0.6 0.3-1.2 0.7-1.7 1.3-1.4 2.6-2.8 3.9-4.1-0.1-0.2-0.1-0.3-0.1-0.3-1.2-1.3-2.5-2.6-3.7-3.9-0.4-0.5-0.7-1.2-0.7-1.7 0.6-16.8 3.9-33.1 10.1-48.8 0.3-0.7 0.7-1.1 1.4-1.3 1.8-0.5 3.5-1.1 5.4-1.7-0.8-2-1.6-3.8-2.3-5.6-0.2-0.5-0.2-1.1 0.1-1.5 1-2 2-3.9 3.1-5.8 8.1-14.2 18.6-26.4 32-35.8 0.7-0.5 1.3-0.6 2.1-0.5 2.2 0.5 4.4 0.8 6.6 1.2 0.6-2.1 1-4.1 1.6-6 0.2-0.5 0.6-1.2 1.1-1.4 8.9-4.4 18.3-7.2 28.2-8.1 1.5-0.1 2.9-0.3 4.4-0.4 1.9 0 3.8 0 5.8 0 0.3 0.1 0.6 0.2 0.9 0.2 11 0.5 21.3 3.3 31.2 8.1 0.9 0.4 1.3 1 1.5 1.9 0.4 1.9 1 3.8 1.5 5.7 2.2-0.4 4.4-0.7 6.5-1.1 1-0.2 1.6 0 2.4 0.5 15.3 10.8 26.6 25 35 41.6 0.2 0.4 0.2 1 0 1.4-0.7 1.9-1.5 3.7-2.2 5.6 1.8 0.6 3.5 1.2 5.2 1.7 0.8 0.2 1.3 0.6 1.6 1.5 5.5 13.8 8.7 28.1 9.8 42.9 0.1 1.6 0.3 3.2 0.4 4.9 0 0.6 0 1.3 0 1.9-1.6 1.6-3.1 3.2-4.7 4.8 1.6 1.6 3.1 3.2 4.7 4.8 0 0.6 0 1.3 0 1.9-0.1 0.3-0.2 0.5-0.2 0.8-0.2 3.1-0.4 6.1-0.7 9.2-1.4 13.1-4.5 25.7-9.3 37.9-0.3 0.7-0.6 1.1-1.4 1.3-1.8 0.5-3.6 1.2-5.4 1.7q0 0.3 0 0.3c0.7 1.7 1.3 3.3 2 5 0.3 0.8 0.4 1.4-0.1 2.1-0.9 1.6-1.7 3.2-2.5 4.8-8.2 14.5-18.7 27-32.4 36.6-0.7 0.5-1.3 0.7-2.2 0.5-2.2-0.5-4.4-0.8-6.5-1.1-0.1 0.2-0.2 0.3-0.2 0.4-0.5 1.9-1 3.9-1.6 5.8-0.2 0.5-0.6 1.1-1 1.3-8.9 4.4-18.2 7.2-28.1 8.1-1.6-0.1-3.1 0.1-4.6 0.2zm30.8-23.7c1.9 0.3 3.6 0.6 5.3 0.9 0.8 0.2 1.4 0 2.1-0.5 14.2-9.9 24.6-23 32.3-38.4 0.2-0.4 0.2-1.1 0-1.6-0.6-1.6-1.3-3.3-1.9-5 1.7-0.5 3.3-1 4.8-1.6 0.5-0.2 1-0.7 1.2-1.1 0.9-2.3 1.8-4.7 2.6-7.1 4.1-12.4 6.3-25.2 6.9-38.3 0-1-0.2-1.8-1-2.4-1-0.9-2.1-1.8-3.2-2.7 1.4-1.4 2.4-2.5 3.4-3.5 0.5-0.5 0.8-1.1 0.7-1.9-0.3-3.7-0.5-7.3-0.9-11-1.3-11.9-4.1-23.4-8.6-34.5-0.2-0.5-0.8-1.1-1.4-1.3-1.5-0.6-3.1-1.1-4.7-1.6 0.7-1.7 1.4-3.2 1.9-4.8 0.2-0.6 0.2-1.4-0.1-1.9-2.7-4.7-5.3-9.4-8.3-13.9-6.5-9.6-14.5-17.8-24-24.3-0.6-0.4-1.2-0.6-2-0.4-1.7 0.4-3.5 0.6-5.2 0.9-0.1-0.2-0.2-0.2-0.2-0.3-0.4-1.5-0.8-3.1-1.3-4.6-0.1-0.4-0.5-0.9-0.9-1.1-9.6-4.8-19.8-7.4-30.6-7.5-11.2-0.1-21.9 2.5-31.9 7.4-0.4 0.2-0.8 0.8-0.9 1.2-0.5 1.6-0.9 3.2-1.4 4.9-1.7-0.3-3.4-0.5-5-0.9-1-0.2-1.7 0-2.5 0.6-14.2 9.9-24.5 23.1-32.3 38.4-0.2 0.4-0.2 0.9 0 1.3 0.6 1.7 1.3 3.3 2 5-1.7 0.6-3.2 1.1-4.7 1.5-0.8 0.2-1.2 0.7-1.5 1.4-5.8 14.7-8.8 29.9-9.3 45.7 0 0.5 0.3 1.2 0.7 1.6 0.9 1.1 2 2.1 3.1 3.3-1.1 1.1-2.2 2.2-3.1 3.3-0.4 0.5-0.7 1.2-0.7 1.8 0.2 3.3 0.3 6.6 0.7 9.9 1.2 12.2 4.1 24.1 8.6 35.5 0.3 0.9 0.8 1.3 1.7 1.6 1.5 0.4 2.9 0.9 4.5 1.5-0.7 1.7-1.4 3.3-1.9 4.9-0.2 0.5-0.2 1.2 0.1 1.6 1.8 3.4 3.6 6.8 5.6 10 7 11.2 15.8 20.9 26.8 28.4 0.5 0.3 1.2 0.5 1.8 0.4 1.8-0.2 3.5-0.6 5.2-0.9 0.1 0.1 0.2 0.2 0.2 0.2 0.4 1.6 0.8 3.2 1.3 4.7 0.1 0.4 0.5 0.9 0.9 1.1 9.7 4.8 20.1 7.4 30.9 7.4q16.6 0 31.5-7.5c0.4-0.2 0.8-0.7 0.9-1.1 0.9-1.3 1.3-3 1.8-4.7z"/>
		<path id="path19 copy" class="s5" d="m129.8 292c-1.7 0-3.5 0-5.2 0-0.3-0.1-0.6-0.2-0.8-0.2-10.5-0.5-20.2-3.2-29.5-7.7-0.6-0.3-1.1-0.7-1.2-1.5-0.5-1.8-0.9-3.6-1.5-5.5-1 0.2-1.9 0.3-2.8 0.5-4.6 0.8-4.6 0.8-8.5-2-12.9-9.9-22.5-22.4-29.9-36.9-0.1-0.3-0.1-1.1 0-1.5 0.7-1.7 1.4-3.4 2.1-5.2-1.8-0.6-3.4-1.1-5.1-1.6-0.6-0.2-1-0.6-1.3-1.2-5.8-14.7-9-30-9.4-45.8 0-0.5 0.2-1.1 0.6-1.6 1.2-1.3 2.5-2.6 3.7-3.8-0.1-0.2-0.1-0.3-0.1-0.3-1.1-1.2-2.4-2.4-3.5-3.6-0.4-0.5-0.6-1.2-0.6-1.6 0.5-15.8 3.6-31.1 9.4-45.8 0.3-0.6 0.7-1 1.3-1.2 1.7-0.5 3.3-1 5.1-1.6-0.8-1.9-1.5-3.6-2.2-5.2-0.1-0.5-0.1-1.1 0.1-1.4 1-1.9 1.9-3.7 2.9-5.5 7.6-13.3 17.5-24.7 30-33.5 0.7-0.5 1.3-0.6 2-0.5 2.1 0.5 4.1 0.7 6.2 1.1 0.6-2 0.9-3.8 1.5-5.6 0.2-0.5 0.6-1.1 1-1.3 8.4-4.2 17.2-6.8 26.5-7.6 1.4-0.1 2.7-0.3 4.1-0.4 1.8 0 3.6 0 5.4 0 0.3 0.1 0.6 0.2 0.9 0.2 10.3 0.5 19.9 3.1 29.2 7.6 0.9 0.4 1.2 0.9 1.4 1.8 0.4 1.7 1 3.5 1.4 5.3 2.1-0.4 4.2-0.6 6.1-1 1-0.2 1.5 0 2.3 0.4 14.3 10.2 24.9 23.5 32.8 39 0.2 0.4 0.2 1 0 1.4-0.7 1.7-1.4 3.4-2.1 5.2 1.7 0.6 3.3 1.1 4.9 1.6 0.8 0.2 1.2 0.6 1.5 1.4 5.2 12.9 8.2 26.3 9.2 40.2 0.1 1.5 0.3 3 0.4 4.6 0 0.6 0 1.2 0 1.8-1.5 1.5-2.9 3-4.4 4.5 1.5 1.5 2.9 3 4.4 4.5 0 0.6 0 1.2 0 1.8-0.1 0.3-0.2 0.4-0.2 0.7-0.2 2.9-0.4 5.7-0.7 8.7-1.3 12.2-4.2 24-8.7 35.5-0.3 0.6-0.6 1-1.3 1.2-1.7 0.5-3.4 1.1-5.1 1.6q0 0.3 0 0.3c0.7 1.6 1.2 3.1 1.9 4.7 0.3 0.7 0.4 1.3-0.1 1.9-0.8 1.5-1.6 3-2.3 4.5-7.7 13.6-17.6 25.3-30.4 34.3-0.7 0.5-1.2 0.7-2.1 0.5-2-0.5-4.1-0.7-6.1-1-0.1 0.2-0.2 0.3-0.2 0.4-0.4 1.7-0.9 3.6-1.5 5.4-0.1 0.5-0.5 1-0.9 1.2-8.3 4.1-17.1 6.8-26.3 7.6-1.5-0.1-2.9 0.1-4.3 0.2z"/>
		<path id="path47" class="s6" d="m31.4 13.5c8 15.6 16 31.2 24.1 46.9 4-4.2 7.9-8.3 12-12.5 1.1 2.6 2.1 5 3.1 7.5 2.5 6 5 12.1 7.5 18.2l-18.2 17.3q-0.9-1.9-2-3.9c-4 4.5-7.9 8.9-12.1 13.6q-7.3-43.7-14.7-87c0.2 0 0.3 0 0.3-0.1z"/>
		<path id="path48" class="s6" d="m209.8 250.9c4.9 29.1 9.8 58 14.6 86.8-0.1 0-0.2 0.1-0.2 0.1-8-15.5-16-31.1-24.1-46.7-4 4.2-7.9 8.3-12 12.5-3.4-8.3-6.7-16.4-10-24.5l17.5-18.8c0.6 1.4 1.1 2.4 2 4.2 4.2-4.6 8.1-9 12.2-13.6z"/>
	</g>
	<g id="g28 copy 3">
		<path id="path21" fill-rule="evenodd" class="s7" d="m129.7 304c-1.9 0-3.9 0-5.7 0-0.4-0.1-0.7-0.2-1-0.2-11.6-0.5-22.4-3.6-32.8-8.6-0.7-0.4-1.2-0.8-1.3-1.7-0.6-2-1.1-4-1.7-6.1-1.1 0.2-2.1 0.3-3.1 0.5-5.2 0.9-5.2 0.9-9.4-2.2-14.4-11-25.2-24.9-33.3-41-0.3-0.4-0.3-1.3 0-1.8 0.7-1.9 1.4-3.8 2.2-5.7-1.9-0.7-3.7-1.3-5.6-1.8-0.7-0.2-1.1-0.7-1.5-1.4-6.4-16.4-10-33.4-10.5-50.9 0-0.7 0.3-1.3 0.7-1.8 1.4-1.5 2.7-2.9 4.1-4.3-0.1-0.2-0.1-0.3-0.1-0.3-1.3-1.4-2.6-2.7-3.9-4.1-0.4-0.5-0.7-1.2-0.7-1.8 0.6-17.5 4.1-34.5 10.6-50.9 0.3-0.8 0.7-1.2 1.4-1.4 1.9-0.5 3.7-1.1 5.7-1.8-0.9-2.1-1.7-3.9-2.4-5.8-0.3-0.5-0.3-1.2 0.1-1.6 1-2.1 2-4.1 3.2-6 8.5-14.9 19.4-27.6 33.4-37.4 0.7-0.5 1.4-0.7 2.2-0.5 2.3 0.5 4.6 0.8 6.9 1.2 0.6-2.2 1-4.3 1.7-6.3 0.2-0.5 0.6-1.2 1.1-1.4 9.3-4.6 19.1-7.5 29.5-8.5 1.5-0.1 3-0.3 4.6-0.4 2 0 3.9 0 6 0 0.3 0.1 0.7 0.2 1 0.2 11.5 0.5 22.2 3.5 32.5 8.5 1 0.4 1.4 1 1.6 2 0.4 1.9 1.1 3.9 1.6 5.9 2.3-0.4 4.6-0.7 6.8-1.1 1-0.3 1.6 0 2.5 0.5 16 11.3 27.8 26.1 36.5 43.4 0.2 0.4 0.2 1.1 0 1.5-0.7 2-1.5 3.9-2.3 5.8 1.9 0.7 3.7 1.3 5.5 1.8 0.8 0.2 1.3 0.6 1.6 1.6 5.8 14.4 9.1 29.3 10.3 44.8 0.1 1.7 0.3 3.3 0.4 5.1 0 0.6 0 1.4 0 2-1.7 1.7-3.3 3.3-4.9 5 1.6 1.7 3.2 3.3 4.9 5 0 0.6 0 1.4 0 2-0.1 0.3-0.2 0.5-0.2 0.8-0.2 3.3-0.4 6.4-0.8 9.6-1.4 13.7-4.7 26.9-9.7 39.6-0.3 0.7-0.6 1.2-1.4 1.4-1.9 0.5-3.8 1.2-5.7 1.8q0 0.3 0 0.3c0.8 1.7 1.4 3.4 2.1 5.2 0.3 0.8 0.4 1.4-0.1 2.2-0.9 1.7-1.8 3.3-2.6 5-8.6 15.1-19.5 28.2-33.8 38.2-0.8 0.5-1.4 0.7-2.3 0.5-2.3-0.5-4.6-0.8-6.8-1.1-0.1 0.2-0.2 0.3-0.2 0.4-0.5 2-1.1 4.1-1.7 6.1-0.2 0.5-0.6 1.1-1 1.3-9.3 4.6-19.1 7.5-29.4 8.5-1.7-0.1-3.2 0.1-4.8 0.2zm32.2-24.8c2 0.4 3.7 0.7 5.5 1 0.8 0.2 1.5 0 2.2-0.5 14.8-10.4 25.7-24.1 33.7-40.1 0.2-0.5 0.2-1.2 0-1.7-0.6-1.7-1.3-3.5-1.9-5.2 1.7-0.6 3.4-1.1 5-1.7 0.5-0.2 1-0.7 1.2-1.2 1-2.4 1.9-4.9 2.7-7.4 4.3-12.9 6.6-26.3 7.2-40 0-1-0.2-1.9-1-2.5-1.1-0.9-2.2-1.9-3.3-2.8 1.4-1.5 2.5-2.6 3.5-3.7 0.5-0.5 0.8-1.1 0.7-1.9-0.3-3.9-0.5-7.7-0.9-11.5-1.4-12.5-4.3-24.5-9-36.1-0.2-0.5-0.8-1.1-1.5-1.3-1.5-0.6-3.2-1.2-4.9-1.7 0.8-1.8 1.5-3.3 2-5 0.2-0.6 0.2-1.5-0.1-2-2.8-4.9-5.5-9.8-8.6-14.5-6.8-10-15.2-18.6-25.1-25.4-0.6-0.4-1.3-0.6-2.1-0.4-1.8 0.4-3.7 0.6-5.4 0.9-0.1-0.2-0.2-0.2-0.2-0.3-0.5-1.5-0.9-3.2-1.4-4.8-0.1-0.4-0.5-0.9-0.9-1.1-10.1-5-20.7-7.8-32-7.9-11.7-0.1-22.9 2.7-33.3 7.8-0.4 0.2-0.8 0.8-1 1.2-0.5 1.7-0.9 3.4-1.4 5.1-1.8-0.3-3.6-0.5-5.2-0.9-1.1-0.2-1.8 0-2.6 0.6-14.9 10.4-25.6 24.2-33.8 40.1-0.2 0.5-0.2 1 0 1.4 0.6 1.8 1.4 3.4 2.1 5.2-1.8 0.6-3.3 1.2-4.9 1.6-0.8 0.2-1.3 0.7-1.6 1.4-6 15.4-9.2 31.3-9.7 47.8 0 0.5 0.3 1.2 0.8 1.6 0.9 1.2 2 2.2 3.2 3.5-1.2 1.1-2.3 2.3-3.2 3.4-0.5 0.6-0.8 1.3-0.8 1.9 0.2 3.5 0.3 6.9 0.8 10.4 1.2 12.7 4.2 25.1 8.9 37 0.3 1 0.9 1.4 1.8 1.7 1.6 0.4 3 0.9 4.7 1.6-0.7 1.7-1.5 3.4-2 5.1-0.2 0.5-0.2 1.2 0.1 1.7 1.9 3.5 3.8 7.1 5.9 10.4 7.3 11.7 16.5 21.8 28 29.7 0.5 0.3 1.2 0.5 1.8 0.4 1.9-0.2 3.7-0.7 5.5-1 0.1 0.1 0.2 0.2 0.2 0.2 0.4 1.7 0.8 3.4 1.3 5 0.1 0.4 0.6 0.9 1 1.1 10.1 5 21 7.7 32.3 7.7q17.3 0 32.9-7.8c0.4-0.2 0.8-0.7 0.9-1.2 0.9-1.3 1.4-3.1 1.9-4.9z"/>
		<path id="path47" class="s7" d="m31.4 13.5c8 15.6 16 31.2 24.1 46.9 4-4.2 7.9-8.3 12-12.5 1.1 2.6 2.1 5 3.1 7.5 2.5 6 5 12.1 7.5 18.2l-18.2 17.3q-0.9-1.9-2-3.9c-4 4.5-7.9 8.9-12.1 13.6q-7.3-43.7-14.7-87c0.2 0 0.3 0 0.3-0.1z"/>
		<path id="path48" class="s7" d="m209.8 250.9c4.9 29.1 9.8 58 14.6 86.8-0.1 0-0.2 0.1-0.2 0.1-8-15.5-16-31.1-24.1-46.7-4 4.2-7.9 8.3-12 12.5-3.4-8.3-6.7-16.4-10-24.5l17.5-18.8c0.6 1.4 1.1 2.4 2 4.2 4.2-4.6 8.1-9 12.2-13.6z"/>
	</g>
	<g id="g28 copy">
		<path id="path21" fill-rule="evenodd" class="s3" d="m131.5 298.3c-1.8 0-3.7 0-5.5 0-0.3-0.1-0.6-0.2-0.9-0.2-11.1-0.5-21.5-3.4-31.4-8.2-0.7-0.4-1.2-0.8-1.3-1.6-0.5-2-1-3.9-1.6-5.9-1.1 0.2-2 0.3-3 0.5-4.9 0.9-4.9 0.9-9-2.1-13.8-10.5-24.1-23.9-31.9-39.3-0.2-0.4-0.2-1.2 0-1.7 0.7-1.8 1.4-3.6 2.2-5.5-1.9-0.6-3.6-1.2-5.4-1.7-0.7-0.2-1.1-0.6-1.4-1.3-6.2-15.7-9.6-32-10.1-48.8 0-0.6 0.3-1.2 0.7-1.7 1.3-1.4 2.6-2.8 3.9-4.1-0.1-0.2-0.1-0.3-0.1-0.3-1.2-1.3-2.5-2.6-3.7-3.9-0.4-0.5-0.7-1.2-0.7-1.7 0.6-16.8 3.9-33.1 10.1-48.8 0.3-0.7 0.7-1.1 1.4-1.3 1.8-0.5 3.5-1.1 5.4-1.7-0.8-2-1.6-3.8-2.3-5.6-0.2-0.5-0.2-1.1 0.1-1.5 1-2 2-3.9 3.1-5.8 8.1-14.2 18.6-26.4 32-35.8 0.7-0.5 1.3-0.6 2.1-0.5 2.2 0.5 4.4 0.8 6.6 1.2 0.6-2.1 1-4.1 1.6-6 0.2-0.5 0.6-1.2 1.1-1.4 8.9-4.4 18.3-7.2 28.2-8.1 1.5-0.1 2.9-0.3 4.4-0.4 1.9 0 3.8 0 5.8 0 0.3 0.1 0.6 0.2 0.9 0.2 11 0.5 21.3 3.3 31.2 8.1 0.9 0.4 1.3 1 1.5 1.9 0.4 1.9 1 3.8 1.5 5.7 2.2-0.4 4.4-0.7 6.5-1.1 1-0.2 1.6 0 2.4 0.5 15.3 10.8 26.6 25 35 41.6 0.2 0.4 0.2 1 0 1.4-0.7 1.9-1.5 3.7-2.2 5.6 1.8 0.6 3.5 1.2 5.2 1.7 0.8 0.2 1.3 0.6 1.6 1.5 5.5 13.8 8.7 28.1 9.8 42.9 0.1 1.6 0.3 3.2 0.4 4.9 0 0.6 0 1.3 0 1.9-1.6 1.6-3.1 3.2-4.7 4.8 1.6 1.6 3.1 3.2 4.7 4.8 0 0.6 0 1.3 0 1.9-0.1 0.3-0.2 0.5-0.2 0.8-0.2 3.1-0.4 6.1-0.7 9.2-1.4 13.1-4.5 25.7-9.3 37.9-0.3 0.7-0.6 1.1-1.4 1.3-1.8 0.5-3.6 1.2-5.4 1.7q0 0.3 0 0.3c0.7 1.7 1.3 3.3 2 5 0.3 0.8 0.4 1.4-0.1 2.1-0.9 1.6-1.7 3.2-2.5 4.8-8.2 14.5-18.7 27-32.4 36.6-0.7 0.5-1.3 0.7-2.2 0.5-2.2-0.5-4.4-0.8-6.5-1.1-0.1 0.2-0.2 0.3-0.2 0.4-0.5 1.9-1 3.9-1.6 5.8-0.2 0.5-0.6 1.1-1 1.3-8.9 4.4-18.2 7.2-28.1 8.1-1.6-0.1-3.1 0.1-4.6 0.2zm30.8-23.7c1.9 0.3 3.6 0.6 5.3 0.9 0.8 0.2 1.4 0 2.1-0.5 14.2-9.9 24.6-23 32.3-38.4 0.2-0.4 0.2-1.1 0-1.6-0.6-1.6-1.3-3.3-1.9-5 1.7-0.5 3.3-1 4.8-1.6 0.5-0.2 1-0.7 1.2-1.1 0.9-2.3 1.8-4.7 2.6-7.1 4.1-12.4 6.3-25.2 6.9-38.3 0-1-0.2-1.8-1-2.4-1-0.9-2.1-1.8-3.2-2.7 1.4-1.4 2.4-2.5 3.4-3.5 0.5-0.5 0.8-1.1 0.7-1.9-0.3-3.7-0.5-7.3-0.9-11-1.3-11.9-4.1-23.4-8.6-34.5-0.2-0.5-0.8-1.1-1.4-1.3-1.5-0.6-3.1-1.1-4.7-1.6 0.7-1.7 1.4-3.2 1.9-4.8 0.2-0.6 0.2-1.4-0.1-1.9-2.7-4.7-5.3-9.4-8.3-13.9-6.5-9.6-14.5-17.8-24-24.3-0.6-0.4-1.2-0.6-2-0.4-1.7 0.4-3.5 0.6-5.2 0.9-0.1-0.2-0.2-0.2-0.2-0.3-0.4-1.5-0.8-3.1-1.3-4.6-0.1-0.4-0.5-0.9-0.9-1.1-9.6-4.8-19.8-7.4-30.6-7.5-11.2-0.1-21.9 2.5-31.9 7.4-0.4 0.2-0.8 0.8-0.9 1.2-0.5 1.6-0.9 3.2-1.4 4.9-1.7-0.3-3.4-0.5-5-0.9-1-0.2-1.7 0-2.5 0.6-14.2 9.9-24.5 23.1-32.3 38.4-0.2 0.4-0.2 0.9 0 1.3 0.6 1.7 1.3 3.3 2 5-1.7 0.6-3.2 1.1-4.7 1.5-0.8 0.2-1.2 0.7-1.5 1.4-5.8 14.7-8.8 29.9-9.3 45.7 0 0.5 0.3 1.2 0.7 1.6 0.9 1.1 2 2.1 3.1 3.3-1.1 1.1-2.2 2.2-3.1 3.3-0.4 0.5-0.7 1.2-0.7 1.8 0.2 3.3 0.3 6.6 0.7 9.9 1.2 12.2 4.1 24.1 8.6 35.5 0.3 0.9 0.8 1.3 1.7 1.6 1.5 0.4 2.9 0.9 4.5 1.5-0.7 1.7-1.4 3.3-1.9 4.9-0.2 0.5-0.2 1.2 0.1 1.6 1.8 3.4 3.6 6.8 5.6 10 7 11.2 15.8 20.9 26.8 28.4 0.5 0.3 1.2 0.5 1.8 0.4 1.8-0.2 3.5-0.6 5.2-0.9 0.1 0.1 0.2 0.2 0.2 0.2 0.4 1.6 0.8 3.2 1.3 4.7 0.1 0.4 0.5 0.9 0.9 1.1 9.7 4.8 20.1 7.4 30.9 7.4q16.6 0 31.5-7.5c0.4-0.2 0.8-0.7 0.9-1.1 0.9-1.3 1.3-3 1.8-4.7z"/>
		<path id="path47" class="s6" d="m31.4 13.5c8 15.6 16 31.2 24.1 46.9 4-4.2 7.9-8.3 12-12.5 1.1 2.6 2.1 5 3.1 7.5 2.5 6 5 12.1 7.5 18.2l-18.2 17.3q-0.9-1.9-2-3.9c-4 4.5-7.9 8.9-12.1 13.6q-7.3-43.7-14.7-87c0.2 0 0.3 0 0.3-0.1z"/>
		<path id="path48" class="s6" d="m209.8 250.9c4.9 29.1 9.8 58 14.6 86.8-0.1 0-0.2 0.1-0.2 0.1-8-15.5-16-31.1-24.1-46.7-4 4.2-7.9 8.3-12 12.5-3.4-8.3-6.7-16.4-10-24.5l17.5-18.8c0.6 1.4 1.1 2.4 2 4.2 4.2-4.6 8.1-9 12.2-13.6z"/>
	</g>
	<g id="g28 copy 2">
		<path id="path21" fill-rule="evenodd" class="s8" d="m130.4 308.5c-2.1 0-4.2 0-6.3 0-0.3-0.1-0.7-0.2-1-0.2-12.7-0.5-24.6-3.7-35.9-8.9-0.8-0.4-1.3-0.8-1.5-1.7-0.5-2.2-1.1-4.2-1.8-6.4-1.2 0.2-2.3 0.3-3.4 0.6-5.6 0.9-5.6 0.9-10.3-2.3-15.7-11.4-27.5-25.9-36.4-42.6-0.2-0.4-0.2-1.3 0-1.8 0.8-2 1.6-3.9 2.5-6-2.2-0.7-4.1-1.3-6.2-1.9-0.8-0.2-1.2-0.6-1.6-1.4-7-17-10.9-34.6-11.5-52.8 0-0.7 0.3-1.3 0.8-1.9 1.5-1.5 3-3 4.5-4.4-0.2-0.2-0.2-0.4-0.2-0.4-1.3-1.4-2.8-2.8-4.2-4.2-0.4-0.5-0.8-1.3-0.8-1.8 0.7-18.2 4.5-35.9 11.5-52.9 0.4-0.8 0.8-1.2 1.6-1.4 2.1-0.6 4-1.2 6.2-1.9-0.9-2.1-1.8-4.1-2.6-6-0.2-0.6-0.2-1.2 0.1-1.6 1.1-2.2 2.3-4.3 3.5-6.3 9.3-15.4 21.3-28.6 36.6-38.8 0.8-0.6 1.5-0.7 2.4-0.6 2.5 0.6 5 0.9 7.5 1.3 0.7-2.2 1.2-4.4 1.8-6.5 0.3-0.5 0.7-1.3 1.3-1.5 10.2-4.8 20.9-7.8 32.2-8.8 1.7-0.1 3.3-0.3 5-0.4 2.2 0 4.4 0 6.6 0 0.4 0.1 0.7 0.2 1.1 0.2 12.5 0.6 24.3 3.6 35.6 8.8 1 0.4 1.5 1.1 1.7 2.1 0.5 2 1.2 4.1 1.7 6.1 2.5-0.4 5.1-0.7 7.5-1.2 1.1-0.2 1.8 0 2.7 0.6 17.5 11.7 30.4 27.1 40 45.1 0.2 0.4 0.2 1 0 1.5-0.8 2-1.8 4-2.6 6 2.1 0.7 4 1.3 6 1.9 0.9 0.2 1.5 0.6 1.8 1.6 6.3 15 9.9 30.5 11.2 46.5 0.1 1.7 0.3 3.5 0.5 5.3 0 0.7 0 1.4 0 2.1-1.9 1.7-3.6 3.4-5.4 5.2 1.8 1.7 3.5 3.4 5.4 5.2 0 0.6 0 1.4 0 2-0.2 0.4-0.3 0.6-0.3 0.9-0.2 3.4-0.4 6.6-0.8 10-1.6 14.2-5.1 27.8-10.6 41-0.3 0.8-0.7 1.2-1.6 1.4-2 0.6-4.1 1.4-6.2 1.9q0 0.3 0 0.3c0.8 1.9 1.5 3.6 2.3 5.4 0.4 0.9 0.5 1.6-0.1 2.3-1 1.7-1.9 3.5-2.8 5.2-9.4 15.7-21.4 29.3-37 39.7-0.8 0.5-1.5 0.7-2.5 0.5-2.6-0.5-5.1-0.9-7.5-1.2-0.1 0.2-0.2 0.3-0.2 0.5-0.6 2-1.1 4.2-1.8 6.2-0.3 0.6-0.7 1.2-1.2 1.5-10.1 4.7-20.8 7.8-32.1 8.7-1.8-0.1-3.5 0.1-5.2 0.2zm35.2-25.6c2.1 0.3 4.1 0.6 6 0.9 0.9 0.3 1.6 0 2.4-0.5 16.2-10.7 28.1-24.9 36.9-41.6 0.2-0.4 0.2-1.2 0-1.7-0.7-1.8-1.5-3.6-2.2-5.5 2-0.5 3.8-1.1 5.5-1.7 0.6-0.2 1.1-0.8 1.4-1.2 1-2.5 2-5.1 2.9-7.7 4.7-13.4 7.2-27.3 7.9-41.5 0-1.1-0.2-1.9-1.1-2.6-1.2-1-2.4-1.9-3.7-2.9 1.6-1.5 2.8-2.7 3.9-3.8 0.6-0.6 0.9-1.2 0.8-2.1-0.3-4-0.6-7.9-1-11.9-1.5-12.9-4.7-25.3-9.8-37.4-0.3-0.5-1-1.2-1.6-1.4-1.7-0.6-3.6-1.2-5.4-1.7 0.8-1.9 1.6-3.5 2.2-5.2 0.2-0.7 0.2-1.5-0.1-2.1-3.1-5.1-6.1-10.2-9.5-15-7.4-10.4-16.6-19.3-27.4-26.4-0.7-0.4-1.4-0.6-2.3-0.4-2 0.4-4 0.6-6 1-0.1-0.3-0.2-0.3-0.2-0.4-0.4-1.6-0.9-3.3-1.5-4.9-0.1-0.5-0.5-1-1-1.2-11-5.2-22.6-8.1-34.9-8.2-12.8-0.1-25 2.7-36.5 8.1-0.4 0.2-0.9 0.8-1 1.3-0.6 1.7-1 3.4-1.6 5.3-1.9-0.4-3.9-0.6-5.7-1-1.1-0.2-1.9 0-2.9 0.6-16.2 10.8-27.9 25.1-36.8 41.7-0.3 0.4-0.3 0.9 0 1.4 0.6 1.8 1.4 3.5 2.2 5.4-1.9 0.6-3.6 1.2-5.3 1.6-0.9 0.2-1.4 0.8-1.7 1.5-6.7 16-10.1 32.4-10.7 49.5 0 0.6 0.4 1.3 0.8 1.8 1.1 1.2 2.3 2.3 3.6 3.6-1.3 1.1-2.5 2.3-3.6 3.5-0.4 0.6-0.8 1.3-0.8 2 0.3 3.6 0.4 7.1 0.8 10.7 1.4 13.2 4.7 26.1 9.9 38.5 0.3 1 0.9 1.4 1.9 1.7 1.7 0.4 3.3 1 5.1 1.6-0.8 1.9-1.6 3.6-2.1 5.4-0.3 0.5-0.3 1.3 0.1 1.7 2 3.7 4.1 7.4 6.4 10.8 8 12.2 18 22.7 30.6 30.8 0.6 0.3 1.4 0.5 2 0.4 2.1-0.2 4-0.6 6-0.9 0.1 0.1 0.2 0.2 0.2 0.2 0.5 1.7 0.9 3.4 1.5 5.1 0.1 0.4 0.6 0.9 1 1.2 11.1 5.2 23 8 35.3 8q19 0 36-8.2c0.4-0.2 0.9-0.7 1-1.1 1-1.5 1.5-3.3 2.1-5.1z"/>
		<path id="path47" class="s8" d="m33.3 18c7 13.8 14.1 27.5 21.2 41.4 3.6-3.7 7-7.3 10.6-11 1 2.2 1.9 4.4 2.8 6.6 2.2 5.3 4.4 10.7 6.6 16l-16.1 15.3q-0.8-1.7-1.8-3.4c-3.5 3.9-6.9 7.8-10.6 12q-6.5-38.6-13-76.8c0.2 0 0.3 0 0.3-0.1z"/>
		<path id="path48" class="s8" d="m210.1 259c4.3 25.8 8.7 51.4 12.9 76.9 0 0-0.1 0.1-0.1 0.1-7.1-13.8-14.2-27.6-21.4-41.4-3.5 3.7-7 7.4-10.6 11.1-3-7.3-6-14.6-8.9-21.7l15.5-16.6c0.6 1.2 1 2 1.8 3.6 3.7-4 7.2-7.9 10.8-12z"/>
	</g>
	<g id="g28 copy 5">
		<path id="path21" fill-rule="evenodd" class="s6" d="m131.3 304.1c-2 0-4.1 0-6 0-0.4-0.1-0.7-0.2-1-0.2-12.2-0.6-23.7-3.6-34.6-8.6-0.8-0.4-1.3-0.8-1.4-1.7-0.6-2.1-1.1-4-1.8-6.1-1.2 0.2-2.2 0.3-3.3 0.5-5.4 0.9-5.4 0.9-9.9-2.2-15.2-11-26.5-25-35.1-41.1-0.2-0.4-0.2-1.2 0-1.7 0.8-1.9 1.5-3.8 2.4-5.8-2.1-0.6-4-1.2-5.9-1.8-0.8-0.2-1.3-0.6-1.6-1.3-6.8-16.4-10.5-33.5-11.1-51 0-0.6 0.3-1.3 0.8-1.8 1.4-1.4 2.8-2.9 4.3-4.3-0.1-0.2-0.1-0.3-0.1-0.3-1.4-1.3-2.8-2.7-4.1-4-0.5-0.6-0.8-1.3-0.8-1.8 0.7-17.6 4.3-34.6 11.1-51 0.4-0.7 0.8-1.2 1.6-1.4 2-0.5 3.8-1.1 5.9-1.7-0.9-2.1-1.7-4-2.5-5.9-0.2-0.5-0.2-1.1 0.1-1.6 1.1-2 2.2-4 3.4-6 8.9-14.9 20.5-27.6 35.2-37.4 0.8-0.5 1.5-0.6 2.3-0.5 2.5 0.5 4.9 0.8 7.3 1.2 0.7-2.2 1.1-4.3 1.8-6.3 0.2-0.5 0.6-1.2 1.2-1.4 9.8-4.6 20.1-7.5 31-8.5 1.7-0.1 3.2-0.3 4.9-0.4 2.1 0 4.2 0 6.4 0 0.3 0.1 0.6 0.2 0.9 0.2 12.2 0.5 23.5 3.5 34.4 8.5 1 0.4 1.4 1 1.6 2 0.5 1.9 1.1 3.9 1.7 5.9 2.4-0.4 4.8-0.7 7.2-1.1 1.1-0.2 1.7 0 2.6 0.5 16.8 11.3 29.3 26.1 38.5 43.4 0.2 0.5 0.2 1.1 0 1.5-0.7 2-1.6 3.9-2.4 5.9 2 0.6 3.9 1.2 5.7 1.7 0.9 0.2 1.5 0.7 1.8 1.6 6 14.4 9.6 29.4 10.8 44.8 0.1 1.7 0.3 3.4 0.4 5.1 0 0.7 0 1.4 0 2-1.7 1.7-3.4 3.4-5.2 5 1.8 1.7 3.5 3.4 5.2 5.1 0 0.6 0 1.3 0 1.9-0.1 0.4-0.2 0.6-0.2 0.9-0.2 3.2-0.4 6.3-0.8 9.6-1.5 13.7-4.9 26.8-10.2 39.6-0.3 0.7-0.7 1.1-1.6 1.3-1.9 0.6-3.9 1.3-5.9 1.8q0 0.3 0 0.3c0.8 1.8 1.4 3.5 2.2 5.3 0.3 0.8 0.4 1.4-0.1 2.1-1 1.7-1.9 3.4-2.8 5.1-9 15.1-20.5 28.2-35.6 38.2-0.8 0.5-1.5 0.7-2.4 0.5-2.5-0.5-4.9-0.8-7.2-1.1-0.1 0.2-0.2 0.3-0.2 0.4-0.6 2-1.1 4.1-1.8 6-0.2 0.6-0.6 1.2-1.1 1.4-9.8 4.6-20 7.5-30.9 8.5-1.8-0.1-3.4 0.1-5.1 0.2zm33.9-24.8c2.1 0.3 4 0.6 5.9 1 0.8 0.2 1.5 0 2.3-0.6 15.6-10.3 27-24 35.5-40.1 0.2-0.4 0.2-1.1 0-1.7-0.6-1.6-1.4-3.4-2.1-5.2 1.9-0.5 3.7-1 5.3-1.6 0.6-0.3 1.1-0.8 1.3-1.2 1-2.4 2-4.9 2.9-7.4 4.5-13 6.9-26.3 7.6-40 0-1.1-0.2-1.9-1.1-2.5-1.1-1-2.3-1.9-3.5-2.9 1.5-1.4 2.6-2.6 3.7-3.6 0.6-0.5 0.9-1.2 0.8-2-0.3-3.9-0.6-7.6-1-11.5-1.4-12.4-4.5-24.4-9.5-36-0.2-0.6-0.9-1.2-1.5-1.4-1.7-0.6-3.4-1.1-5.2-1.7 0.8-1.7 1.6-3.3 2.1-5 0.2-0.6 0.2-1.4-0.1-2-3-4.9-5.8-9.8-9.1-14.5-7.2-10-16-18.6-26.5-25.4-0.6-0.4-1.3-0.6-2.2-0.4-1.8 0.4-3.8 0.6-5.7 1-0.1-0.3-0.2-0.3-0.2-0.4-0.4-1.5-0.9-3.2-1.4-4.8-0.1-0.4-0.6-0.9-1-1.1-10.6-5-21.8-7.7-33.7-7.9-12.3-0.1-24.1 2.7-35.1 7.8-0.5 0.2-0.9 0.8-1 1.2-0.6 1.7-1 3.4-1.6 5.2-1.8-0.4-3.7-0.6-5.5-1-1.1-0.2-1.8 0-2.7 0.6-15.7 10.4-27 24.2-35.6 40.2-0.2 0.4-0.2 0.9 0 1.3 0.7 1.8 1.5 3.5 2.2 5.2-1.8 0.7-3.5 1.2-5.2 1.6-0.8 0.2-1.3 0.7-1.6 1.5-6.4 15.3-9.7 31.2-10.2 47.7 0 0.5 0.3 1.3 0.7 1.7 1 1.1 2.2 2.2 3.4 3.4-1.2 1.2-2.4 2.3-3.4 3.5-0.4 0.5-0.7 1.2-0.7 1.9 0.2 3.4 0.3 6.9 0.7 10.3 1.3 12.7 4.5 25.2 9.5 37.1 0.3 0.9 0.9 1.3 1.9 1.7 1.6 0.4 3.2 0.9 4.9 1.5-0.7 1.8-1.5 3.5-2.1 5.1-0.2 0.6-0.2 1.3 0.1 1.7 2 3.6 4 7.1 6.2 10.5 7.7 11.7 17.4 21.8 29.5 29.6 0.6 0.3 1.3 0.6 2 0.5 2-0.3 3.8-0.7 5.7-1 0.1 0.1 0.2 0.2 0.2 0.2 0.5 1.7 0.9 3.4 1.5 4.9 0.1 0.4 0.5 1 1 1.2 10.6 5 22.1 7.7 34 7.7q18.3 0 34.6-7.8c0.5-0.2 0.9-0.8 1-1.2 1-1.3 1.5-3.1 2-4.9z"/>
	</g>
	<g id="g28 copy 4">
		<path id="path21" fill-rule="evenodd" class="s4" d="m129.5 299.3c-1.8 0-3.7 0-5.5 0-0.3-0.1-0.6-0.2-0.9-0.2-11.1-0.5-21.5-3.4-31.4-8.2-0.7-0.4-1.2-0.8-1.3-1.6-0.5-2-1-3.9-1.6-5.9-1.1 0.2-2 0.3-3 0.5-4.9 0.9-4.9 0.9-9-2.1-13.8-10.5-24.1-23.9-31.9-39.3-0.2-0.4-0.2-1.2 0-1.7 0.7-1.8 1.4-3.6 2.2-5.5-1.9-0.6-3.6-1.2-5.4-1.7-0.7-0.2-1.1-0.6-1.4-1.3-6.2-15.7-9.6-32-10.1-48.8 0-0.6 0.3-1.2 0.7-1.7 1.3-1.4 2.6-2.8 3.9-4.1-0.1-0.2-0.1-0.3-0.1-0.3-1.2-1.3-2.5-2.6-3.7-3.9-0.4-0.5-0.7-1.2-0.7-1.7 0.6-16.8 3.9-33.1 10.1-48.8 0.3-0.7 0.7-1.1 1.4-1.3 1.8-0.5 3.5-1.1 5.4-1.7-0.8-2-1.6-3.8-2.3-5.6-0.2-0.5-0.2-1.1 0.1-1.5 1-2 2-3.9 3.1-5.8 8.1-14.2 18.6-26.4 32-35.8 0.7-0.5 1.3-0.6 2.1-0.5 2.2 0.5 4.4 0.8 6.6 1.2 0.6-2.1 1-4.1 1.6-6 0.2-0.5 0.6-1.2 1.1-1.4 8.9-4.4 18.3-7.2 28.2-8.1 1.5-0.1 2.9-0.3 4.4-0.4 1.9 0 3.8 0 5.8 0 0.3 0.1 0.6 0.2 0.9 0.2 11 0.5 21.3 3.3 31.2 8.1 0.9 0.4 1.3 1 1.5 1.9 0.4 1.9 1 3.8 1.5 5.7 2.2-0.4 4.4-0.7 6.5-1.1 1-0.2 1.6 0 2.4 0.5 15.3 10.8 26.6 25 35 41.6 0.2 0.4 0.2 1 0 1.4-0.7 1.9-1.5 3.7-2.2 5.6 1.8 0.6 3.5 1.2 5.2 1.7 0.8 0.2 1.3 0.6 1.6 1.5 5.5 13.8 8.7 28.1 9.8 42.9 0.1 1.6 0.3 3.2 0.4 4.9 0 0.6 0 1.3 0 1.9-1.6 1.6-3.1 3.2-4.7 4.8 1.6 1.6 3.1 3.2 4.7 4.8 0 0.6 0 1.3 0 1.9-0.1 0.3-0.2 0.5-0.2 0.8-0.2 3.1-0.4 6.1-0.7 9.2-1.4 13.1-4.5 25.7-9.3 37.9-0.3 0.7-0.6 1.1-1.4 1.3-1.8 0.5-3.6 1.2-5.4 1.7q0 0.3 0 0.3c0.7 1.7 1.3 3.3 2 5 0.3 0.8 0.4 1.4-0.1 2.1-0.9 1.6-1.7 3.2-2.5 4.8-8.2 14.5-18.7 27-32.4 36.6-0.7 0.5-1.3 0.7-2.2 0.5-2.2-0.5-4.4-0.8-6.5-1.1-0.1 0.2-0.2 0.3-0.2 0.4-0.5 1.9-1 3.9-1.6 5.8-0.2 0.5-0.6 1.1-1 1.3-8.9 4.4-18.2 7.2-28.1 8.1-1.6-0.1-3.1 0.1-4.6 0.2zm30.8-23.7c1.9 0.3 3.6 0.6 5.3 0.9 0.8 0.2 1.4 0 2.1-0.5 14.2-9.9 24.6-23 32.3-38.4 0.2-0.4 0.2-1.1 0-1.6-0.6-1.6-1.3-3.3-1.9-5 1.7-0.5 3.3-1 4.8-1.6 0.5-0.2 1-0.7 1.2-1.1 0.9-2.3 1.8-4.7 2.6-7.1 4.1-12.4 6.3-25.2 6.9-38.3 0-1-0.2-1.8-1-2.4-1-0.9-2.1-1.8-3.2-2.7 1.4-1.4 2.4-2.5 3.4-3.5 0.5-0.5 0.8-1.1 0.7-1.9-0.3-3.7-0.5-7.3-0.9-11-1.3-11.9-4.1-23.4-8.6-34.5-0.2-0.5-0.8-1.1-1.4-1.3-1.5-0.6-3.1-1.1-4.7-1.6 0.7-1.7 1.4-3.2 1.9-4.8 0.2-0.6 0.2-1.4-0.1-1.9-2.7-4.7-5.3-9.4-8.3-13.9-6.5-9.6-14.5-17.8-24-24.3-0.6-0.4-1.2-0.6-2-0.4-1.7 0.4-3.5 0.6-5.2 0.9-0.1-0.2-0.2-0.2-0.2-0.3-0.4-1.5-0.8-3.1-1.3-4.6-0.1-0.4-0.5-0.9-0.9-1.1-9.6-4.8-19.8-7.4-30.6-7.5-11.2-0.1-21.9 2.5-31.9 7.4-0.4 0.2-0.8 0.8-0.9 1.2-0.5 1.6-0.9 3.2-1.4 4.9-1.7-0.3-3.4-0.5-5-0.9-1-0.2-1.7 0-2.5 0.6-14.2 9.9-24.5 23.1-32.3 38.4-0.2 0.4-0.2 0.9 0 1.3 0.6 1.7 1.3 3.3 2 5-1.7 0.6-3.2 1.1-4.7 1.5-0.8 0.2-1.2 0.7-1.5 1.4-5.8 14.7-8.8 29.9-9.3 45.7 0 0.5 0.3 1.2 0.7 1.6 0.9 1.1 2 2.1 3.1 3.3-1.1 1.1-2.2 2.2-3.1 3.3-0.4 0.5-0.7 1.2-0.7 1.8 0.2 3.3 0.3 6.6 0.7 9.9 1.2 12.2 4.1 24.1 8.6 35.5 0.3 0.9 0.8 1.3 1.7 1.6 1.5 0.4 2.9 0.9 4.5 1.5-0.7 1.7-1.4 3.3-1.9 4.9-0.2 0.5-0.2 1.2 0.1 1.6 1.8 3.4 3.6 6.8 5.6 10 7 11.2 15.8 20.9 26.8 28.4 0.5 0.3 1.2 0.5 1.8 0.4 1.8-0.2 3.5-0.6 5.2-0.9 0.1 0.1 0.2 0.2 0.2 0.2 0.4 1.6 0.8 3.2 1.3 4.7 0.1 0.4 0.5 0.9 0.9 1.1 9.7 4.8 20.1 7.4 30.9 7.4q16.6 0 31.5-7.5c0.4-0.2 0.8-0.7 0.9-1.1 0.9-1.3 1.3-3 1.8-4.7z"/>
		<path id="path19 copy" class="s9" d="m129.6 291c-1.6 0-3.4 0-5.1 0-0.3-0.1-0.6-0.2-0.8-0.2-10.4-0.5-20.1-3.2-29.3-7.6-0.7-0.4-1.2-0.8-1.3-1.5-0.4-1.9-0.9-3.7-1.5-5.5-1 0.1-1.8 0.2-2.8 0.4-4.5 0.9-4.5 0.9-8.4-1.9-12.8-9.8-22.4-22.3-29.7-36.7-0.2-0.4-0.2-1.1 0-1.6 0.6-1.7 1.3-3.4 2-5.1-1.7-0.6-3.3-1.2-5-1.6-0.7-0.2-1-0.6-1.3-1.2-5.8-14.7-9-29.9-9.5-45.6 0-0.5 0.3-1.1 0.7-1.6 1.2-1.3 2.4-2.6 3.6-3.8-0.1-0.2-0.1-0.3-0.1-0.3-1.1-1.2-2.3-2.4-3.4-3.6-0.4-0.5-0.7-1.1-0.7-1.6 0.6-15.7 3.7-30.9 9.5-45.6 0.3-0.6 0.6-1 1.3-1.2 1.7-0.4 3.2-1 5-1.6-0.7-1.8-1.5-3.5-2.1-5.2-0.2-0.5-0.2-1 0.1-1.4 0.9-1.9 1.8-3.6 2.9-5.4 7.5-13.3 17.3-24.6 29.8-33.4 0.7-0.5 1.2-0.6 2-0.5 2 0.5 4.1 0.8 6.1 1.1 0.6-1.9 1-3.8 1.5-5.6 0.2-0.4 0.6-1.1 1.1-1.3 8.3-4.1 17-6.7 26.3-7.5 1.4-0.1 2.7-0.3 4.1-0.4 1.8 0 3.5 0 5.4 0 0.3 0.1 0.6 0.2 0.8 0.2 10.3 0.5 19.9 3.1 29.2 7.5 0.8 0.4 1.2 1 1.4 1.8 0.3 1.8 0.9 3.6 1.4 5.3 2-0.3 4.1-0.6 6-1 1-0.2 1.5 0 2.3 0.5 14.3 10.1 24.8 23.3 32.6 38.8 0.2 0.4 0.2 0.9 0 1.3-0.6 1.8-1.4 3.5-2 5.2 1.7 0.6 3.3 1.2 4.8 1.6 0.8 0.2 1.3 0.6 1.5 1.4 5.2 12.9 8.2 26.3 9.2 40.1 0.1 1.5 0.3 3 0.4 4.5 0 0.6 0 1.3 0 1.8-1.5 1.5-2.9 3-4.4 4.5 1.5 1.5 2.9 3 4.4 4.5 0 0.5 0 1.2 0 1.8-0.1 0.2-0.2 0.4-0.2 0.7-0.2 2.9-0.4 5.7-0.7 8.6-1.3 12.2-4.2 24-8.7 35.4-0.2 0.6-0.5 1-1.3 1.2-1.6 0.4-3.3 1.1-5 1.6q0 0.2 0 0.2c0.6 1.6 1.2 3.1 1.9 4.7 0.2 0.8 0.3 1.3-0.1 2-0.9 1.5-1.6 3-2.4 4.5-7.6 13.5-17.4 25.2-30.2 34.1-0.7 0.5-1.2 0.7-2.1 0.5-2-0.5-4.1-0.8-6-1-0.1 0.1-0.2 0.2-0.2 0.3-0.5 1.8-0.9 3.7-1.5 5.4-0.2 0.5-0.6 1.1-0.9 1.3-8.4 4.1-17 6.7-26.3 7.5-1.5-0.1-2.9 0.1-4.3 0.2z"/>
		<path id="path47" class="s8" d="m32.4 10.5c8 15.6 16 31.2 24.1 46.9 4-4.2 7.9-8.3 12-12.5 1.1 2.6 2.1 5 3.1 7.5 2.5 6 5 12.1 7.5 18.2l-18.2 17.3q-0.9-1.9-2-3.9c-4 4.5-7.9 8.9-12.1 13.6q-7.3-43.7-14.7-87c0.2 0 0.3 0 0.3-0.1z"/>
		<path id="path48" class="s8" d="m208.8 256.9c4.9 29.1 9.8 58 14.6 86.8-0.1 0-0.2 0.1-0.2 0.1-8-15.5-16-31.1-24.1-46.7-4 4.2-7.9 8.3-12 12.5-3.4-8.3-6.7-16.4-10-24.5l17.5-18.8c0.6 1.4 1.1 2.4 2 4.2 4.2-4.6 8.1-9 12.2-13.6z"/>
	</g>
	<g id="g3">
		<path id="text13" class="s0" d="m115.7 145.4q-5.8 0.2-11.6 0.5h-0.4l0.2 4.6h0.4q5.7-0.3 11.5-0.4 1.9-0.1 3.5 0.8 0 0 0 0c0 0-0.1-0.1 0 0q1.6 0.8 2.5 2.3 0 0 0 0 1 1.5 1 3.2 0 1.7-0.9 3.2v0.1q0 0 0 0 0 0 0 0c0 0 0-0.1 0 0q-0.9 1.5-2.4 2.4-1.6 0.9-3.4 0.9-5.5 0.2-11.1 0.5h-0.4l0.3 4.6h0.3q5.5-0.3 11-0.4 4.7-0.2 8.1-3.4c2.2-2.2 3.3-4.8 3.3-7.9 0-3.1-1.2-5.7-3.5-7.9-2.3-2.1-5.2-3.2-8.4-3.1zm25.8 0.1c-3.3-0.1-6.1 0.9-8.5 3-2.3 2.2-3.5 4.8-3.5 7.9 0 3.1 1.1 5.7 3.3 7.9 2.3 2.2 4.9 3.3 8 3.4q5.5 0.2 11.1 0.5h0.3l0.3-4.6h-0.4q-5.5-0.4-11.1-0.5-1.8-0.1-3.4-1c0 0 0.1 0.1 0 0q-1.5-0.9-2.4-2.4 0 0 0 0-0.9-1.5-0.9-3.3 0.1-1.7 1-3.2 0 0 0 0 0.9-1.5 2.5-2.3h0.1q0 0 0 0 1.6-0.8 3.5-0.8 5.7 0.2 11.5 0.5h0.4l0.2-4.6h-0.4q-5.8-0.3-11.6-0.5zm14 0.6l-0.3 4.7h0.4q4.5 0.3 9 0.7l-1.5 17.5 0.3 0.1q2 0.1 4 0.3l0.4 0.1 1.8-17.5q4.5 0.4 9 1h0.4l0.6-4.6h-0.4q-11.7-1.5-23.3-2.2zm-61.9 0.4q-2.2 0.2-4 1.4-0.8 0.5-1.4 1.2-0.8-0.6-1.7-1-2-0.8-4.2-0.6c-2.2 0.3-4 1.2-5.4 2.9-1.4 1.6-2 3.5-1.7 5.5l1.8 14.6h0.4q2-0.3 3.9-0.5h0.4l-1.7-14.7c-0.1-0.7 0.2-1.4 0.7-2.1q0.8-0.9 2.1-1.1c0.9 0 1.7 0.2 2.3 0.7 0.7 0.5 1 1.1 1.1 1.9l1.4 14.6h0.4q2-0.2 4-0.4h0.4l-1.3-14.7q-0.1-1.1 0.7-2 0.8-1 2.1-1.1c0.9 0 1.7 0.2 2.3 0.7 0.6 0.5 1 1.2 1.1 2l1 14.6h0.3q2-0.1 4-0.2l0.4-0.1-0.9-14.7c-0.1-2-1-3.7-2.6-5.1-1.7-1.4-3.6-2-5.9-1.8zm87.9 2.1l-0.6 4.6 0.4 0.1q11.5 1.5 23 3.8l0.4 0.1 0.9-4.5-0.4-0.1q-11.6-2.4-23.3-3.9zm-109.3 0.1h-0.3q-2.1 0.3-4.2 0.6l-0.4 0.1 1.6 11q0.2 1.7-0.5 3.3 0 0 0 0 0 0 0 0 0 0 0 0-0.6 1.6-2.1 2.7-1.4 1.1-3.2 1.4-1.8 0.3-3.5-0.3 0 0 0 0 0 0 0 0-1.7-0.6-2.9-1.9 0 0 0 0-1.1-1.3-1.4-3l-2.1-10.9h-0.3q-2.1 0.4-4.2 0.8h-0.4l2.2 11c0.6 3.1 2.2 5.4 4.8 7.1q3.9 2.5 8.6 1.8c3.1-0.5 5.5-2 7.5-4.4 1.9-2.5 2.7-5.2 2.3-8.3zm108.1 8.6l-1.8 13.3 0.4 0.1q2 0.2 4 0.5l0.3 0.1 1.3-8.7q6.3 0.9 12.6 2.1h0.3l0.9-4.5-0.4-0.1q-8.6-1.6-17.2-2.7z"/>
		<path id="text1" fill-rule="evenodd" class="s0" d="m91.1 178.2c2.3-0.2 4.3 0.5 6.1 1.9 1.8 1.5 2.8 3.5 2.9 5.9 0.2 2.3-0.5 4.3-2 6.1q-2.1 2.7-5.5 3-2.5 0.2-5 0.5-1.3 0.1-2.2 1.2c-0.5 0.6-0.7 1.5-0.6 2.3l0.4 3.3q7.9-0.9 16-1.5l0.3 5.2q-10.3 0.7-20.5 2l-1.1-8.4c-0.3-2.3 0.3-4.4 1.7-6.2 1.3-1.8 3.2-2.9 5.4-3.1q2.6-0.3 5.2-0.5 1.2-0.1 2.1-1.2c0.6-0.6 0.8-1.5 0.8-2.3-0.1-1-0.5-1.7-1.2-2.3q0 0 0 0 0 0 0 0-1-0.9-2.3-0.7-6.8 0.6-13.6 1.5l-0.6-5.2q6.8-0.9 13.7-1.5zm27.8-0.4q2.3 1 3.9 2.9 2.5 3.1 2.5 7v6.4c0 3.1-1 5.7-3 7.9q-3 3.3-7.3 3.4c-2.9 0.1-5.3-0.8-7.5-2.9-2.2-2.1-3.3-4.6-3.5-7.7l-0.4-6.4c-0.2-3.1 0.7-5.7 2.8-8 2-2.3 4.6-3.5 7.7-3.6q2.5-0.1 4.8 1zm23.5-0.9c2.3 0 4.3 0.9 5.8 2.6 1.7 1.7 2.3 3.8 2.2 6.2-0.1 2.4-1 4.3-2.7 5.9q-2.5 2.3-5.9 2.2-2.5-0.1-5.1-0.2-1.3 0-2.3 0.9c-0.6 0.6-0.9 1.4-0.9 2.3l-0.1 3.3q8.1 0.1 16.1 0.6l-0.2 5.1q-10.4-0.5-20.8-0.6l0.1-8.4c0-2.4 0.7-4.4 2.4-6 1.6-1.6 3.6-2.4 5.8-2.4q2.6 0.1 5.2 0.2 1.3 0 2.3-0.9c0.6-0.6 1-1.4 1-2.3 0.1-0.9-0.2-1.7-0.8-2.3q0 0 0 0 0-0.1 0-0.1-1-0.9-2.3-1-6.8-0.2-13.6-0.2v-5.2q6.9 0 13.8 0.3zm17 0.9l-0.6 8.5q-0.2 1.3 0.7 2.3 0 0 0 0.1 0 0 0 0 0.9 1 2.2 1.1 4.1 0.3 8.3 0.8l1.3-11.6q2.6 0.3 5.1 0.6l-3.6 28.4q-2.4-0.3-4.7-0.6l1.3-11.6q-4.1-0.5-8.2-0.8-3.3-0.3-5.5-2.9 0 0 0-0.1 0 0 0 0c-1.5-1.7-2.1-3.8-2-6.1l0.6-8.4q2.6 0.1 5.1 0.3zm-45.2 4.2c-1.6 0-3 0.7-4.1 1.9-1 1.2-1.5 2.6-1.5 4.3l0.3 6.3q0.1 2.5 1.9 4.2 0 0 0 0 0 0 0 0 1.7 1.6 4 1.6 2.3-0.1 3.9-1.9c1.1-1.2 1.7-2.6 1.6-4.2l-0.1-6.4c0-1.6-0.6-3-1.7-4.1q-0.1 0-0.1-0.1 0 0 0 0c-1.2-1.1-2.6-1.7-4.2-1.6q0 0 0 0z"/>
	</g>
</svg>