<?xml version="1.0" encoding="UTF-8" standalone="no"?>
<!-- Generator: Adobe Illustrator 22.0.1, SVG Export Plug-In . SVG Version: 6.00 Build 0)  -->

<svg
   version="1.1"
   id="Layer_1"
   x="0px"
   y="0px"
   viewBox="140 80 224 344"
   style="enable-background:new 0 0 504 504"
   xml:space="preserve"
   sodipodi:docname="colored.svg"
   inkscape:version="1.3.2 (091e20ef0f, 2023-11-25, custom)"
   inkscape:export-filename="colored.png"
   inkscape:export-xdpi="96"
   inkscape:export-ydpi="96"
   xmlns:inkscape="http://www.inkscape.org/namespaces/inkscape"
   xmlns:sodipodi="http://sodipodi.sourceforge.net/DTD/sodipodi-0.dtd"
   xmlns="http://www.w3.org/2000/svg"
   xmlns:svg="http://www.w3.org/2000/svg"><defs
   id="defs13"><filter
     inkscape:label="Wax Print"
     inkscape:menu="Textures"
     inkscape:menu-tooltip="Wax print on tissue texture"
     height="1.1615126"
     y="-0.080756332"
     width="1.2041861"
     x="-0.10209301"
     style="color-interpolation-filters:sRGB"
     id="filter20"><feGaussianBlur
       result="result1"
       in="SourceGraphic"
       stdDeviation="2"
       id="feGaussianBlur18" /><feTurbulence
       result="result0"
       numOctaves="5"
       baseFrequency="0.05"
       type="fractalNoise"
       id="feTurbulence18" /><feDisplacementMap
       result="result2"
       scale="10"
       yChannelSelector="G"
       xChannelSelector="R"
       in="result1"
       in2="result0"
       id="feDisplacementMap18" /><feColorMatrix
       values="1 0 0 0 0 0 1 0 0 0 0 0 1 0 0 0 0 0 10 0 "
       result="result3"
       id="feColorMatrix18" /><feBlend
       mode="multiply"
       in="result2"
       result="result5"
       in2="result3"
       id="feBlend18" /><feGaussianBlur
       result="result4"
       in="result3"
       stdDeviation="5"
       id="feGaussianBlur19" /><feComposite
       k1="0.5"
       k3="1.5"
       k2="0.15"
       in="result4"
       in2="result5"
       operator="arithmetic"
       result="result6"
       id="feComposite19" /><feComposite
       operator="in"
       in="result6"
       in2="result4"
       id="feComposite20" /></filter><filter
     height="1.0222039"
     width="1.027907"
     y="-0.011101974"
     x="-0.013953488"
     inkscape:menu-tooltip="Van Gogh painting effect for bitmaps"
     inkscape:menu="Distort"
     inkscape:label="Pixel Smear"
     style="color-interpolation-filters:sRGB"
     id="filter45"><feTurbulence
       type="fractalNoise"
       numOctaves="3"
       baseFrequency="0.25 0.4"
       seed="5"
       id="feTurbulence44" /><feColorMatrix
       result="result5"
       values="1 0 0 0 0 0 1 0 0 0 0 0 1 0 0 0 0 0 1 0 "
       id="feColorMatrix44" /><feComposite
       in="SourceGraphic"
       operator="in"
       in2="result5"
       id="feComposite44" /><feMorphology
       operator="dilate"
       radius="1.5"
       result="result3"
       id="feMorphology44" /><feTurbulence
       numOctaves="5"
       baseFrequency="0.03"
       type="fractalNoise"
       seed="7"
       id="feTurbulence45" /><feGaussianBlur
       stdDeviation="0.5"
       result="result91"
       id="feGaussianBlur45" /><feDisplacementMap
       in="result3"
       xChannelSelector="R"
       yChannelSelector="G"
       scale="27"
       result="result4"
       in2="result91"
       id="feDisplacementMap45" /><feComposite
       in="result4"
       k3="0.8"
       k1="1.3"
       result="result2"
       operator="arithmetic"
       in2="result4"
       id="feComposite45" /><feBlend
       in2="result2"
       mode="screen"
       in="result2"
       id="feBlend45" /></filter><filter
     height="1.0349968"
     width="1.0326877"
     y="-0.01749838"
     x="-0.016343826"
     inkscape:menu-tooltip="Van Gogh painting effect for bitmaps"
     inkscape:menu="Distort"
     inkscape:label="Pixel Smear"
     style="color-interpolation-filters:sRGB"
     id="filter47"><feTurbulence
       type="fractalNoise"
       numOctaves="3"
       baseFrequency="0.25 0.4"
       seed="5"
       id="feTurbulence46" /><feColorMatrix
       result="result5"
       values="1 0 0 0 0 0 1 0 0 0 0 0 1 0 0 0 0 0 1 0 "
       id="feColorMatrix46" /><feComposite
       in="SourceGraphic"
       operator="in"
       in2="result5"
       id="feComposite46" /><feMorphology
       operator="dilate"
       radius="1.5"
       result="result3"
       id="feMorphology46" /><feTurbulence
       numOctaves="5"
       baseFrequency="0.03"
       type="fractalNoise"
       seed="7"
       id="feTurbulence47" /><feGaussianBlur
       stdDeviation="0.5"
       result="result91"
       id="feGaussianBlur47" /><feDisplacementMap
       in="result3"
       xChannelSelector="R"
       yChannelSelector="G"
       scale="27"
       result="result4"
       in2="result91"
       id="feDisplacementMap47" /><feComposite
       in="result4"
       k3="0.8"
       k1="1.3"
       result="result2"
       operator="arithmetic"
       in2="result4"
       id="feComposite47" /><feBlend
       in2="result2"
       mode="screen"
       in="result2"
       id="feBlend47" /></filter><filter
     height="1.1365968"
     width="1.1249557"
     y="-0.06829841"
     x="-0.062477864"
     inkscape:menu-tooltip="Van Gogh painting effect for bitmaps"
     inkscape:menu="Distort"
     inkscape:label="Pixel Smear"
     style="color-interpolation-filters:sRGB"
     id="filter49"><feTurbulence
       type="fractalNoise"
       numOctaves="3"
       baseFrequency="0.25 0.4"
       seed="5"
       id="feTurbulence48" /><feColorMatrix
       result="result5"
       values="1 0 0 0 0 0 1 0 0 0 0 0 1 0 0 0 0 0 1 0 "
       id="feColorMatrix48" /><feComposite
       in="SourceGraphic"
       operator="in"
       in2="result5"
       id="feComposite48" /><feMorphology
       operator="dilate"
       radius="1.5"
       result="result3"
       id="feMorphology48" /><feTurbulence
       numOctaves="5"
       baseFrequency="0.03"
       type="fractalNoise"
       seed="7"
       id="feTurbulence49" /><feGaussianBlur
       stdDeviation="0.5"
       result="result91"
       id="feGaussianBlur49" /><feDisplacementMap
       in="result3"
       xChannelSelector="R"
       yChannelSelector="G"
       scale="27"
       result="result4"
       in2="result91"
       id="feDisplacementMap49" /><feComposite
       in="result4"
       k3="0.8"
       k1="1.3"
       result="result2"
       operator="arithmetic"
       in2="result4"
       id="feComposite49" /><feBlend
       in2="result2"
       mode="screen"
       in="result2"
       id="feBlend49" /></filter><filter
     height="1.2082189"
     width="1.092042"
     y="-0.10410944"
     x="-0.046020981"
     inkscape:menu-tooltip="Van Gogh painting effect for bitmaps"
     inkscape:menu="Distort"
     inkscape:label="Pixel Smear"
     style="color-interpolation-filters:sRGB"
     id="filter51"><feTurbulence
       type="fractalNoise"
       numOctaves="3"
       baseFrequency="0.25 0.4"
       seed="5"
       id="feTurbulence50" /><feColorMatrix
       result="result5"
       values="1 0 0 0 0 0 1 0 0 0 0 0 1 0 0 0 0 0 1 0 "
       id="feColorMatrix50" /><feComposite
       in="SourceGraphic"
       operator="in"
       in2="result5"
       id="feComposite50" /><feMorphology
       operator="dilate"
       radius="1.5"
       result="result3"
       id="feMorphology50" /><feTurbulence
       numOctaves="5"
       baseFrequency="0.03"
       type="fractalNoise"
       seed="7"
       id="feTurbulence51" /><feGaussianBlur
       stdDeviation="0.5"
       result="result91"
       id="feGaussianBlur51" /><feDisplacementMap
       in="result3"
       xChannelSelector="R"
       yChannelSelector="G"
       scale="27"
       result="result4"
       in2="result91"
       id="feDisplacementMap51" /><feComposite
       in="result4"
       k3="0.8"
       k1="1.3"
       result="result2"
       operator="arithmetic"
       in2="result4"
       id="feComposite51" /><feBlend
       in2="result2"
       mode="screen"
       in="result2"
       id="feBlend51" /></filter><filter
     height="1.2076319"
     width="1.0923634"
     y="-0.10381594"
     x="-0.046181718"
     inkscape:menu-tooltip="Van Gogh painting effect for bitmaps"
     inkscape:menu="Distort"
     inkscape:label="Pixel Smear"
     style="color-interpolation-filters:sRGB"
     id="filter53"><feTurbulence
       type="fractalNoise"
       numOctaves="3"
       baseFrequency="0.25 0.4"
       seed="5"
       id="feTurbulence52" /><feColorMatrix
       result="result5"
       values="1 0 0 0 0 0 1 0 0 0 0 0 1 0 0 0 0 0 1 0 "
       id="feColorMatrix52" /><feComposite
       in="SourceGraphic"
       operator="in"
       in2="result5"
       id="feComposite52" /><feMorphology
       operator="dilate"
       radius="1.5"
       result="result3"
       id="feMorphology52" /><feTurbulence
       numOctaves="5"
       baseFrequency="0.03"
       type="fractalNoise"
       seed="7"
       id="feTurbulence53" /><feGaussianBlur
       stdDeviation="0.5"
       result="result91"
       id="feGaussianBlur53" /><feDisplacementMap
       in="result3"
       xChannelSelector="R"
       yChannelSelector="G"
       scale="27"
       result="result4"
       in2="result91"
       id="feDisplacementMap53" /><feComposite
       in="result4"
       k3="0.8"
       k1="1.3"
       result="result2"
       operator="arithmetic"
       in2="result4"
       id="feComposite53" /><feBlend
       in2="result2"
       mode="screen"
       in="result2"
       id="feBlend53" /></filter><filter
     height="1.1362474"
     width="1.1265146"
     y="-0.068123701"
     x="-0.063257302"
     inkscape:menu-tooltip="Van Gogh painting effect for bitmaps"
     inkscape:menu="Distort"
     inkscape:label="Pixel Smear"
     style="color-interpolation-filters:sRGB"
     id="filter55"><feTurbulence
       type="fractalNoise"
       numOctaves="3"
       baseFrequency="0.25 0.4"
       seed="5"
       id="feTurbulence54" /><feColorMatrix
       result="result5"
       values="1 0 0 0 0 0 1 0 0 0 0 0 1 0 0 0 0 0 1 0 "
       id="feColorMatrix54" /><feComposite
       in="SourceGraphic"
       operator="in"
       in2="result5"
       id="feComposite54" /><feMorphology
       operator="dilate"
       radius="1.5"
       result="result3"
       id="feMorphology54" /><feTurbulence
       numOctaves="5"
       baseFrequency="0.03"
       type="fractalNoise"
       seed="7"
       id="feTurbulence55" /><feGaussianBlur
       stdDeviation="0.5"
       result="result91"
       id="feGaussianBlur55" /><feDisplacementMap
       in="result3"
       xChannelSelector="R"
       yChannelSelector="G"
       scale="27"
       result="result4"
       in2="result91"
       id="feDisplacementMap55" /><feComposite
       in="result4"
       k3="0.8"
       k1="1.3"
       result="result2"
       operator="arithmetic"
       in2="result4"
       id="feComposite55" /><feBlend
       in2="result2"
       mode="screen"
       in="result2"
       id="feBlend55" /></filter><filter
     height="1.136509"
     width="1.1258234"
     y="-0.06825448"
     x="-0.062911679"
     inkscape:menu-tooltip="Van Gogh painting effect for bitmaps"
     inkscape:menu="Distort"
     inkscape:label="Pixel Smear"
     style="color-interpolation-filters:sRGB"
     id="filter57"><feTurbulence
       type="fractalNoise"
       numOctaves="3"
       baseFrequency="0.25 0.4"
       seed="5"
       id="feTurbulence56" /><feColorMatrix
       result="result5"
       values="1 0 0 0 0 0 1 0 0 0 0 0 1 0 0 0 0 0 1 0 "
       id="feColorMatrix56" /><feComposite
       in="SourceGraphic"
       operator="in"
       in2="result5"
       id="feComposite56" /><feMorphology
       operator="dilate"
       radius="1.5"
       result="result3"
       id="feMorphology56" /><feTurbulence
       numOctaves="5"
       baseFrequency="0.03"
       type="fractalNoise"
       seed="7"
       id="feTurbulence57" /><feGaussianBlur
       stdDeviation="0.5"
       result="result91"
       id="feGaussianBlur57" /><feDisplacementMap
       in="result3"
       xChannelSelector="R"
       yChannelSelector="G"
       scale="27"
       result="result4"
       in2="result91"
       id="feDisplacementMap57" /><feComposite
       in="result4"
       k3="0.8"
       k1="1.3"
       result="result2"
       operator="arithmetic"
       in2="result4"
       id="feComposite57" /><feBlend
       in2="result2"
       mode="screen"
       in="result2"
       id="feBlend57" /></filter><filter
     height="1.1369132"
     width="1.1255321"
     y="-0.068456595"
     x="-0.062766029"
     inkscape:menu-tooltip="Van Gogh painting effect for bitmaps"
     inkscape:menu="Distort"
     inkscape:label="Pixel Smear"
     style="color-interpolation-filters:sRGB"
     id="filter59"><feTurbulence
       type="fractalNoise"
       numOctaves="3"
       baseFrequency="0.25 0.4"
       seed="5"
       id="feTurbulence58" /><feColorMatrix
       result="result5"
       values="1 0 0 0 0 0 1 0 0 0 0 0 1 0 0 0 0 0 1 0 "
       id="feColorMatrix58" /><feComposite
       in="SourceGraphic"
       operator="in"
       in2="result5"
       id="feComposite58" /><feMorphology
       operator="dilate"
       radius="1.5"
       result="result3"
       id="feMorphology58" /><feTurbulence
       numOctaves="5"
       baseFrequency="0.03"
       type="fractalNoise"
       seed="7"
       id="feTurbulence59" /><feGaussianBlur
       stdDeviation="0.5"
       result="result91"
       id="feGaussianBlur59" /><feDisplacementMap
       in="result3"
       xChannelSelector="R"
       yChannelSelector="G"
       scale="27"
       result="result4"
       in2="result91"
       id="feDisplacementMap59" /><feComposite
       in="result4"
       k3="0.8"
       k1="1.3"
       result="result2"
       operator="arithmetic"
       in2="result4"
       id="feComposite59" /><feBlend
       in2="result2"
       mode="screen"
       in="result2"
       id="feBlend59" /></filter></defs><sodipodi:namedview
   id="namedview13"
   pagecolor="#dc9848"
   bordercolor="#000000"
   borderopacity="0.25"
   inkscape:showpageshadow="2"
   inkscape:pageopacity="0.0"
   inkscape:pagecheckerboard="0"
   inkscape:deskcolor="#d1d1d1"
   inkscape:zoom="2.6263965"
   inkscape:cx="243.67988"
   inkscape:cy="234.73226"
   inkscape:window-width="2538"
   inkscape:window-height="1367"
   inkscape:window-x="0"
   inkscape:window-y="0"
   inkscape:window-maximized="1"
   inkscape:current-layer="Layer_1"
   inkscape:export-bgcolor="#dc9848ff" />
<style
   type="text/css"
   id="style1">
	.st0{display:none;}
	.st1{display:inline;fill:#929292;}
	.st2{fill:#231F20;}
	.st3{display:inline;}
	.st4{font-family:'Arial-BoldMT';}
	.st5{font-size:60.1691px;}
	.st6{font-size:48px;}
	.st7{font-size:58.8079px;}
	.st8{display:inline;fill:none;}
</style>




<g
   id="g2"
   inkscape:label="bolt"
   transform="translate(-0.05)">
		<path
   class="st2"
   d="m 155.7,90.1 c 8,15.6 16,31.2 24.1,46.9 4,-4.2 7.9,-8.3 12,-12.5 1.1,2.6 2.1,5 3.1,7.5 2.50548,6.03171 5.01096,12.14954 7.51644,18.19366 l -18.18159,17.36263 c -0.65724,-1.28414 -1.32873,-2.6029 -2.03485,-3.95629 -4,4.5 -7.9,8.9 -12.1,13.6 -4.9,-29.1 -9.8,-58.1 -14.7,-87 0.2,0 0.3,0 0.3,-0.1 z"
   id="path2"
   inkscape:label="bolt_l"
   sodipodi:nodetypes="cccccccccc"
   style="fill:#f5d793" />
	<path
   class="st2"
   d="m 334.1,327.5 c 4.9,29.1 9.8,58 14.6,86.8 -0.1,0 -0.2,0.1 -0.2,0.1 -8,-15.5 -16,-31.1 -24.1,-46.7 -4,4.2 -7.9,8.3 -12,12.5 -3.41965,-8.27078 -6.71281,-16.41506 -10.03036,-24.43286 l 17.48482,-18.82885 c 0.68142,1.40879 1.09083,2.33185 2.04554,4.16171 4.2,-4.6 8.1,-9 12.2,-13.6 z"
   id="path1"
   inkscape:label="bolt_r"
   sodipodi:nodetypes="ccccccccc"
   style="fill:#f5d793" /></g><g
   id="shell_x5F_black_copy_xA0_Image_1_"
   inkscape:label="shell"
   transform="translate(-0.35)">
		
	<path
   d="m 254.9,374.4 c -1.8,0 -3.7,0 -5.5,0 -0.3,-0.1 -0.6,-0.2 -0.9,-0.2 -11.1,-0.5 -21.5,-3.4 -31.4,-8.2 -0.7,-0.4 -1.2,-0.8 -1.3,-1.6 -0.5,-2 -1,-3.9 -1.6,-5.9 -1.1,0.2 -2,0.3 -3,0.5 -4.9,0.9 -4.9,0.9 -9,-2.1 -13.8,-10.5 -24.1,-23.9 -31.9,-39.3 -0.2,-0.4 -0.2,-1.2 0,-1.7 0.7,-1.8 1.4,-3.6 2.2,-5.5 -1.9,-0.6 -3.6,-1.2 -5.4,-1.7 -0.7,-0.2 -1.1,-0.6 -1.4,-1.3 -6.2,-15.7 -9.6,-32 -10.1,-48.8 0,-0.6 0.3,-1.2 0.7,-1.7 1.3,-1.4 2.6,-2.8 3.9,-4.1 -0.1,-0.2 -0.1,-0.3 -0.1,-0.3 -1.2,-1.3 -2.5,-2.6 -3.7,-3.9 -0.4,-0.5 -0.7,-1.2 -0.7,-1.7 0.6,-16.8 3.9,-33.1 10.1,-48.8 0.3,-0.7 0.7,-1.1 1.4,-1.3 1.8,-0.5 3.5,-1.1 5.4,-1.7 -0.8,-2 -1.6,-3.8 -2.3,-5.6 -0.2,-0.5 -0.2,-1.1 0.1,-1.5 1,-2 2,-3.9 3.1,-5.8 8.1,-14.2 18.6,-26.4 32,-35.8 0.7,-0.5 1.3,-0.6 2.1,-0.5 2.2,0.5 4.4,0.8 6.6,1.2 0.6,-2.1 1,-4.1 1.6,-6 0.2,-0.5 0.6,-1.2 1.1,-1.4 8.9,-4.4 18.3,-7.2 28.2,-8.1 1.5,-0.1 2.9,-0.3 4.4,-0.4 1.9,0 3.8,0 5.8,0 0.3,0.1 0.6,0.2 0.9,0.2 11,0.5 21.3,3.3 31.2,8.1 0.9,0.4 1.3,1 1.5,1.9 0.4,1.9 1,3.8 1.5,5.7 2.2,-0.4 4.4,-0.7 6.5,-1.1 1,-0.2 1.6,0 2.4,0.5 15.3,10.8 26.6,25 35,41.6 0.2,0.4 0.2,1 0,1.4 -0.7,1.9 -1.5,3.7 -2.2,5.6 1.8,0.6 3.5,1.2 5.2,1.7 0.8,0.2 1.3,0.6 1.6,1.5 5.5,13.8 8.7,28.1 9.8,42.9 0.1,1.6 0.3,3.2 0.4,4.9 0,0.6 0,1.3 0,1.9 -1.6,1.6 -3.1,3.2 -4.7,4.8 1.6,1.6 3.1,3.2 4.7,4.8 0,0.6 0,1.3 0,1.9 -0.1,0.3 -0.2,0.5 -0.2,0.8 -0.2,3.1 -0.4,6.1 -0.7,9.2 -1.4,13.1 -4.5,25.7 -9.3,37.9 -0.3,0.7 -0.6,1.1 -1.4,1.3 -1.8,0.5 -3.6,1.2 -5.4,1.7 0,0.2 0,0.3 0,0.3 0.7,1.7 1.3,3.3 2,5 0.3,0.8 0.4,1.4 -0.1,2.1 -0.9,1.6 -1.7,3.2 -2.5,4.8 -8.2,14.5 -18.7,27 -32.4,36.6 -0.7,0.5 -1.3,0.7 -2.2,0.5 -2.2,-0.5 -4.4,-0.8 -6.5,-1.1 -0.1,0.2 -0.2,0.3 -0.2,0.4 -0.5,1.9 -1,3.9 -1.6,5.8 -0.2,0.5 -0.6,1.1 -1,1.3 -8.9,4.4 -18.2,7.2 -28.1,8.1 -1.6,-0.1 -3.1,0.1 -4.6,0.2 z"
   id="path19"
   inkscape:label="path19"
   style="fill:#331624" /><path
   class="st2"
   d="m 254.9,374.4 c -1.8,0 -3.7,0 -5.5,0 -0.3,-0.1 -0.6,-0.2 -0.9,-0.2 -11.1,-0.5 -21.5,-3.4 -31.4,-8.2 -0.7,-0.4 -1.2,-0.8 -1.3,-1.6 -0.5,-2 -1,-3.9 -1.6,-5.9 -1.1,0.2 -2,0.3 -3,0.5 -4.9,0.9 -4.9,0.9 -9,-2.1 -13.8,-10.5 -24.1,-23.9 -31.9,-39.3 -0.2,-0.4 -0.2,-1.2 0,-1.7 0.7,-1.8 1.4,-3.6 2.2,-5.5 -1.9,-0.6 -3.6,-1.2 -5.4,-1.7 -0.7,-0.2 -1.1,-0.6 -1.4,-1.3 -6.2,-15.7 -9.6,-32 -10.1,-48.8 0,-0.6 0.3,-1.2 0.7,-1.7 1.3,-1.4 2.6,-2.8 3.9,-4.1 -0.1,-0.2 -0.1,-0.3 -0.1,-0.3 -1.2,-1.3 -2.5,-2.6 -3.7,-3.9 -0.4,-0.5 -0.7,-1.2 -0.7,-1.7 0.6,-16.8 3.9,-33.1 10.1,-48.8 0.3,-0.7 0.7,-1.1 1.4,-1.3 1.8,-0.5 3.5,-1.1 5.4,-1.7 -0.8,-2 -1.6,-3.8 -2.3,-5.6 -0.2,-0.5 -0.2,-1.1 0.1,-1.5 1,-2 2,-3.9 3.1,-5.8 8.1,-14.2 18.6,-26.4 32,-35.8 0.7,-0.5 1.3,-0.6 2.1,-0.5 2.2,0.5 4.4,0.8 6.6,1.2 0.6,-2.1 1,-4.1 1.6,-6 0.2,-0.5 0.6,-1.2 1.1,-1.4 8.9,-4.4 18.3,-7.2 28.2,-8.1 1.5,-0.1 2.9,-0.3 4.4,-0.4 1.9,0 3.8,0 5.8,0 0.3,0.1 0.6,0.2 0.9,0.2 11,0.5 21.3,3.3 31.2,8.1 0.9,0.4 1.3,1 1.5,1.9 0.4,1.9 1,3.8 1.5,5.7 2.2,-0.4 4.4,-0.7 6.5,-1.1 1,-0.2 1.6,0 2.4,0.5 15.3,10.8 26.6,25 35,41.6 0.2,0.4 0.2,1 0,1.4 -0.7,1.9 -1.5,3.7 -2.2,5.6 1.8,0.6 3.5,1.2 5.2,1.7 0.8,0.2 1.3,0.6 1.6,1.5 5.5,13.8 8.7,28.1 9.8,42.9 0.1,1.6 0.3,3.2 0.4,4.9 0,0.6 0,1.3 0,1.9 -1.6,1.6 -3.1,3.2 -4.7,4.8 1.6,1.6 3.1,3.2 4.7,4.8 0,0.6 0,1.3 0,1.9 -0.1,0.3 -0.2,0.5 -0.2,0.8 -0.2,3.1 -0.4,6.1 -0.7,9.2 -1.4,13.1 -4.5,25.7 -9.3,37.9 -0.3,0.7 -0.6,1.1 -1.4,1.3 -1.8,0.5 -3.6,1.2 -5.4,1.7 0,0.2 0,0.3 0,0.3 0.7,1.7 1.3,3.3 2,5 0.3,0.8 0.4,1.4 -0.1,2.1 -0.9,1.6 -1.7,3.2 -2.5,4.8 -8.2,14.5 -18.7,27 -32.4,36.6 -0.7,0.5 -1.3,0.7 -2.2,0.5 -2.2,-0.5 -4.4,-0.8 -6.5,-1.1 -0.1,0.2 -0.2,0.3 -0.2,0.4 -0.5,1.9 -1,3.9 -1.6,5.8 -0.2,0.5 -0.6,1.1 -1,1.3 -8.9,4.4 -18.2,7.2 -28.1,8.1 -1.6,-0.1 -3.1,0.1 -4.6,0.2 z m 30.8,-23.7 c 1.9,0.3 3.6,0.6 5.3,0.9 0.8,0.2 1.4,0 2.1,-0.5 14.2,-9.9 24.6,-23 32.3,-38.4 0.2,-0.4 0.2,-1.1 0,-1.6 -0.6,-1.6 -1.3,-3.3 -1.9,-5 1.7,-0.5 3.3,-1 4.8,-1.6 0.5,-0.2 1,-0.7 1.2,-1.1 0.9,-2.3 1.8,-4.7 2.6,-7.1 4.1,-12.4 6.3,-25.2 6.9,-38.3 0,-1 -0.2,-1.8 -1,-2.4 -1,-0.9 -2.1,-1.8 -3.2,-2.7 1.4,-1.4 2.4,-2.5 3.4,-3.5 0.5,-0.5 0.8,-1.1 0.7,-1.9 -0.3,-3.7 -0.5,-7.3 -0.9,-11 -1.3,-11.9 -4.1,-23.4 -8.6,-34.5 -0.2,-0.5 -0.8,-1.1 -1.4,-1.3 -1.5,-0.6 -3.1,-1.1 -4.7,-1.6 0.7,-1.7 1.4,-3.2 1.9,-4.8 0.2,-0.6 0.2,-1.4 -0.1,-1.9 -2.7,-4.7 -5.3,-9.4 -8.3,-13.9 -6.5,-9.6 -14.5,-17.8 -24,-24.3 -0.6,-0.4 -1.2,-0.6 -2,-0.4 -1.7,0.4 -3.5,0.6 -5.2,0.9 -0.1,-0.2 -0.2,-0.2 -0.2,-0.3 -0.4,-1.5 -0.8,-3.1 -1.3,-4.6 -0.1,-0.4 -0.5,-0.9 -0.9,-1.1 -9.6,-4.8 -19.8,-7.4 -30.6,-7.5 -11.2,-0.1 -21.9,2.5 -31.9,7.4 -0.4,0.2 -0.8,0.8 -0.9,1.2 -0.5,1.6 -0.9,3.2 -1.4,4.9 -1.7,-0.3 -3.4,-0.5 -5,-0.9 -1,-0.2 -1.7,0 -2.5,0.6 -14.2,9.9 -24.5,23.1 -32.3,38.4 -0.2,0.4 -0.2,0.9 0,1.3 0.6,1.7 1.3,3.3 2,5 -1.7,0.6 -3.2,1.1 -4.7,1.5 -0.8,0.2 -1.2,0.7 -1.5,1.4 -5.8,14.7 -8.8,29.9 -9.3,45.7 0,0.5 0.3,1.2 0.7,1.6 0.9,1.1 2,2.1 3.1,3.3 -1.1,1.1 -2.2,2.2 -3.1,3.3 -0.4,0.5 -0.7,1.2 -0.7,1.8 0.2,3.3 0.3,6.6 0.7,9.9 1.2,12.2 4.1,24.1 8.6,35.5 0.3,0.9 0.8,1.3 1.7,1.6 1.5,0.4 2.9,0.9 4.5,1.5 -0.7,1.7 -1.4,3.3 -1.9,4.9 -0.2,0.5 -0.2,1.2 0.1,1.6 1.8,3.4 3.6,6.8 5.6,10 7,11.2 15.8,20.9 26.8,28.4 0.5,0.3 1.2,0.5 1.8,0.4 1.8,-0.2 3.5,-0.6 5.2,-0.9 0.1,0.1 0.2,0.2 0.2,0.2 0.4,1.6 0.8,3.2 1.3,4.7 0.1,0.4 0.5,0.9 0.9,1.1 9.7,4.8 20.1,7.4 30.9,7.4 11.1,0 21.6,-2.5 31.5,-7.5 0.4,-0.2 0.8,-0.7 0.9,-1.1 0.9,-1.3 1.3,-3 1.8,-4.7 z"
   id="path3"
   style="fill:#f5ead4" /><path
   class="st2"
   d="m 175.8,253 c -2.1,-2.2 -3.8,-4 -5.5,-5.8 -0.3,-0.4 -0.6,-1 -0.6,-1.5 0.7,-14.1 3.4,-27.7 8.5,-40.9 0.2,-0.5 0.7,-0.9 1.2,-1.1 4.2,-2.1 8.8,-1.9 13.4,-1.9 h 20.3 c 0.9,0 1.4,-0.2 2,-1 5.4,-7.7 10.8,-15.3 16.3,-23 1.1,-1.6 2.7,-2.4 4.6,-2.4 h 32.6 c 1.8,0 3.3,0.8 4.4,2.3 4.6,6.5 9.2,13 13.8,19.6 l 2.4,3.6 c 0.5,0.8 1,0.9 1.9,0.9 h 26.3 c 3,0 5.5,1.3 8.2,2.1 0.3,0.1 0.5,0.6 0.7,0.9 3.7,9.6 6.2,19.6 7.5,29.8 0.5,3.7 0.7,7.5 1,11.2 0,0.5 -0.3,1.2 -0.6,1.5 -1.7,1.8 -3.4,3.5 -5.2,5.3 1.7,1.8 3.3,3.6 5,5.2 0.7,0.7 0.9,1.4 0.9,2.3 -0.7,12.1 -2.8,23.9 -6.6,35.3 l -1.8,5.1 c -0.2,0.5 -0.7,0.9 -1.2,1.1 -3.5,1.5 -7.2,2 -11.1,1.9 -7.6,-0.2 -15.3,0 -22.9,-0.1 -0.9,0 -1.4,0.2 -1.9,0.9 -5.4,7.7 -10.8,15.5 -16.2,23.2 -1,1.4 -2.5,2.2 -4.2,2.2 h -33.1 c -1.7,0 -3.2,-0.8 -4.2,-2.2 -4.6,-6.5 -9.2,-13 -13.7,-19.5 -0.9,-1.2 -1.7,-2.5 -2.5,-3.8 -0.4,-0.6 -0.9,-0.8 -1.6,-0.8 h -13.8 c -4.8,0 -9.6,0.1 -14.4,-0.2 -2.2,-0.2 -4.4,-1.2 -6.6,-1.9 -0.3,-0.1 -0.4,-0.5 -0.6,-0.9 -3.4,-8.8 -5.8,-17.8 -7.1,-27.2 -0.6,-4.3 -0.9,-8.7 -1.4,-13 -0.1,-1.1 0.1,-2 1,-2.7 1.4,-1.3 3.1,-2.8 4.8,-4.5 z"
   id="path4"
   inkscape:label="path4"
   sodipodi:nodetypes="cccccssccsscccsscccccccccccccccsscccssccccccc"
   style="fill:#6c3b2f" /><path
   class="st2"
   d="m 307,197.9 c -3.6,0 -7.1,0 -10.7,0 -1.7,0 -3.2,-0.8 -4.2,-2.2 -4.6,-6.5 -9.2,-13.1 -13.8,-19.6 -0.8,-1.1 -0.8,-4.1 0.1,-5.3 2.5,-3.6 5.1,-7.2 7.6,-10.8 0.5,-0.7 1.1,-1 1.9,-1.3 2.5,-0.8 4.3,-0.1 6.3,1.5 11.3,8.8 19.9,19.7 26.5,32.3 0.1,0.3 0.3,0.6 0.2,0.9 -0.5,1.4 -1,2.8 -1.7,4.1 -0.1,0.3 -0.7,0.4 -1.1,0.4 -3.8,0 -7.5,0 -11.1,0 z"
   id="path7"
   style="fill:#6c3b2f" /><path
   class="st2"
   d="m 252.2,171.5 c -5.5,0 -11,0 -16.4,0 -1.8,0 -3.3,-0.8 -4.4,-2.3 -2.7,-3.8 -5.4,-7.7 -8.2,-11.5 -0.4,-0.6 -0.7,-1.2 -0.3,-1.9 0.1,-0.2 0.2,-0.5 0.2,-0.8 0.1,-2.5 1.7,-3.6 3.9,-4.4 17.6,-7 35.1,-6.7 52.4,0.9 0.8,0.3 1.1,0.9 1.4,1.6 1.1,2.6 0.6,4.7 -1.2,6.9 -2.4,2.9 -4.4,6.2 -6.6,9.3 -1,1.4 -2.5,2.2 -4.3,2.2 -5.5,0 -11,0 -16.5,0 z"
   id="path5"
   style="fill:#6c3b2f" /><path
   class="st2"
   d="m 252.2,334 c 5.4,0 10.9,0 16.3,0 1.8,0 3.3,0.8 4.4,2.2 2.8,3.9 5.5,7.7 8.2,11.7 0.3,0.4 0.4,1.2 0.3,1.7 -1,4 -1,4.1 -4.9,5.6 -17.2,6.7 -34.2,6.3 -51.2,-1 -1.1,-0.5 -1.5,-1.2 -1.9,-2.2 -0.8,-2.3 -0.5,-4.1 1.1,-6.1 2.5,-3.1 4.6,-6.5 7,-9.7 1,-1.4 2.5,-2.1 4.2,-2.2 5.5,-0.1 11,0 16.5,0 z"
   id="path6"
   style="fill:#6c3b2f" /><path
   class="st2"
   d="m 197.3,197.9 c -3.6,0 -7.3,0 -10.9,0 -0.8,0 -1.1,-0.3 -1.5,-1 -1.5,-2.6 -1.1,-4.8 0.4,-7.4 6.9,-11.9 15.5,-22.4 26.7,-30.6 0.8,-0.6 1.5,-0.7 2.5,-0.6 2.3,0.2 3.8,1.1 5.1,3.1 2,3.2 4.3,6.2 6.4,9.2 0.8,1.2 0.9,4.3 0,5.4 -4.6,6.5 -9.2,13.1 -13.8,19.6 -1,1.4 -2.4,2.1 -4.1,2.1 -3.6,0.2 -7.2,0.2 -10.8,0.2 z"
   id="path8"
   style="fill:#6c3b2f" /><path
   class="st2"
   d="m 307,307.6 c 3.6,0 7.3,0 10.9,0 0.8,0 1.2,0.2 1.5,1 1.5,3.8 1.6,3.8 -0.5,7.4 -6.7,11.9 -15.3,22.2 -26.4,30.4 -1,0.7 -1.9,0.8 -3.1,0.7 -2.2,-0.2 -3.5,-1.2 -4.6,-3 -2.1,-3.2 -4.4,-6.3 -6.6,-9.4 -0.8,-1.1 -0.8,-4.1 -0.1,-5.2 4.7,-6.6 9.3,-13.2 14,-19.8 0.9,-1.3 2.3,-2 3.9,-2 3.7,-0.2 7.4,-0.1 11,-0.1 z"
   id="path9"
   style="fill:#6c3b2f" /><path
   class="st2"
   d="m 197.4,307.6 c 3.6,0 7.2,0 10.8,0 1.7,0 3.1,0.8 4.1,2.1 4.6,6.5 9.2,13 13.8,19.6 0.7,1.1 0.8,4.2 0.1,5.2 -2.6,3.7 -5.2,7.5 -7.9,11.1 -0.3,0.4 -1,0.7 -1.5,0.9 -2.5,1 -4.4,0.2 -6.5,-1.4 -11.2,-8.8 -19.8,-19.7 -26.4,-32.2 -0.2,-0.3 -0.3,-0.8 -0.2,-1.1 0.4,-1.3 0.9,-2.6 1.5,-3.8 0.1,-0.3 0.8,-0.5 1.2,-0.5 3.6,0 7.3,0.1 11,0.1 z"
   id="path10"
   style="fill:#6c3b2f" /></g>





<g
   id="g18"
   inkscape:label="shield"
   transform="matrix(1.1522924,0,0,1.1123985,-37.638743,-28.033581)"
   style="display:none;filter:url(#filter20)">
		
	<path
   class="st2"
   d="m 254.9,374.4 c -1.8,0 -3.7,0 -5.5,0 -0.3,-0.1 -0.6,-0.2 -0.9,-0.2 -11.1,-0.5 -21.5,-3.4 -31.4,-8.2 -0.7,-0.4 -1.2,-0.8 -1.3,-1.6 -0.5,-2 -1,-3.9 -1.6,-5.9 -1.1,0.2 -2,0.3 -3,0.5 -4.9,0.9 -4.9,0.9 -9,-2.1 -13.8,-10.5 -24.1,-23.9 -31.9,-39.3 -0.2,-0.4 -0.2,-1.2 0,-1.7 0.7,-1.8 1.4,-3.6 2.2,-5.5 -1.9,-0.6 -3.6,-1.2 -5.4,-1.7 -0.7,-0.2 -1.1,-0.6 -1.4,-1.3 -6.2,-15.7 -9.6,-32 -10.1,-48.8 0,-0.6 0.3,-1.2 0.7,-1.7 1.3,-1.4 2.6,-2.8 3.9,-4.1 -0.1,-0.2 -0.1,-0.3 -0.1,-0.3 -1.2,-1.3 -2.5,-2.6 -3.7,-3.9 -0.4,-0.5 -0.7,-1.2 -0.7,-1.7 0.6,-16.8 3.9,-33.1 10.1,-48.8 0.3,-0.7 0.7,-1.1 1.4,-1.3 1.8,-0.5 3.5,-1.1 5.4,-1.7 -0.8,-2 -1.6,-3.8 -2.3,-5.6 -0.2,-0.5 -0.2,-1.1 0.1,-1.5 1,-2 2,-3.9 3.1,-5.8 8.1,-14.2 18.6,-26.4 32,-35.8 0.7,-0.5 1.3,-0.6 2.1,-0.5 2.2,0.5 4.4,0.8 6.6,1.2 0.6,-2.1 1,-4.1 1.6,-6 0.2,-0.5 0.6,-1.2 1.1,-1.4 8.9,-4.4 18.3,-7.2 28.2,-8.1 1.5,-0.1 2.9,-0.3 4.4,-0.4 1.9,0 3.8,0 5.8,0 0.3,0.1 0.6,0.2 0.9,0.2 11,0.5 21.3,3.3 31.2,8.1 0.9,0.4 1.3,1 1.5,1.9 0.4,1.9 1,3.8 1.5,5.7 2.2,-0.4 4.4,-0.7 6.5,-1.1 1,-0.2 1.6,0 2.4,0.5 15.3,10.8 26.6,25 35,41.6 0.2,0.4 0.2,1 0,1.4 -0.7,1.9 -1.5,3.7 -2.2,5.6 1.8,0.6 3.5,1.2 5.2,1.7 0.8,0.2 1.3,0.6 1.6,1.5 5.5,13.8 8.7,28.1 9.8,42.9 0.1,1.6 0.3,3.2 0.4,4.9 0,0.6 0,1.3 0,1.9 -1.6,1.6 -3.1,3.2 -4.7,4.8 1.6,1.6 3.1,3.2 4.7,4.8 0,0.6 0,1.3 0,1.9 -0.1,0.3 -0.2,0.5 -0.2,0.8 -0.2,3.1 -0.4,6.1 -0.7,9.2 -1.4,13.1 -4.5,25.7 -9.3,37.9 -0.3,0.7 -0.6,1.1 -1.4,1.3 -1.8,0.5 -3.6,1.2 -5.4,1.7 0,0.2 0,0.3 0,0.3 0.7,1.7 1.3,3.3 2,5 0.3,0.8 0.4,1.4 -0.1,2.1 -0.9,1.6 -1.7,3.2 -2.5,4.8 -8.2,14.5 -18.7,27 -32.4,36.6 -0.7,0.5 -1.3,0.7 -2.2,0.5 -2.2,-0.5 -4.4,-0.8 -6.5,-1.1 -0.1,0.2 -0.2,0.3 -0.2,0.4 -0.5,1.9 -1,3.9 -1.6,5.8 -0.2,0.5 -0.6,1.1 -1,1.3 -8.9,4.4 -18.2,7.2 -28.1,8.1 -1.6,-0.1 -3.1,0.1 -4.6,0.2 z m 30.8,-23.7 c 1.9,0.3 3.6,0.6 5.3,0.9 0.8,0.2 1.4,0 2.1,-0.5 14.2,-9.9 24.6,-23 32.3,-38.4 0.2,-0.4 0.2,-1.1 0,-1.6 -0.6,-1.6 -1.3,-3.3 -1.9,-5 1.7,-0.5 3.3,-1 4.8,-1.6 0.5,-0.2 1,-0.7 1.2,-1.1 0.9,-2.3 1.8,-4.7 2.6,-7.1 4.1,-12.4 6.3,-25.2 6.9,-38.3 0,-1 -0.2,-1.8 -1,-2.4 -1,-0.9 -2.1,-1.8 -3.2,-2.7 1.4,-1.4 2.4,-2.5 3.4,-3.5 0.5,-0.5 0.8,-1.1 0.7,-1.9 -0.3,-3.7 -0.5,-7.3 -0.9,-11 -1.3,-11.9 -4.1,-23.4 -8.6,-34.5 -0.2,-0.5 -0.8,-1.1 -1.4,-1.3 -1.5,-0.6 -3.1,-1.1 -4.7,-1.6 0.7,-1.7 1.4,-3.2 1.9,-4.8 0.2,-0.6 0.2,-1.4 -0.1,-1.9 -2.7,-4.7 -5.3,-9.4 -8.3,-13.9 -6.5,-9.6 -14.5,-17.8 -24,-24.3 -0.6,-0.4 -1.2,-0.6 -2,-0.4 -1.7,0.4 -3.5,0.6 -5.2,0.9 -0.1,-0.2 -0.2,-0.2 -0.2,-0.3 -0.4,-1.5 -0.8,-3.1 -1.3,-4.6 -0.1,-0.4 -0.5,-0.9 -0.9,-1.1 -9.6,-4.8 -19.8,-7.4 -30.6,-7.5 -11.2,-0.1 -21.9,2.5 -31.9,7.4 -0.4,0.2 -0.8,0.8 -0.9,1.2 -0.5,1.6 -0.9,3.2 -1.4,4.9 -1.7,-0.3 -3.4,-0.5 -5,-0.9 -1,-0.2 -1.7,0 -2.5,0.6 -14.2,9.9 -24.5,23.1 -32.3,38.4 -0.2,0.4 -0.2,0.9 0,1.3 0.6,1.7 1.3,3.3 2,5 -1.7,0.6 -3.2,1.1 -4.7,1.5 -0.8,0.2 -1.2,0.7 -1.5,1.4 -5.8,14.7 -8.8,29.9 -9.3,45.7 0,0.5 0.3,1.2 0.7,1.6 0.9,1.1 2,2.1 3.1,3.3 -1.1,1.1 -2.2,2.2 -3.1,3.3 -0.4,0.5 -0.7,1.2 -0.7,1.8 0.2,3.3 0.3,6.6 0.7,9.9 1.2,12.2 4.1,24.1 8.6,35.5 0.3,0.9 0.8,1.3 1.7,1.6 1.5,0.4 2.9,0.9 4.5,1.5 -0.7,1.7 -1.4,3.3 -1.9,4.9 -0.2,0.5 -0.2,1.2 0.1,1.6 1.8,3.4 3.6,6.8 5.6,10 7,11.2 15.8,20.9 26.8,28.4 0.5,0.3 1.2,0.5 1.8,0.4 1.8,-0.2 3.5,-0.6 5.2,-0.9 0.1,0.1 0.2,0.2 0.2,0.2 0.4,1.6 0.8,3.2 1.3,4.7 0.1,0.4 0.5,0.9 0.9,1.1 9.7,4.8 20.1,7.4 30.9,7.4 11.1,0 21.6,-2.5 31.5,-7.5 0.4,-0.2 0.8,-0.7 0.9,-1.1 0.9,-1.3 1.3,-3 1.8,-4.7 z"
   id="path11"
   style="fill:#92c5f8;fill-opacity:0.04;filter:url(#filter45)"
   transform="matrix(0.9850485,0,0,0.99173906,2.286084,3.1152002)" /><path
   class="st2"
   d="m 175.8,253 c -2.1,-2.2 -3.8,-4 -5.5,-5.8 -0.3,-0.4 -0.6,-1 -0.6,-1.5 0.7,-14.1 3.4,-27.7 8.5,-40.9 0.2,-0.5 0.7,-0.9 1.2,-1.1 4.2,-2.1 8.8,-1.9 13.4,-1.9 h 20.3 c 0.9,0 1.4,-0.2 2,-1 5.4,-7.7 10.8,-15.3 16.3,-23 1.1,-1.6 2.7,-2.4 4.6,-2.4 h 32.6 c 1.8,0 3.3,0.8 4.4,2.3 4.6,6.5 9.2,13 13.8,19.6 l 2.4,3.6 c 0.5,0.8 1,0.9 1.9,0.9 h 26.3 c 3,0 5.5,1.3 8.2,2.1 0.3,0.1 0.5,0.6 0.7,0.9 3.7,9.6 6.2,19.6 7.5,29.8 0.5,3.7 0.7,7.5 1,11.2 0,0.5 -0.3,1.2 -0.6,1.5 -1.7,1.8 -3.4,3.5 -5.2,5.3 1.7,1.8 3.3,3.6 5,5.2 0.7,0.7 0.9,1.4 0.9,2.3 -0.7,12.1 -2.8,23.9 -6.6,35.3 l -1.8,5.1 c -0.2,0.5 -0.7,0.9 -1.2,1.1 -3.5,1.5 -7.2,2 -11.1,1.9 -7.6,-0.2 -15.3,0 -22.9,-0.1 -0.9,0 -1.4,0.2 -1.9,0.9 -5.4,7.7 -10.8,15.5 -16.2,23.2 -1,1.4 -2.5,2.2 -4.2,2.2 h -33.1 c -1.7,0 -3.2,-0.8 -4.2,-2.2 -4.6,-6.5 -9.2,-13 -13.7,-19.5 -0.9,-1.2 -1.7,-2.5 -2.5,-3.8 -0.4,-0.6 -0.9,-0.8 -1.6,-0.8 h -13.8 c -4.8,0 -9.6,0.1 -14.4,-0.2 -2.2,-0.2 -4.4,-1.2 -6.6,-1.9 -0.3,-0.1 -0.4,-0.5 -0.6,-0.9 -3.4,-8.8 -5.8,-17.8 -7.1,-27.2 -0.6,-4.3 -0.9,-8.7 -1.4,-13 -0.1,-1.1 0.1,-2 1,-2.7 1.4,-1.3 3.1,-2.8 4.8,-4.5 z"
   id="path12"
   inkscape:label="path4"
   sodipodi:nodetypes="cccccssccsscccsscccccccccccccccsscccssccccccc"
   style="fill:#92c5f8;fill-opacity:0.04;filter:url(#filter47)"
   transform="matrix(0.9850485,0,0,0.99173906,2.286084,3.1152002)" /><path
   class="st2"
   d="m 307,197.9 c -3.6,0 -7.1,0 -10.7,0 -1.7,0 -3.2,-0.8 -4.2,-2.2 -4.6,-6.5 -9.2,-13.1 -13.8,-19.6 -0.8,-1.1 -0.8,-4.1 0.1,-5.3 2.5,-3.6 5.1,-7.2 7.6,-10.8 0.5,-0.7 1.1,-1 1.9,-1.3 2.5,-0.8 4.3,-0.1 6.3,1.5 11.3,8.8 19.9,19.7 26.5,32.3 0.1,0.3 0.3,0.6 0.2,0.9 -0.5,1.4 -1,2.8 -1.7,4.1 -0.1,0.3 -0.7,0.4 -1.1,0.4 -3.8,0 -7.5,0 -11.1,0 z"
   id="path13"
   style="fill:#92c5f8;fill-opacity:0.04;filter:url(#filter49)"
   transform="matrix(0.9850485,0,0,0.99173906,2.286084,3.1152002)" /><path
   class="st2"
   d="m 252.2,171.5 c -5.5,0 -11,0 -16.4,0 -1.8,0 -3.3,-0.8 -4.4,-2.3 -2.7,-3.8 -5.4,-7.7 -8.2,-11.5 -0.4,-0.6 -0.7,-1.2 -0.3,-1.9 0.1,-0.2 0.2,-0.5 0.2,-0.8 0.1,-2.5 1.7,-3.6 3.9,-4.4 17.6,-7 35.1,-6.7 52.4,0.9 0.8,0.3 1.1,0.9 1.4,1.6 1.1,2.6 0.6,4.7 -1.2,6.9 -2.4,2.9 -4.4,6.2 -6.6,9.3 -1,1.4 -2.5,2.2 -4.3,2.2 -5.5,0 -11,0 -16.5,0 z"
   id="path14"
   style="fill:#92c5f8;fill-opacity:0.04;filter:url(#filter51)"
   transform="matrix(0.9850485,0,0,0.99173906,2.286084,3.1152002)" /><path
   class="st2"
   d="m 252.2,334 c 5.4,0 10.9,0 16.3,0 1.8,0 3.3,0.8 4.4,2.2 2.8,3.9 5.5,7.7 8.2,11.7 0.3,0.4 0.4,1.2 0.3,1.7 -1,4 -1,4.1 -4.9,5.6 -17.2,6.7 -34.2,6.3 -51.2,-1 -1.1,-0.5 -1.5,-1.2 -1.9,-2.2 -0.8,-2.3 -0.5,-4.1 1.1,-6.1 2.5,-3.1 4.6,-6.5 7,-9.7 1,-1.4 2.5,-2.1 4.2,-2.2 5.5,-0.1 11,0 16.5,0 z"
   id="path15"
   style="fill:#92c5f8;fill-opacity:0.04;filter:url(#filter53)"
   transform="matrix(0.9850485,0,0,0.99173906,2.286084,3.1152002)" /><path
   class="st2"
   d="m 197.3,197.9 c -3.6,0 -7.3,0 -10.9,0 -0.8,0 -1.1,-0.3 -1.5,-1 -1.5,-2.6 -1.1,-4.8 0.4,-7.4 6.9,-11.9 15.5,-22.4 26.7,-30.6 0.8,-0.6 1.5,-0.7 2.5,-0.6 2.3,0.2 3.8,1.1 5.1,3.1 2,3.2 4.3,6.2 6.4,9.2 0.8,1.2 0.9,4.3 0,5.4 -4.6,6.5 -9.2,13.1 -13.8,19.6 -1,1.4 -2.4,2.1 -4.1,2.1 -3.6,0.2 -7.2,0.2 -10.8,0.2 z"
   id="path16"
   style="fill:#92c5f8;fill-opacity:0.04;filter:url(#filter55)"
   transform="matrix(0.9850485,0,0,0.99173906,2.286084,3.1152002)" /><path
   class="st2"
   d="m 307,307.6 c 3.6,0 7.3,0 10.9,0 0.8,0 1.2,0.2 1.5,1 1.5,3.8 1.6,3.8 -0.5,7.4 -6.7,11.9 -15.3,22.2 -26.4,30.4 -1,0.7 -1.9,0.8 -3.1,0.7 -2.2,-0.2 -3.5,-1.2 -4.6,-3 -2.1,-3.2 -4.4,-6.3 -6.6,-9.4 -0.8,-1.1 -0.8,-4.1 -0.1,-5.2 4.7,-6.6 9.3,-13.2 14,-19.8 0.9,-1.3 2.3,-2 3.9,-2 3.7,-0.2 7.4,-0.1 11,-0.1 z"
   id="path17"
   style="fill:#92c5f8;fill-opacity:0.04;filter:url(#filter57)"
   transform="matrix(0.9850485,0,0,0.99173906,2.286084,3.1152002)" /><path
   class="st2"
   d="m 197.4,307.6 c 3.6,0 7.2,0 10.8,0 1.7,0 3.1,0.8 4.1,2.1 4.6,6.5 9.2,13 13.8,19.6 0.7,1.1 0.8,4.2 0.1,5.2 -2.6,3.7 -5.2,7.5 -7.9,11.1 -0.3,0.4 -1,0.7 -1.5,0.9 -2.5,1 -4.4,0.2 -6.5,-1.4 -11.2,-8.8 -19.8,-19.7 -26.4,-32.2 -0.2,-0.3 -0.3,-0.8 -0.2,-1.1 0.4,-1.3 0.9,-2.6 1.5,-3.8 0.1,-0.3 0.8,-0.5 1.2,-0.5 3.6,0 7.3,0.1 11,0.1 z"
   id="path18"
   style="fill:#92c5f8;fill-opacity:0.04;filter:url(#filter59)"
   transform="matrix(0.9850485,0,0,0.99173906,2.286084,3.1152002)" /></g><g
   id="g28"
   inkscape:label="tint1"
   transform="translate(-0.35)">
		
	<path
   d="m 256.80375,373.25775 c -1.8,0 -3.7,0 -5.5,0 -0.3,-0.1 -0.6,-0.2 -0.9,-0.2 -11.1,-0.5 -21.5,-3.4 -31.4,-8.2 -0.7,-0.4 -1.2,-0.8 -1.3,-1.6 -0.5,-2 -1,-3.9 -1.6,-5.9 -1.1,0.2 -2,0.3 -3,0.5 -4.9,0.9 -4.9,0.9 -9,-2.1 -13.8,-10.5 -24.1,-23.9 -31.9,-39.3 -0.2,-0.4 -0.2,-1.2 0,-1.7 0.7,-1.8 1.4,-3.6 2.2,-5.5 -1.9,-0.6 -3.6,-1.2 -5.4,-1.7 -0.7,-0.2 -1.1,-0.6 -1.4,-1.3 -6.2,-15.7 -9.6,-32 -10.1,-48.8 0,-0.6 0.3,-1.2 0.7,-1.7 1.3,-1.4 2.6,-2.8 3.9,-4.1 -0.1,-0.2 -0.1,-0.3 -0.1,-0.3 -1.2,-1.3 -2.5,-2.6 -3.7,-3.9 -0.4,-0.5 -0.7,-1.2 -0.7,-1.7 0.6,-16.8 3.9,-33.1 10.1,-48.8 0.3,-0.7 0.7,-1.1 1.4,-1.3 1.8,-0.5 3.5,-1.1 5.4,-1.7 -0.8,-2 -1.6,-3.8 -2.3,-5.6 -0.2,-0.5 -0.2,-1.1 0.1,-1.5 1,-2 2,-3.9 3.1,-5.8 8.1,-14.2 18.6,-26.4 32,-35.8 0.7,-0.5 1.3,-0.6 2.1,-0.5 2.2,0.5 4.4,0.8 6.6,1.2 0.6,-2.1 1,-4.1 1.6,-6 0.2,-0.5 0.6,-1.2 1.1,-1.4 8.9,-4.4 18.3,-7.2 28.2,-8.1 1.5,-0.1 2.9,-0.3 4.4,-0.4 1.9,0 3.8,0 5.8,0 0.3,0.1 0.6,0.2 0.9,0.2 11,0.5 21.3,3.3 31.2,8.1 0.9,0.4 1.3,1 1.5,1.9 0.4,1.9 1,3.8 1.5,5.7 2.2,-0.4 4.4,-0.7 6.5,-1.1 1,-0.2 1.6,0 2.4,0.5 15.3,10.8 26.6,25 35,41.6 0.2,0.4 0.2,1 0,1.4 -0.7,1.9 -1.5,3.7 -2.2,5.6 1.8,0.6 3.5,1.2 5.2,1.7 0.8,0.2 1.3,0.6 1.6,1.5 5.5,13.8 8.7,28.1 9.8,42.9 0.1,1.6 0.3,3.2 0.4,4.9 0,0.6 0,1.3 0,1.9 -1.6,1.6 -3.1,3.2 -4.7,4.8 1.6,1.6 3.1,3.2 4.7,4.8 0,0.6 0,1.3 0,1.9 -0.1,0.3 -0.2,0.5 -0.2,0.8 -0.2,3.1 -0.4,6.1 -0.7,9.2 -1.4,13.1 -4.5,25.7 -9.3,37.9 -0.3,0.7 -0.6,1.1 -1.4,1.3 -1.8,0.5 -3.6,1.2 -5.4,1.7 0,0.2 0,0.3 0,0.3 0.7,1.7 1.3,3.3 2,5 0.3,0.8 0.4,1.4 -0.1,2.1 -0.9,1.6 -1.7,3.2 -2.5,4.8 -8.2,14.5 -18.7,27 -32.4,36.6 -0.7,0.5 -1.3,0.7 -2.2,0.5 -2.2,-0.5 -4.4,-0.8 -6.5,-1.1 -0.1,0.2 -0.2,0.3 -0.2,0.4 -0.5,1.9 -1,3.9 -1.6,5.8 -0.2,0.5 -0.6,1.1 -1,1.3 -8.9,4.4 -18.2,7.2 -28.1,8.1 -1.6,-0.1 -3.1,0.1 -4.6,0.2 z"
   id="path20"
   inkscape:label="path19"
   style="fill:#59a2dc;fill-opacity:0.07" /><path
   class="st2"
   d="m 256.80375,373.25775 c -1.8,0 -3.7,0 -5.5,0 -0.3,-0.1 -0.6,-0.2 -0.9,-0.2 -11.1,-0.5 -21.5,-3.4 -31.4,-8.2 -0.7,-0.4 -1.2,-0.8 -1.3,-1.6 -0.5,-2 -1,-3.9 -1.6,-5.9 -1.1,0.2 -2,0.3 -3,0.5 -4.9,0.9 -4.9,0.9 -9,-2.1 -13.8,-10.5 -24.1,-23.9 -31.9,-39.3 -0.2,-0.4 -0.2,-1.2 0,-1.7 0.7,-1.8 1.4,-3.6 2.2,-5.5 -1.9,-0.6 -3.6,-1.2 -5.4,-1.7 -0.7,-0.2 -1.1,-0.6 -1.4,-1.3 -6.2,-15.7 -9.6,-32 -10.1,-48.8 0,-0.6 0.3,-1.2 0.7,-1.7 1.3,-1.4 2.6,-2.8 3.9,-4.1 -0.1,-0.2 -0.1,-0.3 -0.1,-0.3 -1.2,-1.3 -2.5,-2.6 -3.7,-3.9 -0.4,-0.5 -0.7,-1.2 -0.7,-1.7 0.6,-16.8 3.9,-33.1 10.1,-48.8 0.3,-0.7 0.7,-1.1 1.4,-1.3 1.8,-0.5 3.5,-1.1 5.4,-1.7 -0.8,-2 -1.6,-3.8 -2.3,-5.6 -0.2,-0.5 -0.2,-1.1 0.1,-1.5 1,-2 2,-3.9 3.1,-5.8 8.1,-14.2 18.6,-26.4 32,-35.8 0.7,-0.5 1.3,-0.6 2.1,-0.5 2.2,0.5 4.4,0.8 6.6,1.2 0.6,-2.1 1,-4.1 1.6,-6 0.2,-0.5 0.6,-1.2 1.1,-1.4 8.9,-4.4 18.3,-7.2 28.2,-8.1 1.5,-0.1 2.9,-0.3 4.4,-0.4 1.9,0 3.8,0 5.8,0 0.3,0.1 0.6,0.2 0.9,0.2 11,0.5 21.3,3.3 31.2,8.1 0.9,0.4 1.3,1 1.5,1.9 0.4,1.9 1,3.8 1.5,5.7 2.2,-0.4 4.4,-0.7 6.5,-1.1 1,-0.2 1.6,0 2.4,0.5 15.3,10.8 26.6,25 35,41.6 0.2,0.4 0.2,1 0,1.4 -0.7,1.9 -1.5,3.7 -2.2,5.6 1.8,0.6 3.5,1.2 5.2,1.7 0.8,0.2 1.3,0.6 1.6,1.5 5.5,13.8 8.7,28.1 9.8,42.9 0.1,1.6 0.3,3.2 0.4,4.9 0,0.6 0,1.3 0,1.9 -1.6,1.6 -3.1,3.2 -4.7,4.8 1.6,1.6 3.1,3.2 4.7,4.8 0,0.6 0,1.3 0,1.9 -0.1,0.3 -0.2,0.5 -0.2,0.8 -0.2,3.1 -0.4,6.1 -0.7,9.2 -1.4,13.1 -4.5,25.7 -9.3,37.9 -0.3,0.7 -0.6,1.1 -1.4,1.3 -1.8,0.5 -3.6,1.2 -5.4,1.7 0,0.2 0,0.3 0,0.3 0.7,1.7 1.3,3.3 2,5 0.3,0.8 0.4,1.4 -0.1,2.1 -0.9,1.6 -1.7,3.2 -2.5,4.8 -8.2,14.5 -18.7,27 -32.4,36.6 -0.7,0.5 -1.3,0.7 -2.2,0.5 -2.2,-0.5 -4.4,-0.8 -6.5,-1.1 -0.1,0.2 -0.2,0.3 -0.2,0.4 -0.5,1.9 -1,3.9 -1.6,5.8 -0.2,0.5 -0.6,1.1 -1,1.3 -8.9,4.4 -18.2,7.2 -28.1,8.1 -1.6,-0.1 -3.1,0.1 -4.6,0.2 z m 30.8,-23.7 c 1.9,0.3 3.6,0.6 5.3,0.9 0.8,0.2 1.4,0 2.1,-0.5 14.2,-9.9 24.6,-23 32.3,-38.4 0.2,-0.4 0.2,-1.1 0,-1.6 -0.6,-1.6 -1.3,-3.3 -1.9,-5 1.7,-0.5 3.3,-1 4.8,-1.6 0.5,-0.2 1,-0.7 1.2,-1.1 0.9,-2.3 1.8,-4.7 2.6,-7.1 4.1,-12.4 6.3,-25.2 6.9,-38.3 0,-1 -0.2,-1.8 -1,-2.4 -1,-0.9 -2.1,-1.8 -3.2,-2.7 1.4,-1.4 2.4,-2.5 3.4,-3.5 0.5,-0.5 0.8,-1.1 0.7,-1.9 -0.3,-3.7 -0.5,-7.3 -0.9,-11 -1.3,-11.9 -4.1,-23.4 -8.6,-34.5 -0.2,-0.5 -0.8,-1.1 -1.4,-1.3 -1.5,-0.6 -3.1,-1.1 -4.7,-1.6 0.7,-1.7 1.4,-3.2 1.9,-4.8 0.2,-0.6 0.2,-1.4 -0.1,-1.9 -2.7,-4.7 -5.3,-9.4 -8.3,-13.9 -6.5,-9.6 -14.5,-17.8 -24,-24.3 -0.6,-0.4 -1.2,-0.6 -2,-0.4 -1.7,0.4 -3.5,0.6 -5.2,0.9 -0.1,-0.2 -0.2,-0.2 -0.2,-0.3 -0.4,-1.5 -0.8,-3.1 -1.3,-4.6 -0.1,-0.4 -0.5,-0.9 -0.9,-1.1 -9.6,-4.8 -19.8,-7.4 -30.6,-7.5 -11.2,-0.1 -21.9,2.5 -31.9,7.4 -0.4,0.2 -0.8,0.8 -0.9,1.2 -0.5,1.6 -0.9,3.2 -1.4,4.9 -1.7,-0.3 -3.4,-0.5 -5,-0.9 -1,-0.2 -1.7,0 -2.5,0.6 -14.2,9.9 -24.5,23.1 -32.3,38.4 -0.2,0.4 -0.2,0.9 0,1.3 0.6,1.7 1.3,3.3 2,5 -1.7,0.6 -3.2,1.1 -4.7,1.5 -0.8,0.2 -1.2,0.7 -1.5,1.4 -5.8,14.7 -8.8,29.9 -9.3,45.7 0,0.5 0.3,1.2 0.7,1.6 0.9,1.1 2,2.1 3.1,3.3 -1.1,1.1 -2.2,2.2 -3.1,3.3 -0.4,0.5 -0.7,1.2 -0.7,1.8 0.2,3.3 0.3,6.6 0.7,9.9 1.2,12.2 4.1,24.1 8.6,35.5 0.3,0.9 0.8,1.3 1.7,1.6 1.5,0.4 2.9,0.9 4.5,1.5 -0.7,1.7 -1.4,3.3 -1.9,4.9 -0.2,0.5 -0.2,1.2 0.1,1.6 1.8,3.4 3.6,6.8 5.6,10 7,11.2 15.8,20.9 26.8,28.4 0.5,0.3 1.2,0.5 1.8,0.4 1.8,-0.2 3.5,-0.6 5.2,-0.9 0.1,0.1 0.2,0.2 0.2,0.2 0.4,1.6 0.8,3.2 1.3,4.7 0.1,0.4 0.5,0.9 0.9,1.1 9.7,4.8 20.1,7.4 30.9,7.4 11.1,0 21.6,-2.5 31.5,-7.5 0.4,-0.2 0.8,-0.7 0.9,-1.1 0.9,-1.3 1.3,-3 1.8,-4.7 z"
   id="path21"
   style="fill:#59a2dc;fill-opacity:0.07;stroke-width:2;stroke:#4390c9;stroke-opacity:0.20663266" /><path
   class="st2"
   d="m 177.70375,251.85775 c -2.1,-2.2 -3.8,-4 -5.5,-5.8 -0.3,-0.4 -0.6,-1 -0.6,-1.5 0.7,-14.1 3.4,-27.7 8.5,-40.9 0.2,-0.5 0.7,-0.9 1.2,-1.1 4.2,-2.1 8.8,-1.9 13.4,-1.9 h 20.3 c 0.9,0 1.4,-0.2 2,-1 5.4,-7.7 10.8,-15.3 16.3,-23 1.1,-1.6 2.7,-2.4 4.6,-2.4 h 32.6 c 1.8,0 3.3,0.8 4.4,2.3 4.6,6.5 9.2,13 13.8,19.6 l 2.4,3.6 c 0.5,0.8 1,0.9 1.9,0.9 h 26.3 c 3,0 5.5,1.3 8.2,2.1 0.3,0.1 0.5,0.6 0.7,0.9 3.7,9.6 6.2,19.6 7.5,29.8 0.5,3.7 0.7,7.5 1,11.2 0,0.5 -0.3,1.2 -0.6,1.5 -1.7,1.8 -3.4,3.5 -5.2,5.3 1.7,1.8 3.3,3.6 5,5.2 0.7,0.7 0.9,1.4 0.9,2.3 -0.7,12.1 -2.8,23.9 -6.6,35.3 l -1.8,5.1 c -0.2,0.5 -0.7,0.9 -1.2,1.1 -3.5,1.5 -7.2,2 -11.1,1.9 -7.6,-0.2 -15.3,0 -22.9,-0.1 -0.9,0 -1.4,0.2 -1.9,0.9 -5.4,7.7 -10.8,15.5 -16.2,23.2 -1,1.4 -2.5,2.2 -4.2,2.2 h -33.1 c -1.7,0 -3.2,-0.8 -4.2,-2.2 -4.6,-6.5 -9.2,-13 -13.7,-19.5 -0.9,-1.2 -1.7,-2.5 -2.5,-3.8 -0.4,-0.6 -0.9,-0.8 -1.6,-0.8 h -13.8 c -4.8,0 -9.6,0.1 -14.4,-0.2 -2.2,-0.2 -4.4,-1.2 -6.6,-1.9 -0.3,-0.1 -0.4,-0.5 -0.6,-0.9 -3.4,-8.8 -5.8,-17.8 -7.1,-27.2 -0.6,-4.3 -0.9,-8.7 -1.4,-13 -0.1,-1.1 0.1,-2 1,-2.7 1.4,-1.3 3.1,-2.8 4.8,-4.5 z"
   id="path22"
   inkscape:label="path4"
   sodipodi:nodetypes="cccccssccsscccsscccccccccccccccsscccssccccccc"
   style="fill:#59a2dc;fill-opacity:0.07" /><path
   class="st2"
   d="m 308.90375,196.75775 c -3.6,0 -7.1,0 -10.7,0 -1.7,0 -3.2,-0.8 -4.2,-2.2 -4.6,-6.5 -9.2,-13.1 -13.8,-19.6 -0.8,-1.1 -0.8,-4.1 0.1,-5.3 2.5,-3.6 5.1,-7.2 7.6,-10.8 0.5,-0.7 1.1,-1 1.9,-1.3 2.5,-0.8 4.3,-0.1 6.3,1.5 11.3,8.8 19.9,19.7 26.5,32.3 0.1,0.3 0.3,0.6 0.2,0.9 -0.5,1.4 -1,2.8 -1.7,4.1 -0.1,0.3 -0.7,0.4 -1.1,0.4 -3.8,0 -7.5,0 -11.1,0 z"
   id="path23"
   style="fill:#59a2dc;fill-opacity:0.07" /><path
   class="st2"
   d="m 254.10375,170.35775 c -5.5,0 -11,0 -16.4,0 -1.8,0 -3.3,-0.8 -4.4,-2.3 -2.7,-3.8 -5.4,-7.7 -8.2,-11.5 -0.4,-0.6 -0.7,-1.2 -0.3,-1.9 0.1,-0.2 0.2,-0.5 0.2,-0.8 0.1,-2.5 1.7,-3.6 3.9,-4.4 17.6,-7 35.1,-6.7 52.4,0.9 0.8,0.3 1.1,0.9 1.4,1.6 1.1,2.6 0.6,4.7 -1.2,6.9 -2.4,2.9 -4.4,6.2 -6.6,9.3 -1,1.4 -2.5,2.2 -4.3,2.2 -5.5,0 -11,0 -16.5,0 z"
   id="path24"
   style="fill:#59a2dc;fill-opacity:0.07" /><path
   class="st2"
   d="m 254.10375,332.85775 c 5.4,0 10.9,0 16.3,0 1.8,0 3.3,0.8 4.4,2.2 2.8,3.9 5.5,7.7 8.2,11.7 0.3,0.4 0.4,1.2 0.3,1.7 -1,4 -1,4.1 -4.9,5.6 -17.2,6.7 -34.2,6.3 -51.2,-1 -1.1,-0.5 -1.5,-1.2 -1.9,-2.2 -0.8,-2.3 -0.5,-4.1 1.1,-6.1 2.5,-3.1 4.6,-6.5 7,-9.7 1,-1.4 2.5,-2.1 4.2,-2.2 5.5,-0.1 11,0 16.5,0 z"
   id="path25"
   style="fill:#59a2dc;fill-opacity:0.07" /><path
   class="st2"
   d="m 199.20375,196.75775 c -3.6,0 -7.3,0 -10.9,0 -0.8,0 -1.1,-0.3 -1.5,-1 -1.5,-2.6 -1.1,-4.8 0.4,-7.4 6.9,-11.9 15.5,-22.4 26.7,-30.6 0.8,-0.6 1.5,-0.7 2.5,-0.6 2.3,0.2 3.8,1.1 5.1,3.1 2,3.2 4.3,6.2 6.4,9.2 0.8,1.2 0.9,4.3 0,5.4 -4.6,6.5 -9.2,13.1 -13.8,19.6 -1,1.4 -2.4,2.1 -4.1,2.1 -3.6,0.2 -7.2,0.2 -10.8,0.2 z"
   id="path26"
   style="fill:#59a2dc;fill-opacity:0.07" /><path
   class="st2"
   d="m 308.90375,306.45775 c 3.6,0 7.3,0 10.9,0 0.8,0 1.2,0.2 1.5,1 1.5,3.8 1.6,3.8 -0.5,7.4 -6.7,11.9 -15.3,22.2 -26.4,30.4 -1,0.7 -1.9,0.8 -3.1,0.7 -2.2,-0.2 -3.5,-1.2 -4.6,-3 -2.1,-3.2 -4.4,-6.3 -6.6,-9.4 -0.8,-1.1 -0.8,-4.1 -0.1,-5.2 4.7,-6.6 9.3,-13.2 14,-19.8 0.9,-1.3 2.3,-2 3.9,-2 3.7,-0.2 7.4,-0.1 11,-0.1 z"
   id="path27"
   style="fill:#59a2dc;fill-opacity:0.07" /><path
   class="st2"
   d="m 199.30375,306.45775 c 3.6,0 7.2,0 10.8,0 1.7,0 3.1,0.8 4.1,2.1 4.6,6.5 9.2,13 13.8,19.6 0.7,1.1 0.8,4.2 0.1,5.2 -2.6,3.7 -5.2,7.5 -7.9,11.1 -0.3,0.4 -1,0.7 -1.5,0.9 -2.5,1 -4.4,0.2 -6.5,-1.4 -11.2,-8.8 -19.8,-19.7 -26.4,-32.2 -0.2,-0.3 -0.3,-0.8 -0.2,-1.1 0.4,-1.3 0.9,-2.6 1.5,-3.8 0.1,-0.3 0.8,-0.5 1.2,-0.5 3.6,0 7.3,0.1 11,0.1 z"
   id="path28"
   style="fill:#59a2dc;fill-opacity:0.07" /><path
   class="st2"
   d="m 156.4615,88.481814 c 8,15.599996 16,31.199996 24.1,46.899996 4,-4.2 7.9,-8.3 12,-12.5 1.1,2.6 2.1,5 3.1,7.5 2.50548,6.03171 5.01096,12.14954 7.51644,18.19366 l -18.18159,17.36263 c -0.65724,-1.28414 -1.32873,-2.6029 -2.03485,-3.95629 -4,4.5 -7.9,8.9 -12.1,13.6 -4.9,-29.1 -9.8,-58.1 -14.7,-86.999996 0.2,0 0.3,0 0.3,-0.1 z"
   id="path47"
   inkscape:label="bolt_l"
   sodipodi:nodetypes="cccccccccc"
   style="fill:#5ba2dc;fill-opacity:0.07;stroke:#4390c9;stroke-opacity:0.20663266;stroke-width:2"
   transform="translate(0.3)" /><path
   class="st2"
   d="m 334.8615,325.88181 c 4.9,29.1 9.8,58 14.6,86.8 -0.1,0 -0.2,0.1 -0.2,0.1 -8,-15.5 -16,-31.1 -24.1,-46.7 -4,4.2 -7.9,8.3 -12,12.5 -3.41965,-8.27078 -6.71281,-16.41506 -10.03036,-24.43286 l 17.48482,-18.82885 c 0.68142,1.40879 1.09083,2.33185 2.04554,4.16171 4.2,-4.6 8.1,-9 12.2,-13.6 z"
   id="path48"
   inkscape:label="bolt_r"
   sodipodi:nodetypes="ccccccccc"
   style="fill:#5ba2dc;fill-opacity:0.07;stroke:#4390c9;stroke-opacity:0.20663266;stroke-width:2"
   transform="translate(0.3)" /></g><g
   id="g37"
   inkscape:label="tint2"
   transform="translate(0.03074978,0.76149966)">
		
	<path
   d="m 259.469,371.354 c -1.8,0 -3.7,0 -5.5,0 -0.3,-0.1 -0.6,-0.2 -0.9,-0.2 -11.1,-0.5 -21.5,-3.4 -31.4,-8.2 -0.7,-0.4 -1.2,-0.8 -1.3,-1.6 -0.5,-2 -1,-3.9 -1.6,-5.9 -1.1,0.2 -2,0.3 -3,0.5 -4.9,0.9 -4.9,0.9 -9,-2.1 -13.8,-10.5 -24.1,-23.9 -31.9,-39.3 -0.2,-0.4 -0.2,-1.2 0,-1.7 0.7,-1.8 1.4,-3.6 2.2,-5.5 -1.9,-0.6 -3.6,-1.2 -5.4,-1.7 -0.7,-0.2 -1.1,-0.6 -1.4,-1.3 -6.2,-15.7 -9.6,-32 -10.1,-48.8 0,-0.6 0.3,-1.2 0.7,-1.7 1.3,-1.4 2.6,-2.8 3.9,-4.1 -0.1,-0.2 -0.1,-0.3 -0.1,-0.3 -1.2,-1.3 -2.5,-2.6 -3.7,-3.9 -0.4,-0.5 -0.7,-1.2 -0.7,-1.7 0.6,-16.8 3.9,-33.1 10.1,-48.8 0.3,-0.7 0.7,-1.1 1.4,-1.3 1.8,-0.5 3.5,-1.1 5.4,-1.7 -0.8,-2 -1.6,-3.8 -2.3,-5.6 -0.2,-0.5 -0.2,-1.1 0.1,-1.5 1,-2 2,-3.9 3.1,-5.8 8.1,-14.2 18.6,-26.4 32,-35.8 0.7,-0.5 1.3,-0.6 2.1,-0.5 2.2,0.5 4.4,0.8 6.6,1.2 0.6,-2.1 1,-4.1 1.6,-6 0.2,-0.5 0.6,-1.2 1.1,-1.4 8.9,-4.4 18.3,-7.2 28.2,-8.1 1.5,-0.1 2.9,-0.3 4.4,-0.4 1.9,0 3.8,0 5.8,0 0.3,0.1 0.6,0.2 0.9,0.2 11,0.5 21.3,3.3 31.2,8.1 0.9,0.4 1.3,1 1.5,1.9 0.4,1.9 1,3.8 1.5,5.7 2.2,-0.4 4.4,-0.7 6.5,-1.1 1,-0.2 1.6,0 2.4,0.5 15.3,10.8 26.6,25 35,41.6 0.2,0.4 0.2,1 0,1.4 -0.7,1.9 -1.5,3.7 -2.2,5.6 1.8,0.6 3.5,1.2 5.2,1.7 0.8,0.2 1.3,0.6 1.6,1.5 5.5,13.8 8.7,28.1 9.8,42.9 0.1,1.6 0.3,3.2 0.4,4.9 0,0.6 0,1.3 0,1.9 -1.6,1.6 -3.1,3.2 -4.7,4.8 1.6,1.6 3.1,3.2 4.7,4.8 0,0.6 0,1.3 0,1.9 -0.1,0.3 -0.2,0.5 -0.2,0.8 -0.2,3.1 -0.4,6.1 -0.7,9.2 -1.4,13.1 -4.5,25.7 -9.3,37.9 -0.3,0.7 -0.6,1.1 -1.4,1.3 -1.8,0.5 -3.6,1.2 -5.4,1.7 0,0.2 0,0.3 0,0.3 0.7,1.7 1.3,3.3 2,5 0.3,0.8 0.4,1.4 -0.1,2.1 -0.9,1.6 -1.7,3.2 -2.5,4.8 -8.2,14.5 -18.7,27 -32.4,36.6 -0.7,0.5 -1.3,0.7 -2.2,0.5 -2.2,-0.5 -4.4,-0.8 -6.5,-1.1 -0.1,0.2 -0.2,0.3 -0.2,0.4 -0.5,1.9 -1,3.9 -1.6,5.8 -0.2,0.5 -0.6,1.1 -1,1.3 -8.9,4.4 -18.2,7.2 -28.1,8.1 -1.6,-0.1 -3.1,0.1 -4.6,0.2 z"
   id="path29"
   inkscape:label="path19"
   style="fill:#59a2dc;fill-opacity:0.07" /><path
   class="st2"
   d="m 259.469,371.354 c -1.8,0 -3.7,0 -5.5,0 -0.3,-0.1 -0.6,-0.2 -0.9,-0.2 -11.1,-0.5 -21.5,-3.4 -31.4,-8.2 -0.7,-0.4 -1.2,-0.8 -1.3,-1.6 -0.5,-2 -1,-3.9 -1.6,-5.9 -1.1,0.2 -2,0.3 -3,0.5 -4.9,0.9 -4.9,0.9 -9,-2.1 -13.8,-10.5 -24.1,-23.9 -31.9,-39.3 -0.2,-0.4 -0.2,-1.2 0,-1.7 0.7,-1.8 1.4,-3.6 2.2,-5.5 -1.9,-0.6 -3.6,-1.2 -5.4,-1.7 -0.7,-0.2 -1.1,-0.6 -1.4,-1.3 -6.2,-15.7 -9.6,-32 -10.1,-48.8 0,-0.6 0.3,-1.2 0.7,-1.7 1.3,-1.4 2.6,-2.8 3.9,-4.1 -0.1,-0.2 -0.1,-0.3 -0.1,-0.3 -1.2,-1.3 -2.5,-2.6 -3.7,-3.9 -0.4,-0.5 -0.7,-1.2 -0.7,-1.7 0.6,-16.8 3.9,-33.1 10.1,-48.8 0.3,-0.7 0.7,-1.1 1.4,-1.3 1.8,-0.5 3.5,-1.1 5.4,-1.7 -0.8,-2 -1.6,-3.8 -2.3,-5.6 -0.2,-0.5 -0.2,-1.1 0.1,-1.5 1,-2 2,-3.9 3.1,-5.8 8.1,-14.2 18.6,-26.4 32,-35.8 0.7,-0.5 1.3,-0.6 2.1,-0.5 2.2,0.5 4.4,0.8 6.6,1.2 0.6,-2.1 1,-4.1 1.6,-6 0.2,-0.5 0.6,-1.2 1.1,-1.4 8.9,-4.4 18.3,-7.2 28.2,-8.1 1.5,-0.1 2.9,-0.3 4.4,-0.4 1.9,0 3.8,0 5.8,0 0.3,0.1 0.6,0.2 0.9,0.2 11,0.5 21.3,3.3 31.2,8.1 0.9,0.4 1.3,1 1.5,1.9 0.4,1.9 1,3.8 1.5,5.7 2.2,-0.4 4.4,-0.7 6.5,-1.1 1,-0.2 1.6,0 2.4,0.5 15.3,10.8 26.6,25 35,41.6 0.2,0.4 0.2,1 0,1.4 -0.7,1.9 -1.5,3.7 -2.2,5.6 1.8,0.6 3.5,1.2 5.2,1.7 0.8,0.2 1.3,0.6 1.6,1.5 5.5,13.8 8.7,28.1 9.8,42.9 0.1,1.6 0.3,3.2 0.4,4.9 0,0.6 0,1.3 0,1.9 -1.6,1.6 -3.1,3.2 -4.7,4.8 1.6,1.6 3.1,3.2 4.7,4.8 0,0.6 0,1.3 0,1.9 -0.1,0.3 -0.2,0.5 -0.2,0.8 -0.2,3.1 -0.4,6.1 -0.7,9.2 -1.4,13.1 -4.5,25.7 -9.3,37.9 -0.3,0.7 -0.6,1.1 -1.4,1.3 -1.8,0.5 -3.6,1.2 -5.4,1.7 0,0.2 0,0.3 0,0.3 0.7,1.7 1.3,3.3 2,5 0.3,0.8 0.4,1.4 -0.1,2.1 -0.9,1.6 -1.7,3.2 -2.5,4.8 -8.2,14.5 -18.7,27 -32.4,36.6 -0.7,0.5 -1.3,0.7 -2.2,0.5 -2.2,-0.5 -4.4,-0.8 -6.5,-1.1 -0.1,0.2 -0.2,0.3 -0.2,0.4 -0.5,1.9 -1,3.9 -1.6,5.8 -0.2,0.5 -0.6,1.1 -1,1.3 -8.9,4.4 -18.2,7.2 -28.1,8.1 -1.6,-0.1 -3.1,0.1 -4.6,0.2 z m 30.8,-23.7 c 1.9,0.3 3.6,0.6 5.3,0.9 0.8,0.2 1.4,0 2.1,-0.5 14.2,-9.9 24.6,-23 32.3,-38.4 0.2,-0.4 0.2,-1.1 0,-1.6 -0.6,-1.6 -1.3,-3.3 -1.9,-5 1.7,-0.5 3.3,-1 4.8,-1.6 0.5,-0.2 1,-0.7 1.2,-1.1 0.9,-2.3 1.8,-4.7 2.6,-7.1 4.1,-12.4 6.3,-25.2 6.9,-38.3 0,-1 -0.2,-1.8 -1,-2.4 -1,-0.9 -2.1,-1.8 -3.2,-2.7 1.4,-1.4 2.4,-2.5 3.4,-3.5 0.5,-0.5 0.8,-1.1 0.7,-1.9 -0.3,-3.7 -0.5,-7.3 -0.9,-11 -1.3,-11.9 -4.1,-23.4 -8.6,-34.5 -0.2,-0.5 -0.8,-1.1 -1.4,-1.3 -1.5,-0.6 -3.1,-1.1 -4.7,-1.6 0.7,-1.7 1.4,-3.2 1.9,-4.8 0.2,-0.6 0.2,-1.4 -0.1,-1.9 -2.7,-4.7 -5.3,-9.4 -8.3,-13.9 -6.5,-9.6 -14.5,-17.8 -24,-24.3 -0.6,-0.4 -1.2,-0.6 -2,-0.4 -1.7,0.4 -3.5,0.6 -5.2,0.9 -0.1,-0.2 -0.2,-0.2 -0.2,-0.3 -0.4,-1.5 -0.8,-3.1 -1.3,-4.6 -0.1,-0.4 -0.5,-0.9 -0.9,-1.1 -9.6,-4.8 -19.8,-7.4 -30.6,-7.5 -11.2,-0.1 -21.9,2.5 -31.9,7.4 -0.4,0.2 -0.8,0.8 -0.9,1.2 -0.5,1.6 -0.9,3.2 -1.4,4.9 -1.7,-0.3 -3.4,-0.5 -5,-0.9 -1,-0.2 -1.7,0 -2.5,0.6 -14.2,9.9 -24.5,23.1 -32.3,38.4 -0.2,0.4 -0.2,0.9 0,1.3 0.6,1.7 1.3,3.3 2,5 -1.7,0.6 -3.2,1.1 -4.7,1.5 -0.8,0.2 -1.2,0.7 -1.5,1.4 -5.8,14.7 -8.8,29.9 -9.3,45.7 0,0.5 0.3,1.2 0.7,1.6 0.9,1.1 2,2.1 3.1,3.3 -1.1,1.1 -2.2,2.2 -3.1,3.3 -0.4,0.5 -0.7,1.2 -0.7,1.8 0.2,3.3 0.3,6.6 0.7,9.9 1.2,12.2 4.1,24.1 8.6,35.5 0.3,0.9 0.8,1.3 1.7,1.6 1.5,0.4 2.9,0.9 4.5,1.5 -0.7,1.7 -1.4,3.3 -1.9,4.9 -0.2,0.5 -0.2,1.2 0.1,1.6 1.8,3.4 3.6,6.8 5.6,10 7,11.2 15.8,20.9 26.8,28.4 0.5,0.3 1.2,0.5 1.8,0.4 1.8,-0.2 3.5,-0.6 5.2,-0.9 0.1,0.1 0.2,0.2 0.2,0.2 0.4,1.6 0.8,3.2 1.3,4.7 0.1,0.4 0.5,0.9 0.9,1.1 9.7,4.8 20.1,7.4 30.9,7.4 11.1,0 21.6,-2.5 31.5,-7.5 0.4,-0.2 0.8,-0.7 0.9,-1.1 0.9,-1.3 1.3,-3 1.8,-4.7 z"
   id="path30"
   style="fill:#59a2dc;fill-opacity:0.07;stroke:#4390c9;stroke-opacity:0.20663266;stroke-width:2" /><path
   class="st2"
   d="m 180.369,249.954 c -2.1,-2.2 -3.8,-4 -5.5,-5.8 -0.3,-0.4 -0.6,-1 -0.6,-1.5 0.7,-14.1 3.4,-27.7 8.5,-40.9 0.2,-0.5 0.7,-0.9 1.2,-1.1 4.2,-2.1 8.8,-1.9 13.4,-1.9 h 20.3 c 0.9,0 1.4,-0.2 2,-1 5.4,-7.7 10.8,-15.3 16.3,-23 1.1,-1.6 2.7,-2.4 4.6,-2.4 h 32.6 c 1.8,0 3.3,0.8 4.4,2.3 4.6,6.5 9.2,13 13.8,19.6 l 2.4,3.6 c 0.5,0.8 1,0.9 1.9,0.9 h 26.3 c 3,0 5.5,1.3 8.2,2.1 0.3,0.1 0.5,0.6 0.7,0.9 3.7,9.6 6.2,19.6 7.5,29.8 0.5,3.7 0.7,7.5 1,11.2 0,0.5 -0.3,1.2 -0.6,1.5 -1.7,1.8 -3.4,3.5 -5.2,5.3 1.7,1.8 3.3,3.6 5,5.2 0.7,0.7 0.9,1.4 0.9,2.3 -0.7,12.1 -2.8,23.9 -6.6,35.3 l -1.8,5.1 c -0.2,0.5 -0.7,0.9 -1.2,1.1 -3.5,1.5 -7.2,2 -11.1,1.9 -7.6,-0.2 -15.3,0 -22.9,-0.1 -0.9,0 -1.4,0.2 -1.9,0.9 -5.4,7.7 -10.8,15.5 -16.2,23.2 -1,1.4 -2.5,2.2 -4.2,2.2 h -33.1 c -1.7,0 -3.2,-0.8 -4.2,-2.2 -4.6,-6.5 -9.2,-13 -13.7,-19.5 -0.9,-1.2 -1.7,-2.5 -2.5,-3.8 -0.4,-0.6 -0.9,-0.8 -1.6,-0.8 h -13.8 c -4.8,0 -9.6,0.1 -14.4,-0.2 -2.2,-0.2 -4.4,-1.2 -6.6,-1.9 -0.3,-0.1 -0.4,-0.5 -0.6,-0.9 -3.4,-8.8 -5.8,-17.8 -7.1,-27.2 -0.6,-4.3 -0.9,-8.7 -1.4,-13 -0.1,-1.1 0.1,-2 1,-2.7 1.4,-1.3 3.1,-2.8 4.8,-4.5 z"
   id="path31"
   inkscape:label="path4"
   sodipodi:nodetypes="cccccssccsscccsscccccccccccccccsscccssccccccc"
   style="fill:#59a2dc;fill-opacity:0.07" /><path
   class="st2"
   d="m 311.569,194.854 c -3.6,0 -7.1,0 -10.7,0 -1.7,0 -3.2,-0.8 -4.2,-2.2 -4.6,-6.5 -9.2,-13.1 -13.8,-19.6 -0.8,-1.1 -0.8,-4.1 0.1,-5.3 2.5,-3.6 5.1,-7.2 7.6,-10.8 0.5,-0.7 1.1,-1 1.9,-1.3 2.5,-0.8 4.3,-0.1 6.3,1.5 11.3,8.8 19.9,19.7 26.5,32.3 0.1,0.3 0.3,0.6 0.2,0.9 -0.5,1.4 -1,2.8 -1.7,4.1 -0.1,0.3 -0.7,0.4 -1.1,0.4 -3.8,0 -7.5,0 -11.1,0 z"
   id="path32"
   style="fill:#59a2dc;fill-opacity:0.07" /><path
   class="st2"
   d="m 256.769,168.454 c -5.5,0 -11,0 -16.4,0 -1.8,0 -3.3,-0.8 -4.4,-2.3 -2.7,-3.8 -5.4,-7.7 -8.2,-11.5 -0.4,-0.6 -0.7,-1.2 -0.3,-1.9 0.1,-0.2 0.2,-0.5 0.2,-0.8 0.1,-2.5 1.7,-3.6 3.9,-4.4 17.6,-7 35.1,-6.7 52.4,0.9 0.8,0.3 1.1,0.9 1.4,1.6 1.1,2.6 0.6,4.7 -1.2,6.9 -2.4,2.9 -4.4,6.2 -6.6,9.3 -1,1.4 -2.5,2.2 -4.3,2.2 -5.5,0 -11,0 -16.5,0 z"
   id="path33"
   style="fill:#59a2dc;fill-opacity:0.07" /><path
   class="st2"
   d="m 256.769,330.954 c 5.4,0 10.9,0 16.3,0 1.8,0 3.3,0.8 4.4,2.2 2.8,3.9 5.5,7.7 8.2,11.7 0.3,0.4 0.4,1.2 0.3,1.7 -1,4 -1,4.1 -4.9,5.6 -17.2,6.7 -34.2,6.3 -51.2,-1 -1.1,-0.5 -1.5,-1.2 -1.9,-2.2 -0.8,-2.3 -0.5,-4.1 1.1,-6.1 2.5,-3.1 4.6,-6.5 7,-9.7 1,-1.4 2.5,-2.1 4.2,-2.2 5.5,-0.1 11,0 16.5,0 z"
   id="path34"
   style="fill:#59a2dc;fill-opacity:0.07" /><path
   class="st2"
   d="m 201.869,194.854 c -3.6,0 -7.3,0 -10.9,0 -0.8,0 -1.1,-0.3 -1.5,-1 -1.5,-2.6 -1.1,-4.8 0.4,-7.4 6.9,-11.9 15.5,-22.4 26.7,-30.6 0.8,-0.6 1.5,-0.7 2.5,-0.6 2.3,0.2 3.8,1.1 5.1,3.1 2,3.2 4.3,6.2 6.4,9.2 0.8,1.2 0.9,4.3 0,5.4 -4.6,6.5 -9.2,13.1 -13.8,19.6 -1,1.4 -2.4,2.1 -4.1,2.1 -3.6,0.2 -7.2,0.2 -10.8,0.2 z"
   id="path35"
   style="fill:#59a2dc;fill-opacity:0.07" /><path
   class="st2"
   d="m 311.569,304.554 c 3.6,0 7.3,0 10.9,0 0.8,0 1.2,0.2 1.5,1 1.5,3.8 1.6,3.8 -0.5,7.4 -6.7,11.9 -15.3,22.2 -26.4,30.4 -1,0.7 -1.9,0.8 -3.1,0.7 -2.2,-0.2 -3.5,-1.2 -4.6,-3 -2.1,-3.2 -4.4,-6.3 -6.6,-9.4 -0.8,-1.1 -0.8,-4.1 -0.1,-5.2 4.7,-6.6 9.3,-13.2 14,-19.8 0.9,-1.3 2.3,-2 3.9,-2 3.7,-0.2 7.4,-0.1 11,-0.1 z"
   id="path36"
   style="fill:#59a2dc;fill-opacity:0.07" /><path
   class="st2"
   d="m 201.969,304.554 c 3.6,0 7.2,0 10.8,0 1.7,0 3.1,0.8 4.1,2.1 4.6,6.5 9.2,13 13.8,19.6 0.7,1.1 0.8,4.2 0.1,5.2 -2.6,3.7 -5.2,7.5 -7.9,11.1 -0.3,0.4 -1,0.7 -1.5,0.9 -2.5,1 -4.4,0.2 -6.5,-1.4 -11.2,-8.8 -19.8,-19.7 -26.4,-32.2 -0.2,-0.3 -0.3,-0.8 -0.2,-1.1 0.4,-1.3 0.9,-2.6 1.5,-3.8 0.1,-0.3 0.8,-0.5 1.2,-0.5 3.6,0 7.3,0.1 11,0.1 z"
   id="path37"
   style="fill:#59a2dc;fill-opacity:0.07" /><path
   class="st2"
   d="m 157.79413,87.434752 c 8,15.599998 16,31.199998 24.1,46.899998 4,-4.2 7.9,-8.3 12,-12.5 1.1,2.6 2.1,5 3.1,7.5 2.50548,6.03171 5.01096,12.14954 7.51644,18.19366 l -18.18159,17.36263 c -0.65724,-1.28414 -1.32873,-2.6029 -2.03485,-3.95629 -4,4.5 -7.9,8.9 -12.1,13.6 -4.9,-29.1 -9.8,-58.1 -14.7,-86.999998 0.2,0 0.3,0 0.3,-0.1 z"
   id="path49"
   inkscape:label="bolt_l"
   sodipodi:nodetypes="cccccccccc"
   style="fill:#5ba2dc;fill-opacity:0.07;stroke-width:2;stroke:#4390c9;stroke-opacity:0.20663266"
   transform="translate(-0.08074978,-0.76149966)" /><path
   class="st2"
   d="m 336.19413,324.83475 c 4.9,29.1 9.8,58 14.6,86.8 -0.1,0 -0.2,0.1 -0.2,0.1 -8,-15.5 -16,-31.1 -24.1,-46.7 -4,4.2 -7.9,8.3 -12,12.5 -3.41965,-8.27078 -6.71281,-16.41506 -10.03036,-24.43286 l 17.48482,-18.82885 c 0.68142,1.40879 1.09083,2.33185 2.04554,4.16171 4.2,-4.6 8.1,-9 12.2,-13.6 z"
   id="path50"
   inkscape:label="bolt_r"
   sodipodi:nodetypes="ccccccccc"
   style="fill:#5ba2dc;fill-opacity:0.07;stroke-width:2;stroke:#4390c9;stroke-opacity:0.20663266"
   transform="translate(-0.08074978,-0.76149966)" /></g><g
   id="g46"
   inkscape:label="tint3"
   transform="translate(9.9302447,-1.1422494)">
		
	<path
   d="m 254.51925,370.5925 c -1.8,0 -3.7,0 -5.5,0 -0.3,-0.1 -0.6,-0.2 -0.9,-0.2 -11.1,-0.5 -21.5,-3.4 -31.4,-8.2 -0.7,-0.4 -1.2,-0.8 -1.3,-1.6 -0.5,-2 -1,-3.9 -1.6,-5.9 -1.1,0.2 -2,0.3 -3,0.5 -4.9,0.9 -4.9,0.9 -9,-2.1 -13.8,-10.5 -24.1,-23.9 -31.9,-39.3 -0.2,-0.4 -0.2,-1.2 0,-1.7 0.7,-1.8 1.4,-3.6 2.2,-5.5 -1.9,-0.6 -3.6,-1.2 -5.4,-1.7 -0.7,-0.2 -1.1,-0.6 -1.4,-1.3 -6.2,-15.7 -9.6,-32 -10.1,-48.8 0,-0.6 0.3,-1.2 0.7,-1.7 1.3,-1.4 2.6,-2.8 3.9,-4.1 -0.1,-0.2 -0.1,-0.3 -0.1,-0.3 -1.2,-1.3 -2.5,-2.6 -3.7,-3.9 -0.4,-0.5 -0.7,-1.2 -0.7,-1.7 0.6,-16.8 3.9,-33.1 10.1,-48.8 0.3,-0.7 0.7,-1.1 1.4,-1.3 1.8,-0.5 3.5,-1.1 5.4,-1.7 -0.8,-2 -1.6,-3.8 -2.3,-5.6 -0.2,-0.5 -0.2,-1.1 0.1,-1.5 1,-2 2,-3.9 3.1,-5.8 8.1,-14.2 18.6,-26.4 32,-35.8 0.7,-0.5 1.3,-0.6 2.1,-0.5 2.2,0.5 4.4,0.8 6.6,1.2 0.6,-2.1 1,-4.1 1.6,-6 0.2,-0.5 0.6,-1.2 1.1,-1.4 8.9,-4.4 18.3,-7.2 28.2,-8.1 1.5,-0.1 2.9,-0.3 4.4,-0.4 1.9,0 3.8,0 5.8,0 0.3,0.1 0.6,0.2 0.9,0.2 11,0.5 21.3,3.3 31.2,8.1 0.9,0.4 1.3,1 1.5,1.9 0.4,1.9 1,3.8 1.5,5.7 2.2,-0.4 4.4,-0.7 6.5,-1.1 1,-0.2 1.6,0 2.4,0.5 15.3,10.8 26.6,25 35,41.6 0.2,0.4 0.2,1 0,1.4 -0.7,1.9 -1.5,3.7 -2.2,5.6 1.8,0.6 3.5,1.2 5.2,1.7 0.8,0.2 1.3,0.6 1.6,1.5 5.5,13.8 8.7,28.1 9.8,42.9 0.1,1.6 0.3,3.2 0.4,4.9 0,0.6 0,1.3 0,1.9 -1.6,1.6 -3.1,3.2 -4.7,4.8 1.6,1.6 3.1,3.2 4.7,4.8 0,0.6 0,1.3 0,1.9 -0.1,0.3 -0.2,0.5 -0.2,0.8 -0.2,3.1 -0.4,6.1 -0.7,9.2 -1.4,13.1 -4.5,25.7 -9.3,37.9 -0.3,0.7 -0.6,1.1 -1.4,1.3 -1.8,0.5 -3.6,1.2 -5.4,1.7 0,0.2 0,0.3 0,0.3 0.7,1.7 1.3,3.3 2,5 0.3,0.8 0.4,1.4 -0.1,2.1 -0.9,1.6 -1.7,3.2 -2.5,4.8 -8.2,14.5 -18.7,27 -32.4,36.6 -0.7,0.5 -1.3,0.7 -2.2,0.5 -2.2,-0.5 -4.4,-0.8 -6.5,-1.1 -0.1,0.2 -0.2,0.3 -0.2,0.4 -0.5,1.9 -1,3.9 -1.6,5.8 -0.2,0.5 -0.6,1.1 -1,1.3 -8.9,4.4 -18.2,7.2 -28.1,8.1 -1.6,-0.1 -3.1,0.1 -4.6,0.2 z"
   id="path38"
   inkscape:label="path19"
   style="fill:#59a2dc;fill-opacity:0.07" /><path
   class="st2"
   d="m 254.51925,370.5925 c -1.8,0 -3.7,0 -5.5,0 -0.3,-0.1 -0.6,-0.2 -0.9,-0.2 -11.1,-0.5 -21.5,-3.4 -31.4,-8.2 -0.7,-0.4 -1.2,-0.8 -1.3,-1.6 -0.5,-2 -1,-3.9 -1.6,-5.9 -1.1,0.2 -2,0.3 -3,0.5 -4.9,0.9 -4.9,0.9 -9,-2.1 -13.8,-10.5 -24.1,-23.9 -31.9,-39.3 -0.2,-0.4 -0.2,-1.2 0,-1.7 0.7,-1.8 1.4,-3.6 2.2,-5.5 -1.9,-0.6 -3.6,-1.2 -5.4,-1.7 -0.7,-0.2 -1.1,-0.6 -1.4,-1.3 -6.2,-15.7 -9.6,-32 -10.1,-48.8 0,-0.6 0.3,-1.2 0.7,-1.7 1.3,-1.4 2.6,-2.8 3.9,-4.1 -0.1,-0.2 -0.1,-0.3 -0.1,-0.3 -1.2,-1.3 -2.5,-2.6 -3.7,-3.9 -0.4,-0.5 -0.7,-1.2 -0.7,-1.7 0.6,-16.8 3.9,-33.1 10.1,-48.8 0.3,-0.7 0.7,-1.1 1.4,-1.3 1.8,-0.5 3.5,-1.1 5.4,-1.7 -0.8,-2 -1.6,-3.8 -2.3,-5.6 -0.2,-0.5 -0.2,-1.1 0.1,-1.5 1,-2 2,-3.9 3.1,-5.8 8.1,-14.2 18.6,-26.4 32,-35.8 0.7,-0.5 1.3,-0.6 2.1,-0.5 2.2,0.5 4.4,0.8 6.6,1.2 0.6,-2.1 1,-4.1 1.6,-6 0.2,-0.5 0.6,-1.2 1.1,-1.4 8.9,-4.4 18.3,-7.2 28.2,-8.1 1.5,-0.1 2.9,-0.3 4.4,-0.4 1.9,0 3.8,0 5.8,0 0.3,0.1 0.6,0.2 0.9,0.2 11,0.5 21.3,3.3 31.2,8.1 0.9,0.4 1.3,1 1.5,1.9 0.4,1.9 1,3.8 1.5,5.7 2.2,-0.4 4.4,-0.7 6.5,-1.1 1,-0.2 1.6,0 2.4,0.5 15.3,10.8 26.6,25 35,41.6 0.2,0.4 0.2,1 0,1.4 -0.7,1.9 -1.5,3.7 -2.2,5.6 1.8,0.6 3.5,1.2 5.2,1.7 0.8,0.2 1.3,0.6 1.6,1.5 5.5,13.8 8.7,28.1 9.8,42.9 0.1,1.6 0.3,3.2 0.4,4.9 0,0.6 0,1.3 0,1.9 -1.6,1.6 -3.1,3.2 -4.7,4.8 1.6,1.6 3.1,3.2 4.7,4.8 0,0.6 0,1.3 0,1.9 -0.1,0.3 -0.2,0.5 -0.2,0.8 -0.2,3.1 -0.4,6.1 -0.7,9.2 -1.4,13.1 -4.5,25.7 -9.3,37.9 -0.3,0.7 -0.6,1.1 -1.4,1.3 -1.8,0.5 -3.6,1.2 -5.4,1.7 0,0.2 0,0.3 0,0.3 0.7,1.7 1.3,3.3 2,5 0.3,0.8 0.4,1.4 -0.1,2.1 -0.9,1.6 -1.7,3.2 -2.5,4.8 -8.2,14.5 -18.7,27 -32.4,36.6 -0.7,0.5 -1.3,0.7 -2.2,0.5 -2.2,-0.5 -4.4,-0.8 -6.5,-1.1 -0.1,0.2 -0.2,0.3 -0.2,0.4 -0.5,1.9 -1,3.9 -1.6,5.8 -0.2,0.5 -0.6,1.1 -1,1.3 -8.9,4.4 -18.2,7.2 -28.1,8.1 -1.6,-0.1 -3.1,0.1 -4.6,0.2 z m 30.8,-23.7 c 1.9,0.3 3.6,0.6 5.3,0.9 0.8,0.2 1.4,0 2.1,-0.5 14.2,-9.9 24.6,-23 32.3,-38.4 0.2,-0.4 0.2,-1.1 0,-1.6 -0.6,-1.6 -1.3,-3.3 -1.9,-5 1.7,-0.5 3.3,-1 4.8,-1.6 0.5,-0.2 1,-0.7 1.2,-1.1 0.9,-2.3 1.8,-4.7 2.6,-7.1 4.1,-12.4 6.3,-25.2 6.9,-38.3 0,-1 -0.2,-1.8 -1,-2.4 -1,-0.9 -2.1,-1.8 -3.2,-2.7 1.4,-1.4 2.4,-2.5 3.4,-3.5 0.5,-0.5 0.8,-1.1 0.7,-1.9 -0.3,-3.7 -0.5,-7.3 -0.9,-11 -1.3,-11.9 -4.1,-23.4 -8.6,-34.5 -0.2,-0.5 -0.8,-1.1 -1.4,-1.3 -1.5,-0.6 -3.1,-1.1 -4.7,-1.6 0.7,-1.7 1.4,-3.2 1.9,-4.8 0.2,-0.6 0.2,-1.4 -0.1,-1.9 -2.7,-4.7 -5.3,-9.4 -8.3,-13.9 -6.5,-9.6 -14.5,-17.8 -24,-24.3 -0.6,-0.4 -1.2,-0.6 -2,-0.4 -1.7,0.4 -3.5,0.6 -5.2,0.9 -0.1,-0.2 -0.2,-0.2 -0.2,-0.3 -0.4,-1.5 -0.8,-3.1 -1.3,-4.6 -0.1,-0.4 -0.5,-0.9 -0.9,-1.1 -9.6,-4.8 -19.8,-7.4 -30.6,-7.5 -11.2,-0.1 -21.9,2.5 -31.9,7.4 -0.4,0.2 -0.8,0.8 -0.9,1.2 -0.5,1.6 -0.9,3.2 -1.4,4.9 -1.7,-0.3 -3.4,-0.5 -5,-0.9 -1,-0.2 -1.7,0 -2.5,0.6 -14.2,9.9 -24.5,23.1 -32.3,38.4 -0.2,0.4 -0.2,0.9 0,1.3 0.6,1.7 1.3,3.3 2,5 -1.7,0.6 -3.2,1.1 -4.7,1.5 -0.8,0.2 -1.2,0.7 -1.5,1.4 -5.8,14.7 -8.8,29.9 -9.3,45.7 0,0.5 0.3,1.2 0.7,1.6 0.9,1.1 2,2.1 3.1,3.3 -1.1,1.1 -2.2,2.2 -3.1,3.3 -0.4,0.5 -0.7,1.2 -0.7,1.8 0.2,3.3 0.3,6.6 0.7,9.9 1.2,12.2 4.1,24.1 8.6,35.5 0.3,0.9 0.8,1.3 1.7,1.6 1.5,0.4 2.9,0.9 4.5,1.5 -0.7,1.7 -1.4,3.3 -1.9,4.9 -0.2,0.5 -0.2,1.2 0.1,1.6 1.8,3.4 3.6,6.8 5.6,10 7,11.2 15.8,20.9 26.8,28.4 0.5,0.3 1.2,0.5 1.8,0.4 1.8,-0.2 3.5,-0.6 5.2,-0.9 0.1,0.1 0.2,0.2 0.2,0.2 0.4,1.6 0.8,3.2 1.3,4.7 0.1,0.4 0.5,0.9 0.9,1.1 9.7,4.8 20.1,7.4 30.9,7.4 11.1,0 21.6,-2.5 31.5,-7.5 0.4,-0.2 0.8,-0.7 0.9,-1.1 0.9,-1.3 1.3,-3 1.8,-4.7 z"
   id="path39"
   style="fill:#59a2dc;fill-opacity:0.07;stroke-width:2;stroke:#4390c9;stroke-opacity:0.20663266" /><path
   class="st2"
   d="m 175.41925,249.1925 c -2.1,-2.2 -3.8,-4 -5.5,-5.8 -0.3,-0.4 -0.6,-1 -0.6,-1.5 0.7,-14.1 3.4,-27.7 8.5,-40.9 0.2,-0.5 0.7,-0.9 1.2,-1.1 4.2,-2.1 8.8,-1.9 13.4,-1.9 h 20.3 c 0.9,0 1.4,-0.2 2,-1 5.4,-7.7 10.8,-15.3 16.3,-23 1.1,-1.6 2.7,-2.4 4.6,-2.4 h 32.6 c 1.8,0 3.3,0.8 4.4,2.3 4.6,6.5 9.2,13 13.8,19.6 l 2.4,3.6 c 0.5,0.8 1,0.9 1.9,0.9 h 26.3 c 3,0 5.5,1.3 8.2,2.1 0.3,0.1 0.5,0.6 0.7,0.9 3.7,9.6 6.2,19.6 7.5,29.8 0.5,3.7 0.7,7.5 1,11.2 0,0.5 -0.3,1.2 -0.6,1.5 -1.7,1.8 -3.4,3.5 -5.2,5.3 1.7,1.8 3.3,3.6 5,5.2 0.7,0.7 0.9,1.4 0.9,2.3 -0.7,12.1 -2.8,23.9 -6.6,35.3 l -1.8,5.1 c -0.2,0.5 -0.7,0.9 -1.2,1.1 -3.5,1.5 -7.2,2 -11.1,1.9 -7.6,-0.2 -15.3,0 -22.9,-0.1 -0.9,0 -1.4,0.2 -1.9,0.9 -5.4,7.7 -10.8,15.5 -16.2,23.2 -1,1.4 -2.5,2.2 -4.2,2.2 h -33.1 c -1.7,0 -3.2,-0.8 -4.2,-2.2 -4.6,-6.5 -9.2,-13 -13.7,-19.5 -0.9,-1.2 -1.7,-2.5 -2.5,-3.8 -0.4,-0.6 -0.9,-0.8 -1.6,-0.8 h -13.8 c -4.8,0 -9.6,0.1 -14.4,-0.2 -2.2,-0.2 -4.4,-1.2 -6.6,-1.9 -0.3,-0.1 -0.4,-0.5 -0.6,-0.9 -3.4,-8.8 -5.8,-17.8 -7.1,-27.2 -0.6,-4.3 -0.9,-8.7 -1.4,-13 -0.1,-1.1 0.1,-2 1,-2.7 1.4,-1.3 3.1,-2.8 4.8,-4.5 z"
   id="path40"
   inkscape:label="path4"
   sodipodi:nodetypes="cccccssccsscccsscccccccccccccccsscccssccccccc"
   style="fill:#59a2dc;fill-opacity:0.07" /><path
   class="st2"
   d="m 306.61925,194.0925 c -3.6,0 -7.1,0 -10.7,0 -1.7,0 -3.2,-0.8 -4.2,-2.2 -4.6,-6.5 -9.2,-13.1 -13.8,-19.6 -0.8,-1.1 -0.8,-4.1 0.1,-5.3 2.5,-3.6 5.1,-7.2 7.6,-10.8 0.5,-0.7 1.1,-1 1.9,-1.3 2.5,-0.8 4.3,-0.1 6.3,1.5 11.3,8.8 19.9,19.7 26.5,32.3 0.1,0.3 0.3,0.6 0.2,0.9 -0.5,1.4 -1,2.8 -1.7,4.1 -0.1,0.3 -0.7,0.4 -1.1,0.4 -3.8,0 -7.5,0 -11.1,0 z"
   id="path41"
   style="fill:#59a2dc;fill-opacity:0.07" /><path
   class="st2"
   d="m 251.81925,167.6925 c -5.5,0 -11,0 -16.4,0 -1.8,0 -3.3,-0.8 -4.4,-2.3 -2.7,-3.8 -5.4,-7.7 -8.2,-11.5 -0.4,-0.6 -0.7,-1.2 -0.3,-1.9 0.1,-0.2 0.2,-0.5 0.2,-0.8 0.1,-2.5 1.7,-3.6 3.9,-4.4 17.6,-7 35.1,-6.7 52.4,0.9 0.8,0.3 1.1,0.9 1.4,1.6 1.1,2.6 0.6,4.7 -1.2,6.9 -2.4,2.9 -4.4,6.2 -6.6,9.3 -1,1.4 -2.5,2.2 -4.3,2.2 -5.5,0 -11,0 -16.5,0 z"
   id="path42"
   style="fill:#59a2dc;fill-opacity:0.07" /><path
   class="st2"
   d="m 251.81925,330.1925 c 5.4,0 10.9,0 16.3,0 1.8,0 3.3,0.8 4.4,2.2 2.8,3.9 5.5,7.7 8.2,11.7 0.3,0.4 0.4,1.2 0.3,1.7 -1,4 -1,4.1 -4.9,5.6 -17.2,6.7 -34.2,6.3 -51.2,-1 -1.1,-0.5 -1.5,-1.2 -1.9,-2.2 -0.8,-2.3 -0.5,-4.1 1.1,-6.1 2.5,-3.1 4.6,-6.5 7,-9.7 1,-1.4 2.5,-2.1 4.2,-2.2 5.5,-0.1 11,0 16.5,0 z"
   id="path43"
   style="fill:#59a2dc;fill-opacity:0.07" /><path
   class="st2"
   d="m 196.91925,194.0925 c -3.6,0 -7.3,0 -10.9,0 -0.8,0 -1.1,-0.3 -1.5,-1 -1.5,-2.6 -1.1,-4.8 0.4,-7.4 6.9,-11.9 15.5,-22.4 26.7,-30.6 0.8,-0.6 1.5,-0.7 2.5,-0.6 2.3,0.2 3.8,1.1 5.1,3.1 2,3.2 4.3,6.2 6.4,9.2 0.8,1.2 0.9,4.3 0,5.4 -4.6,6.5 -9.2,13.1 -13.8,19.6 -1,1.4 -2.4,2.1 -4.1,2.1 -3.6,0.2 -7.2,0.2 -10.8,0.2 z"
   id="path44"
   style="fill:#59a2dc;fill-opacity:0.07" /><path
   class="st2"
   d="m 306.61925,303.7925 c 3.6,0 7.3,0 10.9,0 0.8,0 1.2,0.2 1.5,1 1.5,3.8 1.6,3.8 -0.5,7.4 -6.7,11.9 -15.3,22.2 -26.4,30.4 -1,0.7 -1.9,0.8 -3.1,0.7 -2.2,-0.2 -3.5,-1.2 -4.6,-3 -2.1,-3.2 -4.4,-6.3 -6.6,-9.4 -0.8,-1.1 -0.8,-4.1 -0.1,-5.2 4.7,-6.6 9.3,-13.2 14,-19.8 0.9,-1.3 2.3,-2 3.9,-2 3.7,-0.2 7.4,-0.1 11,-0.1 z"
   id="path45"
   style="fill:#59a2dc;fill-opacity:0.07" /><path
   class="st2"
   d="m 197.01925,303.7925 c 3.6,0 7.2,0 10.8,0 1.7,0 3.1,0.8 4.1,2.1 4.6,6.5 9.2,13 13.8,19.6 0.7,1.1 0.8,4.2 0.1,5.2 -2.6,3.7 -5.2,7.5 -7.9,11.1 -0.3,0.4 -1,0.7 -1.5,0.9 -2.5,1 -4.4,0.2 -6.5,-1.4 -11.2,-8.8 -19.8,-19.7 -26.4,-32.2 -0.2,-0.3 -0.3,-0.8 -0.2,-1.1 0.4,-1.3 0.9,-2.6 1.5,-3.8 0.1,-0.3 0.8,-0.5 1.2,-0.5 3.6,0 7.3,0.1 11,0.1 z"
   id="path46"
   style="fill:#59a2dc;fill-opacity:0.07" /><path
   class="st2"
   d="m 161.41125,83.912816 c 8,15.599998 16,31.199994 24.1,46.899994 4,-4.2 7.9,-8.3 12,-12.5 1.1,2.6 2.1,5 3.1,7.5 2.50548,6.03171 5.01096,12.14954 7.51644,18.19366 L 189.9461,161.3691 c -0.65724,-1.28414 -1.32873,-2.6029 -2.03485,-3.95629 -4,4.5 -7.9,8.9 -12.1,13.6 -4.9,-29.1 -9.8,-58.1 -14.7,-86.999994 0.2,0 0.3,0 0.3,-0.1 z"
   id="path51"
   inkscape:label="bolt_l"
   sodipodi:nodetypes="cccccccccc"
   style="fill:#5ba2dc;fill-opacity:0.07;stroke:#4390c9;stroke-opacity:0.20663266;stroke-width:2"
   transform="translate(-12.264744,3.5219357)" /><path
   class="st2"
   d="m 339.81125,321.31281 c 4.9,29.1 9.8,58 14.6,86.8 -0.1,0 -0.2,0.1 -0.2,0.1 -8,-15.5 -16,-31.1 -24.1,-46.7 -4,4.2 -7.9,8.3 -12,12.5 -3.41965,-8.27078 -6.71281,-16.41506 -10.03036,-24.43286 l 17.48482,-18.82885 c 0.68142,1.40879 1.09083,2.33185 2.04554,4.16171 4.2,-4.6 8.1,-9 12.2,-13.6 z"
   id="path52"
   inkscape:label="bolt_r"
   sodipodi:nodetypes="ccccccccc"
   style="fill:#5ba2dc;fill-opacity:0.07;stroke:#4390c9;stroke-opacity:0.20663266;stroke-width:2"
   transform="translate(-12.264744,3.5219357)" /></g><g
   id="g61"
   inkscape:label="tint4"
   transform="translate(9.9302447,-1.1422494)">
		
	<path
   d="m 241.57376,377.06525 c -1.8,0 -3.7,0 -5.5,0 -0.3,-0.1 -0.6,-0.2 -0.9,-0.2 -11.1,-0.5 -21.5,-3.4 -31.4,-8.2 -0.7,-0.4 -1.2,-0.8 -1.3,-1.6 -0.5,-2 -1,-3.9 -1.6,-5.9 -1.1,0.2 -2,0.3 -3,0.5 -4.9,0.9 -4.9,0.9 -9,-2.1 -13.8,-10.5 -24.1,-23.9 -31.9,-39.3 -0.2,-0.4 -0.2,-1.2 0,-1.7 0.7,-1.8 1.4,-3.6 2.2,-5.5 -1.9,-0.6 -3.6,-1.2 -5.4,-1.7 -0.7,-0.2 -1.1,-0.6 -1.4,-1.3 -6.2,-15.7 -9.6,-32 -10.1,-48.8 0,-0.6 0.3,-1.2 0.7,-1.7 1.3,-1.4 2.6,-2.8 3.9,-4.1 -0.1,-0.2 -0.1,-0.3 -0.1,-0.3 -1.2,-1.3 -2.5,-2.6 -3.7,-3.9 -0.4,-0.5 -0.7,-1.2 -0.7,-1.7 0.6,-16.8 3.9,-33.1 10.1,-48.8 0.3,-0.7 0.7,-1.1 1.4,-1.3 1.8,-0.5 3.5,-1.1 5.4,-1.7 -0.8,-2 -1.6,-3.8 -2.3,-5.6 -0.2,-0.5 -0.2,-1.1 0.1,-1.5 1,-2 2,-3.9 3.1,-5.8 8.1,-14.2 18.6,-26.4 32,-35.8 0.7,-0.5 1.3,-0.6 2.1,-0.5 2.2,0.5 4.4,0.8 6.6,1.2 0.6,-2.1 1,-4.1 1.6,-6 0.2,-0.5 0.6,-1.2 1.1,-1.4 8.9,-4.4 18.3,-7.2 28.2,-8.1 1.5,-0.1 2.9,-0.3 4.4,-0.4 1.9,0 3.8,0 5.8,0 0.3,0.1 0.6,0.2 0.9,0.2 11,0.5 21.3,3.3 31.2,8.1 0.9,0.4 1.3,1 1.5,1.9 0.4,1.9 1,3.8 1.5,5.7 2.2,-0.4 4.4,-0.7 6.5,-1.1 1,-0.2 1.6,0 2.4,0.5 15.3,10.8 26.6,25 35,41.6 0.2,0.4 0.2,1 0,1.4 -0.7,1.9 -1.5,3.7 -2.2,5.6 1.8,0.6 3.5,1.2 5.2,1.7 0.8,0.2 1.3,0.6 1.6,1.5 5.5,13.8 8.7,28.1 9.8,42.9 0.1,1.6 0.3,3.2 0.4,4.9 0,0.6 0,1.3 0,1.9 -1.6,1.6 -3.1,3.2 -4.7,4.8 1.6,1.6 3.1,3.2 4.7,4.8 0,0.6 0,1.3 0,1.9 -0.1,0.3 -0.2,0.5 -0.2,0.8 -0.2,3.1 -0.4,6.1 -0.7,9.2 -1.4,13.1 -4.5,25.7 -9.3,37.9 -0.3,0.7 -0.6,1.1 -1.4,1.3 -1.8,0.5 -3.6,1.2 -5.4,1.7 0,0.2 0,0.3 0,0.3 0.7,1.7 1.3,3.3 2,5 0.3,0.8 0.4,1.4 -0.1,2.1 -0.9,1.6 -1.7,3.2 -2.5,4.8 -8.2,14.5 -18.7,27 -32.4,36.6 -0.7,0.5 -1.3,0.7 -2.2,0.5 -2.2,-0.5 -4.4,-0.8 -6.5,-1.1 -0.1,0.2 -0.2,0.3 -0.2,0.4 -0.5,1.9 -1,3.9 -1.6,5.8 -0.2,0.5 -0.6,1.1 -1,1.3 -8.9,4.4 -18.2,7.2 -28.1,8.1 -1.6,-0.1 -3.1,0.1 -4.6,0.2 z"
   id="path53"
   inkscape:label="path19"
   style="fill:#59a2dc;fill-opacity:0.07" /><path
   class="st2"
   d="m 241.57376,377.06525 c -1.8,0 -3.7,0 -5.5,0 -0.3,-0.1 -0.6,-0.2 -0.9,-0.2 -11.1,-0.5 -21.5,-3.4 -31.4,-8.2 -0.7,-0.4 -1.2,-0.8 -1.3,-1.6 -0.5,-2 -1,-3.9 -1.6,-5.9 -1.1,0.2 -2,0.3 -3,0.5 -4.9,0.9 -4.9,0.9 -9,-2.1 -13.8,-10.5 -24.1,-23.9 -31.9,-39.3 -0.2,-0.4 -0.2,-1.2 0,-1.7 0.7,-1.8 1.4,-3.6 2.2,-5.5 -1.9,-0.6 -3.6,-1.2 -5.4,-1.7 -0.7,-0.2 -1.1,-0.6 -1.4,-1.3 -6.2,-15.7 -9.6,-32 -10.1,-48.8 0,-0.6 0.3,-1.2 0.7,-1.7 1.3,-1.4 2.6,-2.8 3.9,-4.1 -0.1,-0.2 -0.1,-0.3 -0.1,-0.3 -1.2,-1.3 -2.5,-2.6 -3.7,-3.9 -0.4,-0.5 -0.7,-1.2 -0.7,-1.7 0.6,-16.8 3.9,-33.1 10.1,-48.8 0.3,-0.7 0.7,-1.1 1.4,-1.3 1.8,-0.5 3.5,-1.1 5.4,-1.7 -0.8,-2 -1.6,-3.8 -2.3,-5.6 -0.2,-0.5 -0.2,-1.1 0.1,-1.5 1,-2 2,-3.9 3.1,-5.8 8.1,-14.2 18.6,-26.4 32,-35.8 0.7,-0.5 1.3,-0.6 2.1,-0.5 2.2,0.5 4.4,0.8 6.6,1.2 0.6,-2.1 1,-4.1 1.6,-6 0.2,-0.5 0.6,-1.2 1.1,-1.4 8.9,-4.4 18.3,-7.2 28.2,-8.1 1.5,-0.1 2.9,-0.3 4.4,-0.4 1.9,0 3.8,0 5.8,0 0.3,0.1 0.6,0.2 0.9,0.2 11,0.5 21.3,3.3 31.2,8.1 0.9,0.4 1.3,1 1.5,1.9 0.4,1.9 1,3.8 1.5,5.7 2.2,-0.4 4.4,-0.7 6.5,-1.1 1,-0.2 1.6,0 2.4,0.5 15.3,10.8 26.6,25 35,41.6 0.2,0.4 0.2,1 0,1.4 -0.7,1.9 -1.5,3.7 -2.2,5.6 1.8,0.6 3.5,1.2 5.2,1.7 0.8,0.2 1.3,0.6 1.6,1.5 5.5,13.8 8.7,28.1 9.8,42.9 0.1,1.6 0.3,3.2 0.4,4.9 0,0.6 0,1.3 0,1.9 -1.6,1.6 -3.1,3.2 -4.7,4.8 1.6,1.6 3.1,3.2 4.7,4.8 0,0.6 0,1.3 0,1.9 -0.1,0.3 -0.2,0.5 -0.2,0.8 -0.2,3.1 -0.4,6.1 -0.7,9.2 -1.4,13.1 -4.5,25.7 -9.3,37.9 -0.3,0.7 -0.6,1.1 -1.4,1.3 -1.8,0.5 -3.6,1.2 -5.4,1.7 0,0.2 0,0.3 0,0.3 0.7,1.7 1.3,3.3 2,5 0.3,0.8 0.4,1.4 -0.1,2.1 -0.9,1.6 -1.7,3.2 -2.5,4.8 -8.2,14.5 -18.7,27 -32.4,36.6 -0.7,0.5 -1.3,0.7 -2.2,0.5 -2.2,-0.5 -4.4,-0.8 -6.5,-1.1 -0.1,0.2 -0.2,0.3 -0.2,0.4 -0.5,1.9 -1,3.9 -1.6,5.8 -0.2,0.5 -0.6,1.1 -1,1.3 -8.9,4.4 -18.2,7.2 -28.1,8.1 -1.6,-0.1 -3.1,0.1 -4.6,0.2 z m 30.8,-23.7 c 1.9,0.3 3.6,0.6 5.3,0.9 0.8,0.2 1.4,0 2.1,-0.5 14.2,-9.9 24.6,-23 32.3,-38.4 0.2,-0.4 0.2,-1.1 0,-1.6 -0.6,-1.6 -1.3,-3.3 -1.9,-5 1.7,-0.5 3.3,-1 4.8,-1.6 0.5,-0.2 1,-0.7 1.2,-1.1 0.9,-2.3 1.8,-4.7 2.6,-7.1 4.1,-12.4 6.3,-25.2 6.9,-38.3 0,-1 -0.2,-1.8 -1,-2.4 -1,-0.9 -2.1,-1.8 -3.2,-2.7 1.4,-1.4 2.4,-2.5 3.4,-3.5 0.5,-0.5 0.8,-1.1 0.7,-1.9 -0.3,-3.7 -0.5,-7.3 -0.9,-11 -1.3,-11.9 -4.1,-23.4 -8.6,-34.5 -0.2,-0.5 -0.8,-1.1 -1.4,-1.3 -1.5,-0.6 -3.1,-1.1 -4.7,-1.6 0.7,-1.7 1.4,-3.2 1.9,-4.8 0.2,-0.6 0.2,-1.4 -0.1,-1.9 -2.7,-4.7 -5.3,-9.4 -8.3,-13.9 -6.5,-9.6 -14.5,-17.8 -24,-24.3 -0.6,-0.4 -1.2,-0.6 -2,-0.4 -1.7,0.4 -3.5,0.6 -5.2,0.9 -0.1,-0.2 -0.2,-0.2 -0.2,-0.3 -0.4,-1.5 -0.8,-3.1 -1.3,-4.6 -0.1,-0.4 -0.5,-0.9 -0.9,-1.1 -9.6,-4.8 -19.8,-7.4 -30.6,-7.5 -11.2,-0.1 -21.9,2.5 -31.9,7.4 -0.4,0.2 -0.8,0.8 -0.9,1.2 -0.5,1.6 -0.9,3.2 -1.4,4.9 -1.7,-0.3 -3.4,-0.5 -5,-0.9 -1,-0.2 -1.7,0 -2.5,0.6 -14.2,9.9 -24.5,23.1 -32.3,38.4 -0.2,0.4 -0.2,0.9 0,1.3 0.6,1.7 1.3,3.3 2,5 -1.7,0.6 -3.2,1.1 -4.7,1.5 -0.8,0.2 -1.2,0.7 -1.5,1.4 -5.8,14.7 -8.8,29.9 -9.3,45.7 0,0.5 0.3,1.2 0.7,1.6 0.9,1.1 2,2.1 3.1,3.3 -1.1,1.1 -2.2,2.2 -3.1,3.3 -0.4,0.5 -0.7,1.2 -0.7,1.8 0.2,3.3 0.3,6.6 0.7,9.9 1.2,12.2 4.1,24.1 8.6,35.5 0.3,0.9 0.8,1.3 1.7,1.6 1.5,0.4 2.9,0.9 4.5,1.5 -0.7,1.7 -1.4,3.3 -1.9,4.9 -0.2,0.5 -0.2,1.2 0.1,1.6 1.8,3.4 3.6,6.8 5.6,10 7,11.2 15.8,20.9 26.8,28.4 0.5,0.3 1.2,0.5 1.8,0.4 1.8,-0.2 3.5,-0.6 5.2,-0.9 0.1,0.1 0.2,0.2 0.2,0.2 0.4,1.6 0.8,3.2 1.3,4.7 0.1,0.4 0.5,0.9 0.9,1.1 9.7,4.8 20.1,7.4 30.9,7.4 11.1,0 21.6,-2.5 31.5,-7.5 0.4,-0.2 0.8,-0.7 0.9,-1.1 0.9,-1.3 1.3,-3 1.8,-4.7 z"
   id="path54"
   style="fill:#59a2dc;fill-opacity:0.07;stroke:#4390c9;stroke-opacity:0.20663266;stroke-width:2" /><path
   class="st2"
   d="m 162.47376,255.66525 c -2.1,-2.2 -3.8,-4 -5.5,-5.8 -0.3,-0.4 -0.6,-1 -0.6,-1.5 0.7,-14.1 3.4,-27.7 8.5,-40.9 0.2,-0.5 0.7,-0.9 1.2,-1.1 4.2,-2.1 8.8,-1.9 13.4,-1.9 h 20.3 c 0.9,0 1.4,-0.2 2,-1 5.4,-7.7 10.8,-15.3 16.3,-23 1.1,-1.6 2.7,-2.4 4.6,-2.4 h 32.6 c 1.8,0 3.3,0.8 4.4,2.3 4.6,6.5 9.2,13 13.8,19.6 l 2.4,3.6 c 0.5,0.8 1,0.9 1.9,0.9 h 26.3 c 3,0 5.5,1.3 8.2,2.1 0.3,0.1 0.5,0.6 0.7,0.9 3.7,9.6 6.2,19.6 7.5,29.8 0.5,3.7 0.7,7.5 1,11.2 0,0.5 -0.3,1.2 -0.6,1.5 -1.7,1.8 -3.4,3.5 -5.2,5.3 1.7,1.8 3.3,3.6 5,5.2 0.7,0.7 0.9,1.4 0.9,2.3 -0.7,12.1 -2.8,23.9 -6.6,35.3 l -1.8,5.1 c -0.2,0.5 -0.7,0.9 -1.2,1.1 -3.5,1.5 -7.2,2 -11.1,1.9 -7.6,-0.2 -15.3,0 -22.9,-0.1 -0.9,0 -1.4,0.2 -1.9,0.9 -5.4,7.7 -10.8,15.5 -16.2,23.2 -1,1.4 -2.5,2.2 -4.2,2.2 h -33.1 c -1.7,0 -3.2,-0.8 -4.2,-2.2 -4.6,-6.5 -9.2,-13 -13.7,-19.5 -0.9,-1.2 -1.7,-2.5 -2.5,-3.8 -0.4,-0.6 -0.9,-0.8 -1.6,-0.8 h -13.8 c -4.8,0 -9.6,0.1 -14.4,-0.2 -2.2,-0.2 -4.4,-1.2 -6.6,-1.9 -0.3,-0.1 -0.4,-0.5 -0.6,-0.9 -3.4,-8.8 -5.8,-17.8 -7.1,-27.2 -0.6,-4.3 -0.9,-8.7 -1.4,-13 -0.1,-1.1 0.1,-2 1,-2.7 1.4,-1.3 3.1,-2.8 4.8,-4.5 z"
   id="path55"
   inkscape:label="path4"
   sodipodi:nodetypes="cccccssccsscccsscccccccccccccccsscccssccccccc"
   style="fill:#59a2dc;fill-opacity:0.07" /><path
   class="st2"
   d="m 293.67376,200.56525 c -3.6,0 -7.1,0 -10.7,0 -1.7,0 -3.2,-0.8 -4.2,-2.2 -4.6,-6.5 -9.2,-13.1 -13.8,-19.6 -0.8,-1.1 -0.8,-4.1 0.1,-5.3 2.5,-3.6 5.1,-7.2 7.6,-10.8 0.5,-0.7 1.1,-1 1.9,-1.3 2.5,-0.8 4.3,-0.1 6.3,1.5 11.3,8.8 19.9,19.7 26.5,32.3 0.1,0.3 0.3,0.6 0.2,0.9 -0.5,1.4 -1,2.8 -1.7,4.1 -0.1,0.3 -0.7,0.4 -1.1,0.4 -3.8,0 -7.5,0 -11.1,0 z"
   id="path56"
   style="fill:#59a2dc;fill-opacity:0.07" /><path
   class="st2"
   d="m 238.87376,174.16525 c -5.5,0 -11,0 -16.4,0 -1.8,0 -3.3,-0.8 -4.4,-2.3 -2.7,-3.8 -5.4,-7.7 -8.2,-11.5 -0.4,-0.6 -0.7,-1.2 -0.3,-1.9 0.1,-0.2 0.2,-0.5 0.2,-0.8 0.1,-2.5 1.7,-3.6 3.9,-4.4 17.6,-7 35.1,-6.7 52.4,0.9 0.8,0.3 1.1,0.9 1.4,1.6 1.1,2.6 0.6,4.7 -1.2,6.9 -2.4,2.9 -4.4,6.2 -6.6,9.3 -1,1.4 -2.5,2.2 -4.3,2.2 -5.5,0 -11,0 -16.5,0 z"
   id="path57"
   style="fill:#59a2dc;fill-opacity:0.07" /><path
   class="st2"
   d="m 238.87376,336.66525 c 5.4,0 10.9,0 16.3,0 1.8,0 3.3,0.8 4.4,2.2 2.8,3.9 5.5,7.7 8.2,11.7 0.3,0.4 0.4,1.2 0.3,1.7 -1,4 -1,4.1 -4.9,5.6 -17.2,6.7 -34.2,6.3 -51.2,-1 -1.1,-0.5 -1.5,-1.2 -1.9,-2.2 -0.8,-2.3 -0.5,-4.1 1.1,-6.1 2.5,-3.1 4.6,-6.5 7,-9.7 1,-1.4 2.5,-2.1 4.2,-2.2 5.5,-0.1 11,0 16.5,0 z"
   id="path58"
   style="fill:#59a2dc;fill-opacity:0.07" /><path
   class="st2"
   d="m 183.97376,200.56525 c -3.6,0 -7.3,0 -10.9,0 -0.8,0 -1.1,-0.3 -1.5,-1 -1.5,-2.6 -1.1,-4.8 0.4,-7.4 6.9,-11.9 15.5,-22.4 26.7,-30.6 0.8,-0.6 1.5,-0.7 2.5,-0.6 2.3,0.2 3.8,1.1 5.1,3.1 2,3.2 4.3,6.2 6.4,9.2 0.8,1.2 0.9,4.3 0,5.4 -4.6,6.5 -9.2,13.1 -13.8,19.6 -1,1.4 -2.4,2.1 -4.1,2.1 -3.6,0.2 -7.2,0.2 -10.8,0.2 z"
   id="path59"
   style="fill:#59a2dc;fill-opacity:0.07" /><path
   class="st2"
   d="m 293.67376,310.26525 c 3.6,0 7.3,0 10.9,0 0.8,0 1.2,0.2 1.5,1 1.5,3.8 1.6,3.8 -0.5,7.4 -6.7,11.9 -15.3,22.2 -26.4,30.4 -1,0.7 -1.9,0.8 -3.1,0.7 -2.2,-0.2 -3.5,-1.2 -4.6,-3 -2.1,-3.2 -4.4,-6.3 -6.6,-9.4 -0.8,-1.1 -0.8,-4.1 -0.1,-5.2 4.7,-6.6 9.3,-13.2 14,-19.8 0.9,-1.3 2.3,-2 3.9,-2 3.7,-0.2 7.4,-0.1 11,-0.1 z"
   id="path60"
   style="fill:#59a2dc;fill-opacity:0.07" /><path
   class="st2"
   d="m 184.07376,310.26525 c 3.6,0 7.2,0 10.8,0 1.7,0 3.1,0.8 4.1,2.1 4.6,6.5 9.2,13 13.8,19.6 0.7,1.1 0.8,4.2 0.1,5.2 -2.6,3.7 -5.2,7.5 -7.9,11.1 -0.3,0.4 -1,0.7 -1.5,0.9 -2.5,1 -4.4,0.2 -6.5,-1.4 -11.2,-8.8 -19.8,-19.7 -26.4,-32.2 -0.2,-0.3 -0.3,-0.8 -0.2,-1.1 0.4,-1.3 0.9,-2.6 1.5,-3.8 0.1,-0.3 0.8,-0.5 1.2,-0.5 3.6,0 7.3,0.1 11,0.1 z"
   id="path61"
   style="fill:#59a2dc;fill-opacity:0.07" /><path
   class="st2"
   d="m 156.65188,89.814438 c 8,15.600002 16,31.199992 24.1,46.899992 4,-4.2 7.9,-8.3 12,-12.5 1.1,2.6 2.1,5 3.1,7.5 2.50548,6.03171 5.01096,12.14954 7.51644,18.19366 l -18.18159,17.36263 c -0.65724,-1.28414 -1.32873,-2.6029 -2.03485,-3.95629 -4,4.5 -7.9,8.9 -12.1,13.6 -4.9,-29.1 -9.8,-58.1 -14.7,-86.999992 0.2,0 0.3,0 0.3,-0.1 z"
   id="path71"
   inkscape:label="bolt_l"
   sodipodi:nodetypes="cccccccccc"
   style="fill:#5ba2dc;fill-opacity:0.07;stroke-width:2;stroke:#4390c9;stroke-opacity:0.20663266"
   transform="translate(-12.264744,3.5219357)" /><path
   class="st2"
   d="m 335.05188,327.21443 c 4.9,29.1 9.8,58 14.6,86.8 -0.1,0 -0.2,0.1 -0.2,0.1 -8,-15.5 -16,-31.1 -24.1,-46.7 -4,4.2 -7.9,8.3 -12,12.5 -3.41965,-8.27078 -6.71281,-16.41506 -10.03036,-24.43286 l 17.48482,-18.82885 c 0.68142,1.40879 1.09083,2.33185 2.04554,4.16171 4.2,-4.6 8.1,-9 12.2,-13.6 z"
   id="path72"
   inkscape:label="bolt_r"
   sodipodi:nodetypes="ccccccccc"
   style="fill:#5ba2dc;fill-opacity:0.07;stroke-width:2;stroke:#4390c9;stroke-opacity:0.20663266"
   transform="translate(-12.264744,3.5219357)" /></g><g
   id="g3"
   inkscape:label="text"
   style="enable-background:new 0 0 504 504"><path
     id="text13"
     style="-inkscape-font-specification:'Dune Rise, Normal';fill:#f5d793"
     inkscape:label="umdctf"
     d="m 240.65039,220.43164 c -3.86077,0.10094 -7.72481,0.25145 -11.5918,0.45703 l -0.3789,0.0195 0.24804,4.63086 0.37696,-0.0215 c 3.82502,-0.20345 7.64831,-0.35488 11.46875,-0.45508 1.25783,-0.033 2.42125,0.23485 3.50195,0.80078 0.003,0.001 0.005,0.003 0.008,0.004 0,0 -0.0842,-0.0411 0.006,0.004 h 0.002 c 1.07206,0.55039 1.90516,1.313 2.51953,2.29688 l 0.002,0.006 c 9.7e-4,0.002 0.003,0.002 0.004,0.004 l 0.004,0.008 0.002,0.004 0.002,0.002 v 0.002 c 0.62565,0.98435 0.94142,2.05998 0.95312,3.22461 0.0115,1.15411 -0.27713,2.22574 -0.85937,3.21875 l -0.008,0.0156 c -0.002,0.003 -0.004,0.006 -0.006,0.01 -7.6e-4,0.001 -0.001,0.003 -0.002,0.004 l -0.002,0.002 v 0.002 l -0.006,0.008 v 0.002 l -0.006,0.01 c 0,0 0.0411,-0.0842 -0.004,0.006 -0.58296,0.99954 -1.38074,1.79523 -2.4043,2.39649 -1.02592,0.58735 -2.14373,0.89945 -3.36524,0.93164 -3.70804,0.0977 -7.41646,0.24249 -11.125,0.43945 l -0.37695,0.0195 0.24414,4.62695 0.37695,-0.0195 c 3.6668,-0.19466 7.33606,-0.3407 11.00391,-0.4375 3.12665,-0.0825 5.81384,-1.20865 8.02149,-3.38086 2.23501,-2.19915 3.35443,-4.77287 3.35156,-7.87695 -0.003,-3.06155 -1.1614,-5.72059 -3.48633,-7.86133 -2.32345,-2.13936 -5.18949,-3.18761 -8.47461,-3.10156 z m 25.87695,0.0488 c -3.33296,-0.1024 -6.12973,0.90857 -8.49414,3.0664 -2.33547,2.1314 -3.5082,4.7857 -3.52343,7.84766 -0.0155,3.1042 1.0934,5.68022 3.32031,7.88867 2.22908,2.21063 4.83921,3.32205 8.00976,3.41992 3.67045,0.11331 7.34211,0.27535 11.01172,0.49024 l 0.37696,0.0215 0.26953,-4.625 -0.37696,-0.0215 c -3.71324,-0.21764 -7.42703,-0.38162 -11.13867,-0.49609 -1.22304,-0.0377 -2.33669,-0.35321 -3.36133,-0.94532 l -0.006,-0.002 -0.004,-0.002 -0.01,-0.006 c 0,0 0.0842,0.0411 -0.006,-0.004 -1.01538,-0.6081 -1.81577,-1.40864 -2.40625,-2.4082 l -0.002,-0.004 -0.004,-0.006 c -7.3e-4,-0.001 -0.001,-0.003 -0.002,-0.004 l -0.006,-0.01 c -0.56945,-1.00029 -0.84858,-2.07659 -0.83203,-3.24414 0.0166,-1.1726 0.32953,-2.24273 0.94531,-3.22656 l 0.004,-0.006 c 0.002,-0.003 0.004,-0.007 0.006,-0.01 0.63322,-0.97888 1.47898,-1.7379 2.54883,-2.2832 l 0.0117,-0.006 0.002,-0.002 0.0117,-0.006 c 0.002,-9.6e-4 0.004,-0.001 0.006,-0.002 1.07896,-0.5591 2.24278,-0.82197 3.5039,-0.7832 3.82687,0.11767 7.66129,0.28825 11.4961,0.51367 l 0.37695,0.0234 0.26758,-4.63086 -0.37696,-0.0215 c -3.87846,-0.22794 -7.7509,-0.399 -11.61914,-0.51758 z m 13.98438,0.66406 -0.30078,4.625 0.37695,0.0254 c 3.01334,0.19763 6.02927,0.43528 9.04492,0.70313 l -1.5625,17.51953 0.37696,0.0332 c 1.33146,0.11904 2.66181,0.24527 3.99218,0.37891 l 0.375,0.0371 1.75391,-17.49805 c 3.01682,0.3073 6.03452,0.64593 9.05078,1.02734 l 0.375,0.0469 0.57813,-4.59766 -0.375,-0.0469 c -7.774,-0.98355 -15.54682,-1.71912 -23.30665,-2.22852 z m -61.90039,0.43164 c -1.45607,0.11401 -2.79278,0.56595 -3.98438,1.35352 -0.55782,0.36867 -1.02842,0.8009 -1.45312,1.26758 -0.50207,-0.38028 -1.04166,-0.7191 -1.65039,-0.97657 -1.30729,-0.56426 -2.7067,-0.76148 -4.17578,-0.60547 -2.20846,0.23454 -4.05582,1.20116 -5.45313,2.8418 -1.41234,1.65832 -1.96247,3.46924 -1.70117,5.55078 l 1.83203,14.59766 0.375,-0.0469 c 1.31798,-0.16558 2.63782,-0.32506 3.95703,-0.47656 l 0.375,-0.043 -1.67773,-14.61523 c -0.0855,-0.74514 0.14094,-1.47772 0.67968,-2.10547 0.55641,-0.64834 1.24441,-1.00688 2.09961,-1.09766 0.84827,-0.09 1.65371,0.13157 2.30664,0.62891 0.68064,0.51842 1.02664,1.14443 1.10157,1.91797 l 1.41992,14.64453 0.37695,-0.0352 c 1.32146,-0.12817 2.64278,-0.25072 3.96485,-0.36523 l 0.375,-0.0332 -1.26563,-14.66016 c -0.0675,-0.78025 0.15544,-1.46021 0.70703,-2.08399 0.56909,-0.62842 1.27164,-0.96835 2.15039,-1.0371 0.8337,-0.0652 1.60183,0.16926 2.21289,0.6582 l 0.043,0.0352 c 0.64195,0.51853 0.99682,1.19621 1.04883,1.94532 l 1.01758,14.68164 0.37695,-0.0254 c 1.32405,-0.092 2.64975,-0.177 3.97461,-0.25586 l 0.37891,-0.0215 -0.875,-14.6914 c -0.12452,-2.09429 -0.99331,-3.77681 -2.66992,-5.14258 -1.68608,-1.39266 -3.60272,-1.98199 -5.86719,-1.80469 z m 87.95898,2.12891 -0.61328,4.59375 0.37305,0.0508 c 7.67565,1.02867 15.34709,2.30418 22.99414,3.84766 l 0.36914,0.0742 0.92187,-4.54101 -0.37109,-0.0762 c -7.75373,-1.56377 -15.52517,-2.85624 -23.29883,-3.89844 z m -109.29883,0.10742 -0.375,0.0488 c -1.39652,0.18567 -2.79201,0.37922 -4.1875,0.58008 l -0.37304,0.0547 1.58008,11 c 0.16504,1.14784 0.0173,2.25507 -0.4375,3.32227 -0.001,0.003 -5.7e-4,0.001 -0.002,0.004 -0.001,0.003 -0.002,0.006 -0.004,0.01 -0.005,0.01 -0.002,0.007 -0.006,0.0156 -0.44739,1.07291 -1.13919,1.97111 -2.08203,2.70898 -0.94614,0.72369 -2.01496,1.18369 -3.23047,1.38281 -1.20495,0.19739 -2.35724,0.10581 -3.47657,-0.26953 -0.001,-4e-4 -0.003,4.1e-4 -0.004,0 -0.007,-0.002 -0.013,-0.004 -0.0195,-0.006 l -0.008,-0.002 c -1.12505,-0.39715 -2.07355,-1.02616 -2.85546,-1.89063 -0.004,-0.005 -0.009,-0.009 -0.0137,-0.0137 v -0.002 c -0.76776,-0.8746 -1.25982,-1.87815 -1.47265,-3.03125 l -2.01758,-10.92774 -0.37109,0.0684 c -1.37806,0.25354 -2.75418,0.514 -4.13086,0.78321 h -0.42969 l 2.1582,10.98633 c 0.59874,3.04642 2.20675,5.35483 4.83594,7.08203 2.59664,1.7058 5.4571,2.30013 8.55273,1.79297 3.13747,-0.51403 5.58627,-1.95121 7.52344,-4.42969 1.9351,-2.47583 2.71695,-5.1725 2.30859,-8.25 z m 108.13672,8.59961 -1.78125,13.32031 0.37305,0.0508 c 1.31943,0.17651 2.63948,0.35888 3.95703,0.55078 l 0.375,0.0547 1.26367,-8.6875 c 4.19078,0.61527 8.37611,1.30359 12.55274,2.07617 l 0.37109,0.0684 0.84961,-4.57617 -0.37305,-0.0684 c -5.72752,-1.05891 -11.46614,-1.97044 -17.21289,-2.74023 z" /><path
     id="text1"
     style="-inkscape-font-specification:'Dune Rise, Normal';fill:#f5d793"
     d="m 202.36866,254.72277 0.66077,5.12873 c 4.49885,-0.57929 9.01102,-1.07261 13.53302,-1.48366 0.8745,-0.0795 1.64018,0.15521 2.33052,0.72469 0.006,0.005 0.0125,0.009 0.0186,0.0141 0.004,0.004 0.008,0.008 0.0127,0.0127 0.66594,0.54373 1.06966,1.31695 1.14584,2.24282 0.0715,0.86847 -0.19138,1.70279 -0.7647,2.38454 -0.58031,0.6897 -1.28507,1.05715 -2.15012,1.13569 -1.7141,0.15561 -3.42648,0.32324 -5.13693,0.50307 -2.22284,0.23371 -4.07005,1.28292 -5.45002,3.08425 -1.41434,1.84621 -1.92683,3.89441 -1.62272,6.25482 l 1.08048,8.38649 c 6.78328,-0.87151 13.61759,-1.53438 20.48826,-2.00417 l -0.35477,-5.15868 c -5.34739,0.36603 -10.67548,0.84774 -15.97766,1.45214 l -0.37351,-3.26556 c -0.10031,-0.87698 0.1222,-1.70067 0.64087,-2.36584 0.57069,-0.73226 1.27201,-1.12063 2.11418,-1.2091 1.68573,-0.17709 3.37359,-0.34216 5.06338,-0.49541 2.21326,-0.20074 4.06774,-1.18166 5.51608,-2.92638 1.48802,-1.79254 2.14958,-3.79766 1.9873,-6.15722 -0.16614,-2.41585 -1.10985,-4.34365 -2.94151,-5.84979 -1.75581,-1.46683 -3.81911,-2.12106 -6.09501,-1.91399 -4.58463,0.41712 -9.16081,0.91783 -13.72505,1.50581 z m 36.69662,-2.91188 c -3.09995,0.10025 -5.64249,1.28824 -7.70421,3.58714 -2.06383,2.30128 -2.95268,4.93769 -2.76727,8.02222 l 0.3841,6.39026 c 0.18546,3.08531 1.36043,5.58996 3.52798,7.67068 2.1683,2.08143 4.60259,3.04248 7.48479,2.94877 2.84274,-0.0924 5.28535,-1.2407 7.29426,-3.43035 2.03446,-2.21751 3.04618,-4.7951 3.02863,-7.8853 l -0.0364,-6.40071 c -0.015,-2.63697 -0.83524,-4.97104 -2.50245,-6.97687 -1.05173,-1.28001 -2.34007,-2.25874 -3.85926,-2.94241 -1.52765,-0.7095 -3.14487,-1.03858 -4.8502,-0.98343 z m 14.53302,-0.217 -0.0114,5.17217 c 4.54982,0.0113 9.09838,0.095 13.64165,0.25666 0.87841,0.0312 1.61219,0.36147 2.2252,1.01236 0.006,0.006 0.0112,0.0105 0.0167,0.0163 0.004,0.005 0.007,0.009 0.011,0.0142 0.59287,0.62322 0.89654,1.44121 0.85579,2.36955 -0.0382,0.87078 -0.40409,1.66578 -1.05941,2.27032 -0.66225,0.61061 -1.41208,0.88758 -2.28181,0.85662 -1.72379,-0.0614 -3.44876,-0.11142 -5.17468,-0.15047 -2.243,-0.0507 -4.21665,0.75358 -5.82709,2.3612 -1.6504,1.64752 -2.43507,3.61038 -2.44031,5.99219 l -0.0186,8.45752 c 6.9392,0.0253 13.85047,0.22144 20.71692,0.61198 l 0.29592,-5.16314 c -5.3458,-0.30448 -10.71479,-0.49221 -16.09933,-0.57381 l 0.0475,-3.28759 c 0.0127,-0.88099 0.34229,-1.67057 0.94632,-2.26492 0.6647,-0.65437 1.41096,-0.94928 2.26215,-0.92994 1.70342,0.0387 3.40557,0.0882 5.10624,0.14876 2.22751,0.0793 4.19286,-0.66204 5.8493,-2.21206 1.70082,-1.59156 2.61101,-3.49827 2.74641,-5.86074 0.13858,-2.41799 -0.55529,-4.44904 -2.18381,-6.17346 -1.5587,-1.67639 -3.52566,-2.58415 -5.81054,-2.6654 -4.60286,-0.16369 -9.20892,-0.24793 -13.81416,-0.25829 z m 25.66814,0.85968 -0.5593,8.44082 c -0.15268,2.30414 0.51718,4.36157 1.94507,6.11534 0.008,0.0123 0.0158,0.0247 0.0237,0.037 0.0106,0.01 0.0212,0.0198 0.0319,0.0297 1.46507,1.72034 3.31373,2.68943 5.5104,2.88489 2.72846,0.24278 5.45071,0.51783 8.16577,0.8265 l -1.3277,11.634 c 1.57512,0.1786 3.14698,0.36889 4.71535,0.57116 l 3.67652,-28.38339 c -1.71367,-0.22193 -3.42919,-0.43072 -5.14635,-0.62664 l -1.32792,11.63594 c -2.75798,-0.31391 -5.52233,-0.59361 -8.29208,-0.84045 -0.88709,-0.0791 -1.59909,-0.44997 -2.1702,-1.12354 -0.001,-0.001 -0.002,-0.003 -0.004,-0.004 -0.001,-7.7e-4 -0.002,-0.002 -0.004,-0.002 -0.57253,-0.69842 -0.81404,-1.47732 -0.74116,-2.38473 l 0.67712,-8.43128 c -1.72352,-0.13832 -3.44819,-0.26446 -5.1738,-0.37871 z m -40.03397,4.52776 c 1.57204,-0.0509 2.98649,0.49577 4.13375,1.60664 0.0101,0.0193 0.0201,0.0386 0.0302,0.058 0.0195,0.009 0.039,0.0187 0.0584,0.028 1.14617,1.11277 1.74315,2.51502 1.77161,4.10068 l 0.11487,6.40052 c 0.0288,1.60228 -0.51906,3.05051 -1.60365,4.24337 -1.07932,1.18708 -2.36692,1.79272 -3.91415,1.84297 -1.54244,0.0501 -2.8784,-0.46675 -4.04723,-1.57617 -0.002,-0.002 -0.004,-0.004 -0.006,-0.006 -0.001,-0.001 -0.003,-0.003 -0.004,-0.004 -1.15068,-1.13422 -1.75835,-2.49874 -1.83509,-4.13004 l -0.30081,-6.39494 c -0.0756,-1.60802 0.43437,-3.06404 1.5102,-4.25268 1.10028,-1.21566 2.50269,-1.8655 4.09152,-1.91693 8e-5,7e-5 1.5e-4,1.4e-4 2.3e-4,2.1e-4 z"
     inkscape:label="2024" /></g><g
   id="g70"
   inkscape:label="tint5"
   transform="translate(9.9302447,-1.1422494)">
		
	<path
   d="m 238.90851,377.82675 c -1.8,0 -3.7,0 -5.5,0 -0.3,-0.1 -0.6,-0.2 -0.9,-0.2 -11.1,-0.5 -21.5,-3.4 -31.4,-8.2 -0.7,-0.4 -1.2,-0.8 -1.3,-1.6 -0.5,-2 -1,-3.9 -1.6,-5.9 -1.1,0.2 -2,0.3 -3,0.5 -4.9,0.9 -4.9,0.9 -9,-2.1 -13.8,-10.5 -24.1,-23.9 -31.9,-39.3 -0.2,-0.4 -0.2,-1.2 0,-1.7 0.7,-1.8 1.4,-3.6 2.2,-5.5 -1.9,-0.6 -3.6,-1.2 -5.4,-1.7 -0.7,-0.2 -1.1,-0.6 -1.4,-1.3 -6.2,-15.7 -9.6,-32 -10.1,-48.8 0,-0.6 0.3,-1.2 0.7,-1.7 1.3,-1.4 2.6,-2.8 3.9,-4.1 -0.1,-0.2 -0.1,-0.3 -0.1,-0.3 -1.2,-1.3 -2.5,-2.6 -3.7,-3.9 -0.4,-0.5 -0.7,-1.2 -0.7,-1.7 0.6,-16.8 3.9,-33.1 10.1,-48.8 0.3,-0.7 0.7,-1.1 1.4,-1.3 1.8,-0.5 3.5,-1.1 5.4,-1.7 -0.8,-2 -1.6,-3.8 -2.3,-5.6 -0.2,-0.5 -0.2,-1.1 0.1,-1.5 1,-2 2,-3.9 3.1,-5.8 8.1,-14.2 18.6,-26.4 32,-35.8 0.7,-0.5 1.3,-0.6 2.1,-0.5 2.2,0.5 4.4,0.8 6.6,1.2 0.6,-2.1 1,-4.1 1.6,-6 0.2,-0.5 0.6,-1.2 1.1,-1.4 8.9,-4.4 18.3,-7.2 28.2,-8.1 1.5,-0.1 2.9,-0.3 4.4,-0.4 1.9,0 3.8,0 5.8,0 0.3,0.1 0.6,0.2 0.9,0.2 11,0.5 21.3,3.3 31.2,8.1 0.9,0.4 1.3,1 1.5,1.9 0.4,1.9 1,3.8 1.5,5.7 2.2,-0.4 4.4,-0.7 6.5,-1.1 1,-0.2 1.6,0 2.4,0.5 15.3,10.8 26.6,25 35,41.6 0.2,0.4 0.2,1 0,1.4 -0.7,1.9 -1.5,3.7 -2.2,5.6 1.8,0.6 3.5,1.2 5.2,1.7 0.8,0.2 1.3,0.6 1.6,1.5 5.5,13.8 8.7,28.1 9.8,42.9 0.1,1.6 0.3,3.2 0.4,4.9 0,0.6 0,1.3 0,1.9 -1.6,1.6 -3.1,3.2 -4.7,4.8 1.6,1.6 3.1,3.2 4.7,4.8 0,0.6 0,1.3 0,1.9 -0.1,0.3 -0.2,0.5 -0.2,0.8 -0.2,3.1 -0.4,6.1 -0.7,9.2 -1.4,13.1 -4.5,25.7 -9.3,37.9 -0.3,0.7 -0.6,1.1 -1.4,1.3 -1.8,0.5 -3.6,1.2 -5.4,1.7 0,0.2 0,0.3 0,0.3 0.7,1.7 1.3,3.3 2,5 0.3,0.8 0.4,1.4 -0.1,2.1 -0.9,1.6 -1.7,3.2 -2.5,4.8 -8.2,14.5 -18.7,27 -32.4,36.6 -0.7,0.5 -1.3,0.7 -2.2,0.5 -2.2,-0.5 -4.4,-0.8 -6.5,-1.1 -0.1,0.2 -0.2,0.3 -0.2,0.4 -0.5,1.9 -1,3.9 -1.6,5.8 -0.2,0.5 -0.6,1.1 -1,1.3 -8.9,4.4 -18.2,7.2 -28.1,8.1 -1.6,-0.1 -3.1,0.1 -4.6,0.2 z"
   id="path62"
   inkscape:label="path19"
   style="fill:#59a2dc;fill-opacity:0.07" /><path
   class="st2"
   d="m 238.90851,377.82675 c -1.8,0 -3.7,0 -5.5,0 -0.3,-0.1 -0.6,-0.2 -0.9,-0.2 -11.1,-0.5 -21.5,-3.4 -31.4,-8.2 -0.7,-0.4 -1.2,-0.8 -1.3,-1.6 -0.5,-2 -1,-3.9 -1.6,-5.9 -1.1,0.2 -2,0.3 -3,0.5 -4.9,0.9 -4.9,0.9 -9,-2.1 -13.8,-10.5 -24.1,-23.9 -31.9,-39.3 -0.2,-0.4 -0.2,-1.2 0,-1.7 0.7,-1.8 1.4,-3.6 2.2,-5.5 -1.9,-0.6 -3.6,-1.2 -5.4,-1.7 -0.7,-0.2 -1.1,-0.6 -1.4,-1.3 -6.2,-15.7 -9.6,-32 -10.1,-48.8 0,-0.6 0.3,-1.2 0.7,-1.7 1.3,-1.4 2.6,-2.8 3.9,-4.1 -0.1,-0.2 -0.1,-0.3 -0.1,-0.3 -1.2,-1.3 -2.5,-2.6 -3.7,-3.9 -0.4,-0.5 -0.7,-1.2 -0.7,-1.7 0.6,-16.8 3.9,-33.1 10.1,-48.8 0.3,-0.7 0.7,-1.1 1.4,-1.3 1.8,-0.5 3.5,-1.1 5.4,-1.7 -0.8,-2 -1.6,-3.8 -2.3,-5.6 -0.2,-0.5 -0.2,-1.1 0.1,-1.5 1,-2 2,-3.9 3.1,-5.8 8.1,-14.2 18.6,-26.4 32,-35.8 0.7,-0.5 1.3,-0.6 2.1,-0.5 2.2,0.5 4.4,0.8 6.6,1.2 0.6,-2.1 1,-4.1 1.6,-6 0.2,-0.5 0.6,-1.2 1.1,-1.4 8.9,-4.4 18.3,-7.2 28.2,-8.1 1.5,-0.1 2.9,-0.3 4.4,-0.4 1.9,0 3.8,0 5.8,0 0.3,0.1 0.6,0.2 0.9,0.2 11,0.5 21.3,3.3 31.2,8.1 0.9,0.4 1.3,1 1.5,1.9 0.4,1.9 1,3.8 1.5,5.7 2.2,-0.4 4.4,-0.7 6.5,-1.1 1,-0.2 1.6,0 2.4,0.5 15.3,10.8 26.6,25 35,41.6 0.2,0.4 0.2,1 0,1.4 -0.7,1.9 -1.5,3.7 -2.2,5.6 1.8,0.6 3.5,1.2 5.2,1.7 0.8,0.2 1.3,0.6 1.6,1.5 5.5,13.8 8.7,28.1 9.8,42.9 0.1,1.6 0.3,3.2 0.4,4.9 0,0.6 0,1.3 0,1.9 -1.6,1.6 -3.1,3.2 -4.7,4.8 1.6,1.6 3.1,3.2 4.7,4.8 0,0.6 0,1.3 0,1.9 -0.1,0.3 -0.2,0.5 -0.2,0.8 -0.2,3.1 -0.4,6.1 -0.7,9.2 -1.4,13.1 -4.5,25.7 -9.3,37.9 -0.3,0.7 -0.6,1.1 -1.4,1.3 -1.8,0.5 -3.6,1.2 -5.4,1.7 0,0.2 0,0.3 0,0.3 0.7,1.7 1.3,3.3 2,5 0.3,0.8 0.4,1.4 -0.1,2.1 -0.9,1.6 -1.7,3.2 -2.5,4.8 -8.2,14.5 -18.7,27 -32.4,36.6 -0.7,0.5 -1.3,0.7 -2.2,0.5 -2.2,-0.5 -4.4,-0.8 -6.5,-1.1 -0.1,0.2 -0.2,0.3 -0.2,0.4 -0.5,1.9 -1,3.9 -1.6,5.8 -0.2,0.5 -0.6,1.1 -1,1.3 -8.9,4.4 -18.2,7.2 -28.1,8.1 -1.6,-0.1 -3.1,0.1 -4.6,0.2 z m 30.8,-23.7 c 1.9,0.3 3.6,0.6 5.3,0.9 0.8,0.2 1.4,0 2.1,-0.5 14.2,-9.9 24.6,-23 32.3,-38.4 0.2,-0.4 0.2,-1.1 0,-1.6 -0.6,-1.6 -1.3,-3.3 -1.9,-5 1.7,-0.5 3.3,-1 4.8,-1.6 0.5,-0.2 1,-0.7 1.2,-1.1 0.9,-2.3 1.8,-4.7 2.6,-7.1 4.1,-12.4 6.3,-25.2 6.9,-38.3 0,-1 -0.2,-1.8 -1,-2.4 -1,-0.9 -2.1,-1.8 -3.2,-2.7 1.4,-1.4 2.4,-2.5 3.4,-3.5 0.5,-0.5 0.8,-1.1 0.7,-1.9 -0.3,-3.7 -0.5,-7.3 -0.9,-11 -1.3,-11.9 -4.1,-23.4 -8.6,-34.5 -0.2,-0.5 -0.8,-1.1 -1.4,-1.3 -1.5,-0.6 -3.1,-1.1 -4.7,-1.6 0.7,-1.7 1.4,-3.2 1.9,-4.8 0.2,-0.6 0.2,-1.4 -0.1,-1.9 -2.7,-4.7 -5.3,-9.4 -8.3,-13.9 -6.5,-9.6 -14.5,-17.8 -24,-24.3 -0.6,-0.4 -1.2,-0.6 -2,-0.4 -1.7,0.4 -3.5,0.6 -5.2,0.9 -0.1,-0.2 -0.2,-0.2 -0.2,-0.3 -0.4,-1.5 -0.8,-3.1 -1.3,-4.6 -0.1,-0.4 -0.5,-0.9 -0.9,-1.1 -9.6,-4.8 -19.8,-7.4 -30.6,-7.5 -11.2,-0.1 -21.9,2.5 -31.9,7.4 -0.4,0.2 -0.8,0.8 -0.9,1.2 -0.5,1.6 -0.9,3.2 -1.4,4.9 -1.7,-0.3 -3.4,-0.5 -5,-0.9 -1,-0.2 -1.7,0 -2.5,0.6 -14.2,9.9 -24.5,23.1 -32.3,38.4 -0.2,0.4 -0.2,0.9 0,1.3 0.6,1.7 1.3,3.3 2,5 -1.7,0.6 -3.2,1.1 -4.7,1.5 -0.8,0.2 -1.2,0.7 -1.5,1.4 -5.8,14.7 -8.8,29.9 -9.3,45.7 0,0.5 0.3,1.2 0.7,1.6 0.9,1.1 2,2.1 3.1,3.3 -1.1,1.1 -2.2,2.2 -3.1,3.3 -0.4,0.5 -0.7,1.2 -0.7,1.8 0.2,3.3 0.3,6.6 0.7,9.9 1.2,12.2 4.1,24.1 8.6,35.5 0.3,0.9 0.8,1.3 1.7,1.6 1.5,0.4 2.9,0.9 4.5,1.5 -0.7,1.7 -1.4,3.3 -1.9,4.9 -0.2,0.5 -0.2,1.2 0.1,1.6 1.8,3.4 3.6,6.8 5.6,10 7,11.2 15.8,20.9 26.8,28.4 0.5,0.3 1.2,0.5 1.8,0.4 1.8,-0.2 3.5,-0.6 5.2,-0.9 0.1,0.1 0.2,0.2 0.2,0.2 0.4,1.6 0.8,3.2 1.3,4.7 0.1,0.4 0.5,0.9 0.9,1.1 9.7,4.8 20.1,7.4 30.9,7.4 11.1,0 21.6,-2.5 31.5,-7.5 0.4,-0.2 0.8,-0.7 0.9,-1.1 0.9,-1.3 1.3,-3 1.8,-4.7 z"
   id="path63"
   style="fill:#59a2dc;fill-opacity:0.07;stroke:#4390c9;stroke-opacity:0.20663266;stroke-width:2" /><path
   class="st2"
   d="m 159.80851,256.42675 c -2.1,-2.2 -3.8,-4 -5.5,-5.8 -0.3,-0.4 -0.6,-1 -0.6,-1.5 0.7,-14.1 3.4,-27.7 8.5,-40.9 0.2,-0.5 0.7,-0.9 1.2,-1.1 4.2,-2.1 8.8,-1.9 13.4,-1.9 h 20.3 c 0.9,0 1.4,-0.2 2,-1 5.4,-7.7 10.8,-15.3 16.3,-23 1.1,-1.6 2.7,-2.4 4.6,-2.4 h 32.6 c 1.8,0 3.3,0.8 4.4,2.3 4.6,6.5 9.2,13 13.8,19.6 l 2.4,3.6 c 0.5,0.8 1,0.9 1.9,0.9 h 26.3 c 3,0 5.5,1.3 8.2,2.1 0.3,0.1 0.5,0.6 0.7,0.9 3.7,9.6 6.2,19.6 7.5,29.8 0.5,3.7 0.7,7.5 1,11.2 0,0.5 -0.3,1.2 -0.6,1.5 -1.7,1.8 -3.4,3.5 -5.2,5.3 1.7,1.8 3.3,3.6 5,5.2 0.7,0.7 0.9,1.4 0.9,2.3 -0.7,12.1 -2.8,23.9 -6.6,35.3 l -1.8,5.1 c -0.2,0.5 -0.7,0.9 -1.2,1.1 -3.5,1.5 -7.2,2 -11.1,1.9 -7.6,-0.2 -15.3,0 -22.9,-0.1 -0.9,0 -1.4,0.2 -1.9,0.9 -5.4,7.7 -10.8,15.5 -16.2,23.2 -1,1.4 -2.5,2.2 -4.2,2.2 h -33.1 c -1.7,0 -3.2,-0.8 -4.2,-2.2 -4.6,-6.5 -9.2,-13 -13.7,-19.5 -0.9,-1.2 -1.7,-2.5 -2.5,-3.8 -0.4,-0.6 -0.9,-0.8 -1.6,-0.8 h -13.8 c -4.8,0 -9.6,0.1 -14.4,-0.2 -2.2,-0.2 -4.4,-1.2 -6.6,-1.9 -0.3,-0.1 -0.4,-0.5 -0.6,-0.9 -3.4,-8.8 -5.8,-17.8 -7.1,-27.2 -0.6,-4.3 -0.9,-8.7 -1.4,-13 -0.1,-1.1 0.1,-2 1,-2.7 1.4,-1.3 3.1,-2.8 4.8,-4.5 z"
   id="path64"
   inkscape:label="path4"
   sodipodi:nodetypes="cccccssccsscccsscccccccccccccccsscccssccccccc"
   style="fill:#59a2dc;fill-opacity:0.07" /><path
   class="st2"
   d="m 291.00851,201.32675 c -3.6,0 -7.1,0 -10.7,0 -1.7,0 -3.2,-0.8 -4.2,-2.2 -4.6,-6.5 -9.2,-13.1 -13.8,-19.6 -0.8,-1.1 -0.8,-4.1 0.1,-5.3 2.5,-3.6 5.1,-7.2 7.6,-10.8 0.5,-0.7 1.1,-1 1.9,-1.3 2.5,-0.8 4.3,-0.1 6.3,1.5 11.3,8.8 19.9,19.7 26.5,32.3 0.1,0.3 0.3,0.6 0.2,0.9 -0.5,1.4 -1,2.8 -1.7,4.1 -0.1,0.3 -0.7,0.4 -1.1,0.4 -3.8,0 -7.5,0 -11.1,0 z"
   id="path65"
   style="fill:#59a2dc;fill-opacity:0.07" /><path
   class="st2"
   d="m 236.20851,174.92675 c -5.5,0 -11,0 -16.4,0 -1.8,0 -3.3,-0.8 -4.4,-2.3 -2.7,-3.8 -5.4,-7.7 -8.2,-11.5 -0.4,-0.6 -0.7,-1.2 -0.3,-1.9 0.1,-0.2 0.2,-0.5 0.2,-0.8 0.1,-2.5 1.7,-3.6 3.9,-4.4 17.6,-7 35.1,-6.7 52.4,0.9 0.8,0.3 1.1,0.9 1.4,1.6 1.1,2.6 0.6,4.7 -1.2,6.9 -2.4,2.9 -4.4,6.2 -6.6,9.3 -1,1.4 -2.5,2.2 -4.3,2.2 -5.5,0 -11,0 -16.5,0 z"
   id="path66"
   style="fill:#59a2dc;fill-opacity:0.07" /><path
   class="st2"
   d="m 236.20851,337.42675 c 5.4,0 10.9,0 16.3,0 1.8,0 3.3,0.8 4.4,2.2 2.8,3.9 5.5,7.7 8.2,11.7 0.3,0.4 0.4,1.2 0.3,1.7 -1,4 -1,4.1 -4.9,5.6 -17.2,6.7 -34.2,6.3 -51.2,-1 -1.1,-0.5 -1.5,-1.2 -1.9,-2.2 -0.8,-2.3 -0.5,-4.1 1.1,-6.1 2.5,-3.1 4.6,-6.5 7,-9.7 1,-1.4 2.5,-2.1 4.2,-2.2 5.5,-0.1 11,0 16.5,0 z"
   id="path67"
   style="fill:#59a2dc;fill-opacity:0.07" /><path
   class="st2"
   d="m 181.30851,201.32675 c -3.6,0 -7.3,0 -10.9,0 -0.8,0 -1.1,-0.3 -1.5,-1 -1.5,-2.6 -1.1,-4.8 0.4,-7.4 6.9,-11.9 15.5,-22.4 26.7,-30.6 0.8,-0.6 1.5,-0.7 2.5,-0.6 2.3,0.2 3.8,1.1 5.1,3.1 2,3.2 4.3,6.2 6.4,9.2 0.8,1.2 0.9,4.3 0,5.4 -4.6,6.5 -9.2,13.1 -13.8,19.6 -1,1.4 -2.4,2.1 -4.1,2.1 -3.6,0.2 -7.2,0.2 -10.8,0.2 z"
   id="path68"
   style="fill:#59a2dc;fill-opacity:0.07" /><path
   class="st2"
   d="m 291.00851,311.02675 c 3.6,0 7.3,0 10.9,0 0.8,0 1.2,0.2 1.5,1 1.5,3.8 1.6,3.8 -0.5,7.4 -6.7,11.9 -15.3,22.2 -26.4,30.4 -1,0.7 -1.9,0.8 -3.1,0.7 -2.2,-0.2 -3.5,-1.2 -4.6,-3 -2.1,-3.2 -4.4,-6.3 -6.6,-9.4 -0.8,-1.1 -0.8,-4.1 -0.1,-5.2 4.7,-6.6 9.3,-13.2 14,-19.8 0.9,-1.3 2.3,-2 3.9,-2 3.7,-0.2 7.4,-0.1 11,-0.1 z"
   id="path69"
   style="fill:#59a2dc;fill-opacity:0.07" /><path
   class="st2"
   d="m 181.40851,311.02675 c 3.6,0 7.2,0 10.8,0 1.7,0 3.1,0.8 4.1,2.1 4.6,6.5 9.2,13 13.8,19.6 0.7,1.1 0.8,4.2 0.1,5.2 -2.6,3.7 -5.2,7.5 -7.9,11.1 -0.3,0.4 -1,0.7 -1.5,0.9 -2.5,1 -4.4,0.2 -6.5,-1.4 -11.2,-8.8 -19.8,-19.7 -26.4,-32.2 -0.2,-0.3 -0.3,-0.8 -0.2,-1.1 0.4,-1.3 0.9,-2.6 1.5,-3.8 0.1,-0.3 0.8,-0.5 1.2,-0.5 3.6,0 7.3,0.1 11,0.1 z"
   id="path70"
   style="fill:#59a2dc;fill-opacity:0.07" /><path
   class="st2"
   d="m 155.31926,91.527812 c 8,15.599998 16,31.199988 24.1,46.899988 4,-4.2 7.9,-8.3 12,-12.5 1.1,2.6 2.1,5 3.1,7.5 2.50548,6.03171 5.01096,12.14954 7.51644,18.19366 l -18.18159,17.36263 c -0.65724,-1.28414 -1.32873,-2.6029 -2.03485,-3.95629 -4,4.5 -7.9,8.9 -12.1,13.6 -4.9,-29.1 -9.8,-58.1 -14.7,-86.999988 0.2,0 0.3,0 0.3,-0.1 z"
   id="path73"
   inkscape:label="bolt_l"
   sodipodi:nodetypes="cccccccccc"
   style="fill:#5ba2dc;fill-opacity:0.07;stroke:#4390c9;stroke-opacity:0.20663266;stroke-width:2"
   transform="translate(-12.264744,3.5219357)" /><path
   class="st2"
   d="m 333.71926,328.9278 c 4.9,29.1 9.8,58 14.6,86.8 -0.1,0 -0.2,0.1 -0.2,0.1 -8,-15.5 -16,-31.1 -24.1,-46.7 -4,4.2 -7.9,8.3 -12,12.5 -3.41965,-8.27078 -6.71281,-16.41506 -10.03036,-24.43286 l 17.48482,-18.82885 c 0.68142,1.40879 1.09083,2.33185 2.04554,4.16171 4.2,-4.6 8.1,-9 12.2,-13.6 z"
   id="path74"
   inkscape:label="bolt_r"
   sodipodi:nodetypes="ccccccccc"
   style="fill:#5ba2dc;fill-opacity:0.07;stroke:#4390c9;stroke-opacity:0.20663266;stroke-width:2"
   transform="translate(-12.264744,3.5219357)" /></g></svg>
